<svg width="21" height="15" viewBox="0 0 21 15" fill="none" xmlns="http://www.w3.org/2000/svg">
<g clip-path="url(#clip0_197_16073)">
<rect width="21" height="15" rx="3" fill="white"/>
<path fill-rule="evenodd" clip-rule="evenodd" d="M0 10H21V15H0V10Z" fill="#F93939"/>
<path fill-rule="evenodd" clip-rule="evenodd" d="M0 0H21V5H0V0Z" fill="#00B731"/>
<path fill-rule="evenodd" clip-rule="evenodd" d="M10.0587 5C10.0587 5 10.338 5.14705 10.6238 5.14705C10.9097 5.14705 11.1973 5 11.1973 5V5.19607C11.1973 5.19607 10.8833 5.34313 10.6052 5.34313C10.3271 5.34313 10.0587 5.19607 10.0587 5.19607V5ZM8 7.31437C8 6.15231 9.59602 5.39246 9.59602 5.39246C9.59602 5.39246 8.67355 5.8867 8.67355 7.26567C8.67355 8.64464 9.15243 9.24181 9.15243 9.24181C9.15243 9.24181 8 8.47643 8 7.31437ZM13.3839 7.25024C13.3839 6.08818 11.7894 5.39246 11.7894 5.39246C11.7894 5.39246 12.7119 5.8867 12.7119 7.26567C12.7119 8.64464 12.233 9.24181 12.233 9.24181C12.233 9.24181 13.3839 8.4123 13.3839 7.25024ZM9.08958 7.56665C9.02876 6.40618 9.99414 5.36602 9.99414 5.36602C9.99414 5.36602 9.64277 5.84399 9.71494 7.22107C9.73972 7.69391 9.92596 8.3974 10.1606 8.81213V5.44129H11.141V8.84136C11.3759 8.45396 11.557 7.79343 11.5821 7.31372C11.6543 5.93665 11.3198 5.36602 11.3198 5.36602C11.3198 5.36602 12.2851 6.40618 12.2243 7.56665C12.1881 8.25779 11.6563 8.98873 11.2321 9.46691C11.4382 9.51288 11.7145 9.56891 12.0943 9.6439C12.1024 9.68591 12.0178 9.68396 11.8496 9.6801H11.8496C11.6639 9.67583 11.3764 9.66922 10.9994 9.71685C10.8261 9.89448 10.7055 9.99978 10.7055 9.99978C10.7055 9.99978 10.6864 9.974 10.657 9.93835C10.6275 9.974 10.6084 9.99978 10.6084 9.99978C10.6084 9.99978 10.4878 9.89448 10.3145 9.71685C9.93751 9.66922 9.65 9.67583 9.46432 9.6801C9.29615 9.68396 9.21151 9.68591 9.21962 9.6439C9.59942 9.56891 9.87572 9.51288 10.0819 9.46691C9.65762 8.98873 9.1258 8.25779 9.08958 7.56665Z" fill="#E31D1C"/>
</g>
<defs>
<clipPath id="clip0_197_16073">
<rect width="21" height="15" rx="3" fill="white"/>
</clipPath>
</defs>
</svg>
