<svg width="21" height="15" viewBox="0 0 21 15" fill="none" xmlns="http://www.w3.org/2000/svg">
<g clip-path="url(#clip0_197_15526)">
<rect width="21" height="15" rx="3" fill="#249F58"/>
<path fill-rule="evenodd" clip-rule="evenodd" d="M0 2H21V13H0V2Z" fill="#FFDA2C"/>
<path fill-rule="evenodd" clip-rule="evenodd" d="M0 4H21V11H0V4Z" fill="#F93939"/>
<path fill-rule="evenodd" clip-rule="evenodd" d="M0 6H21V9H0V6Z" fill="#151515"/>
<path fill-rule="evenodd" clip-rule="evenodd" d="M1 0L12 7.5L1 15H0V0" fill="#151515"/>
<path fill-rule="evenodd" clip-rule="evenodd" d="M0 0L11 7.5L0 15V0Z" fill="white"/>
<path fill-rule="evenodd" clip-rule="evenodd" d="M4.5 8.75L3.03 9.523L3.31 7.886L2.122 6.726L3.765 6.489L4.5 5L5.235 6.49L6.878 6.727L5.688 7.887L5.968 9.523" fill="#F93939"/>
<path fill-rule="evenodd" clip-rule="evenodd" d="M3 9H6V8L5 7C5 7 5 6 4 6H3L4 7L3 9Z" fill="#FFDA2C"/>
</g>
<defs>
<clipPath id="clip0_197_15526">
<rect width="21" height="15" rx="3" fill="white"/>
</clipPath>
</defs>
</svg>
