<svg width="20" height="11" viewBox="0 0 20 11" fill="none" xmlns="http://www.w3.org/2000/svg">
<g id="Age">
<path id="Vector" d="M17.3522 8.60656C16.7588 8.60656 16.248 8.47403 15.8198 8.20897C15.3941 7.94115 15.0661 7.56289 14.8358 7.07419C14.6054 6.58273 14.4902 6.00153 14.4902 5.33061C14.4902 4.67624 14.6054 4.10195 14.8358 3.60773C15.0661 3.1135 15.3904 2.72834 15.8085 2.45224C16.2292 2.17614 16.7225 2.03809 17.2884 2.03809C17.669 2.03809 18.0233 2.10573 18.3513 2.24102C18.6818 2.37355 18.9697 2.57372 19.2151 2.84154C19.463 3.10936 19.6558 3.44621 19.7935 3.85208C19.9312 4.25519 20.0001 4.72732 20.0001 5.26848V5.75304H15.1287V4.65968H18.494C18.494 4.40566 18.4439 4.18064 18.3438 3.98461C18.2436 3.78857 18.1046 3.63534 17.9269 3.5249C17.7516 3.41169 17.5475 3.35509 17.3146 3.35509C17.0718 3.35509 16.8564 3.41722 16.6686 3.54146C16.4833 3.66295 16.3381 3.82723 16.233 4.0343C16.1278 4.23862 16.074 4.46641 16.0715 4.71766V5.75718C16.0715 6.07194 16.124 6.3439 16.2292 6.57307C16.3369 6.80223 16.4884 6.97894 16.6837 7.10318C16.879 7.22743 17.1106 7.28955 17.3785 7.28955C17.5563 7.28955 17.719 7.26194 17.8668 7.20672C18.0145 7.1515 18.1409 7.06867 18.2461 6.95823C18.3513 6.84779 18.4314 6.7125 18.4865 6.55236L19.9663 6.66004C19.8912 7.0521 19.7372 7.39447 19.5043 7.68714C19.274 7.97705 18.976 8.20345 18.6104 8.36635C18.2474 8.52649 17.8279 8.60656 17.3522 8.60656Z" fill="#2D59C8"/>
<path id="Vector_2" d="M10.6276 11.0004C10.1093 11.0004 9.66484 10.9217 9.29426 10.7643C8.92619 10.6097 8.63323 10.3985 8.41539 10.1306C8.19755 9.86282 8.05608 9.56187 7.99098 9.22779L9.47079 9.00829C9.51586 9.13529 9.58722 9.25402 9.68488 9.36446C9.78253 9.4749 9.91148 9.56325 10.0717 9.62952C10.2345 9.69854 10.4323 9.73306 10.6652 9.73306C11.0132 9.73306 11.2999 9.63918 11.5253 9.45143C11.7531 9.26644 11.867 8.95583 11.867 8.51959V7.35582H11.7994C11.7293 7.53252 11.6242 7.69956 11.4839 7.85694C11.3437 8.01432 11.1634 8.14271 10.9431 8.2421C10.7227 8.3415 10.4598 8.3912 10.1544 8.3912C9.72118 8.3912 9.32682 8.28076 8.97126 8.05988C8.61821 7.83623 8.33652 7.49525 8.12619 7.03692C7.91837 6.57583 7.81445 5.99325 7.81445 5.28919C7.81445 4.56856 7.92087 3.96666 8.1337 3.48348C8.34653 3.0003 8.62948 2.63861 8.98253 2.3984C9.33808 2.15819 9.72744 2.03809 10.1506 2.03809C10.4736 2.03809 10.744 2.09883 10.9619 2.22031C11.1797 2.33904 11.355 2.48813 11.4877 2.6676C11.6229 2.8443 11.7268 3.01825 11.7994 3.18943H11.8595V2.12092H13.4483V8.54444C13.4483 9.0856 13.3281 9.5384 13.0877 9.90286C12.8473 10.2673 12.5143 10.5407 12.0886 10.7229C11.6655 10.9079 11.1785 11.0004 10.6276 11.0004ZM10.6614 7.06591C10.9193 7.06591 11.1371 6.9955 11.3149 6.85469C11.4952 6.71112 11.6329 6.5068 11.7281 6.24174C11.8257 5.97392 11.8745 5.65365 11.8745 5.28091C11.8745 4.90817 11.827 4.58513 11.7318 4.31179C11.6367 4.03569 11.499 3.82171 11.3187 3.66985C11.1384 3.51799 10.9193 3.44207 10.6614 3.44207C10.3985 3.44207 10.1769 3.52076 9.99661 3.67813C9.81633 3.83275 9.67987 4.04811 9.58722 4.32421C9.49458 4.60032 9.44826 4.91921 9.44826 5.28091C9.44826 5.64812 9.49458 5.96564 9.58722 6.23346C9.68237 6.49852 9.81883 6.70421 9.99661 6.85055C10.1769 6.99412 10.3985 7.06591 10.6614 7.06591Z" fill="#2D59C8"/>
<path id="Vector_3" d="M1.74272 8.48186H0L2.6554 0H4.75117L7.40282 8.48186H5.66009L3.73333 1.93824H3.67324L1.74272 8.48186ZM1.6338 5.14793H5.75023V6.54776H1.6338V5.14793Z" fill="#2D59C8"/>
</g>
</svg>
