<svg width="74" height="65" viewBox="0 0 74 65" fill="none" xmlns="http://www.w3.org/2000/svg">
<g id="Arrow 4">
<path id="Vector 6 (Stroke)" fill-rule="evenodd" clip-rule="evenodd" d="M15.6217 60.8115C15.9386 60.9356 16.2232 60.7179 16.2574 60.3251C16.41 58.5693 16.5363 56.8194 16.6614 55.0844C17.2914 46.3527 17.894 38.0002 21.6957 31.184C24.7277 25.7477 30.0332 20.9846 35.9049 22.0173C35.9389 25.1107 36.8139 28.2664 38.4047 31.4475C39.1559 32.9497 40.2657 34.922 41.5871 36.477C42.9038 38.0265 44.529 39.2719 46.245 39.0308C47.7262 38.8227 48.1298 37.1231 48.1348 35.554C48.1398 33.9573 47.7525 32.155 47.3575 31.0475C45.5143 25.8792 41.1154 22.097 37.1126 20.8524C37.2114 19.6984 37.4462 18.5554 37.8234 17.4226C39.5101 12.3565 42.6164 9.09009 46.3369 6.74603C49.9018 4.50004 53.9937 3.12182 57.8967 1.80719C58.0765 1.74664 58.2558 1.68622 58.4348 1.62585C58.7235 1.52844 58.848 1.125 58.713 0.724739C58.5779 0.324476 58.2344 0.0789639 57.9457 0.176374C57.758 0.239706 57.5695 0.303183 57.3803 0.366895C53.4999 1.67356 49.3252 3.0793 45.6758 5.37852C41.84 7.79524 38.5441 11.2219 36.7476 16.6181C36.3149 17.9177 36.053 19.233 35.9519 20.5611C35.9129 20.5537 35.8739 20.5466 35.8349 20.5397C29.4145 19.4092 23.8288 24.5795 20.7141 30.1641C16.7558 37.2611 16.1291 46.0098 15.5031 54.7486C15.3803 56.4621 15.2576 58.1753 15.1098 59.8755C15.0756 60.2683 15.3048 60.6873 15.6217 60.8115ZM37.0594 22.2988C40.7458 23.4395 44.7136 26.9193 46.324 31.4346C46.6476 32.342 46.9848 33.9079 46.9806 35.2535C46.9762 36.6267 46.6367 37.4437 45.9009 37.5471C44.6881 37.7175 43.4494 36.8603 42.2661 35.4677C41.0874 34.0806 40.061 32.2711 39.3386 30.8264C37.8795 27.9088 37.091 25.071 37.0594 22.2988Z" fill="white"/>
<path id="Vector 7 (Stroke)" fill-rule="evenodd" clip-rule="evenodd" d="M15.213 61.1539C15.1631 60.9619 15.1141 60.7737 15.0837 60.6795C14.8283 59.8895 14.5591 59.0987 14.293 58.3172C14.1821 57.9915 14.0718 57.6675 13.9632 57.3458C13.8282 56.9455 13.4847 56.7 13.196 56.7974C12.9073 56.8948 12.7827 57.2983 12.9177 57.6985C13.0304 58.0323 13.143 58.3632 13.2551 58.6925C13.5189 59.4671 13.7796 60.2329 14.0297 61.0066C14.0295 61.0061 14.0295 61.0062 14.0298 61.007C14.0306 61.0099 14.0342 61.0217 14.0411 61.0467C14.0491 61.0757 14.0592 61.1132 14.0715 61.1598C14.0854 61.2125 14.1002 61.2693 14.1167 61.3329C14.1306 61.3863 14.1458 61.4444 14.1627 61.5089C14.2339 61.7805 14.3254 62.123 14.4254 62.4561C14.5223 62.7788 14.6398 63.1358 14.7673 63.4183C14.8278 63.5523 14.918 63.7322 15.0411 63.8842C15.1653 64.0374 15.4445 64.298 15.7672 64.1891C16.1496 64.0601 16.449 63.7862 16.6873 63.5024C16.8935 63.2567 17.0763 62.9744 17.2296 62.7378C17.2514 62.7042 17.2726 62.6715 17.2931 62.6399C17.4858 62.3444 17.706 62.0876 17.9492 61.8229C18.0117 61.7548 18.0769 61.6851 18.1438 61.6136C18.3283 61.4162 18.5251 61.2057 18.7099 60.9832C18.9189 60.7316 18.8932 60.2633 18.6526 59.9371C18.4119 59.6109 18.0474 59.5504 17.8384 59.8019C17.6731 60.0009 17.5054 60.1803 17.3275 60.3706C17.2566 60.4464 17.1841 60.524 17.1094 60.6052C16.8555 60.8816 16.5912 61.1862 16.3512 61.5543C16.3285 61.5892 16.306 61.6238 16.2838 61.658C16.1272 61.8993 15.982 62.123 15.8189 62.3173C15.748 62.4018 15.6781 62.475 15.6087 62.5365C15.572 62.4285 15.533 62.3059 15.4926 62.1714C15.4038 61.8757 15.32 61.5627 15.2501 61.2961C15.2378 61.2494 15.2254 61.2015 15.213 61.1539Z" fill="white"/>
</g>
</svg>
