<svg width="140" height="142" viewBox="0 0 140 142" fill="none" xmlns="http://www.w3.org/2000/svg">
<path fill-rule="evenodd" clip-rule="evenodd" d="M6.4532 85.6924C6.47302 85.0707 7.0438 84.7497 7.72809 84.9753C10.7869 85.9841 13.8167 87.0328 16.8207 88.0726C31.9393 93.3059 46.4012 98.3119 60.5881 96.8382C71.9027 95.6629 83.7247 90.1843 86.2211 79.5789C81.0502 77.293 76.3809 73.5499 72.1845 68.5862C70.2028 66.2421 67.6901 62.9572 66.0305 59.6176C64.3768 56.2897 63.4562 52.6631 65.0975 49.9547C66.5143 47.617 69.6594 48.1637 72.2983 49.2859C74.9836 50.4279 77.7313 52.377 79.3068 53.8383C86.6588 60.6577 89.8414 70.7707 89.0476 78.39C91.0569 79.0556 93.1456 79.4847 95.32 79.6675C105.044 80.4849 112.768 77.6214 119.385 73.0618C125.726 68.6929 130.989 62.8138 136.009 57.206C136.24 56.9477 136.47 56.69 136.701 56.433C137.072 56.0183 137.84 56.0998 138.415 56.615C138.99 57.1302 139.154 57.884 138.783 58.2987C138.541 58.5683 138.299 58.8392 138.055 59.111C133.065 64.6866 127.696 70.6849 121.205 75.1574C114.383 79.8583 106.253 82.9246 95.896 82.0539C93.4015 81.8442 91.0038 81.3363 88.7006 80.5492C88.6848 80.6202 88.6687 80.6908 88.6522 80.7611C85.9249 92.3586 73.217 98.0143 61.5937 99.2217C46.8225 100.756 31.6777 95.505 16.5502 90.2601C13.5839 89.2316 10.6183 88.2034 7.65633 87.2266C6.97205 87.001 6.43338 86.3141 6.4532 85.6924ZM86.5802 77.4372C87.3203 70.4241 84.3351 61.2531 77.9119 55.2952C76.6212 54.098 74.2343 52.4033 71.9713 51.4409C69.6619 50.4588 68.0452 50.4405 67.3415 51.6017C66.1814 53.5158 66.7286 56.2138 68.2148 59.2045C69.6952 62.1835 71.9946 65.211 73.9003 67.4652C77.7492 72.0178 81.9471 75.3868 86.5802 77.4372Z" fill="white"/>
<path fill-rule="evenodd" clip-rule="evenodd" d="M5.58432 86.131C5.87076 86.3532 6.15149 86.571 6.2878 86.6901C7.43061 87.6881 8.56479 88.7101 9.68559 89.72C10.1527 90.1409 10.6174 90.5597 11.0795 90.9737C11.6544 91.4889 11.8192 92.2428 11.4476 92.6575C11.076 93.0722 10.3087 92.9907 9.73375 92.4755C9.2543 92.0458 8.77973 91.6182 8.30745 91.1927C7.1965 90.1916 6.09823 89.202 4.97913 88.2246C4.97986 88.2252 4.9797 88.2251 4.9785 88.2241C4.97424 88.2205 4.95692 88.2061 4.91995 88.1765C4.87697 88.142 4.82137 88.0982 4.7519 88.044C4.6734 87.9826 4.58862 87.9168 4.49372 87.8432C4.41415 87.7814 4.32746 87.7141 4.23139 87.6393C3.8265 87.324 3.31714 86.9235 2.82983 86.5155C2.35761 86.1203 1.8427 85.6658 1.46012 85.248C1.27869 85.0499 1.04158 84.7689 0.874997 84.4525C0.707085 84.1335 0.47073 83.4768 0.886036 83.0134C1.37821 82.4641 2.05393 82.1585 2.70224 81.9629C3.26354 81.7936 3.86931 81.6899 4.37718 81.603C4.44934 81.5906 4.51952 81.5786 4.58731 81.5668C5.22237 81.4561 5.81245 81.2714 6.43222 81.0537C6.59151 80.9977 6.7557 80.9385 6.9239 80.8777C7.38847 80.7099 7.88361 80.5311 8.39051 80.381C8.96359 80.2113 9.73172 80.5919 10.1062 81.2312C10.4806 81.8704 10.3196 82.5261 9.74651 82.6958C9.29316 82.8301 8.87113 82.9825 8.42342 83.1442C8.24494 83.2086 8.06239 83.2745 7.87214 83.3414C7.22512 83.5687 6.52301 83.7931 5.73197 83.931C5.65695 83.944 5.58269 83.9568 5.50919 83.9695C4.99112 84.0586 4.5107 84.1413 4.06696 84.2751C3.87386 84.3334 3.70068 84.398 3.5474 84.4703C3.70222 84.6098 3.88016 84.7637 4.07685 84.9283C4.50961 85.2906 4.9748 85.6568 5.37221 85.9663C5.44185 86.0205 5.51326 86.0759 5.58432 86.131Z" fill="white"/>
</svg>
