<svg width="25" height="24" viewBox="0 0 25 24" xmlns="http://www.w3.org/2000/svg">
<path fill-rule="evenodd" clip-rule="evenodd" d="M13.1325 2.15634C12.7219 2.0195 12.2781 2.0195 11.8675 2.15634L3.86754 4.82301C3.05086 5.09524 2.5 5.85952 2.5 6.72038V8.99962C2.5 10.1042 3.39543 10.9996 4.5 10.9996H5.5V15.9996H4.5C3.39543 15.9996 2.5 16.895 2.5 17.9996V19.9996C2.5 21.1042 3.39543 21.9996 4.5 21.9996H20.5C21.6046 21.9996 22.5 21.1042 22.5 19.9996V17.9996C22.5 16.895 21.6046 15.9996 20.5 15.9996H19.5V10.9996H20.5C21.6046 10.9996 22.5 10.1042 22.5 8.99962V6.72038C22.5 5.85952 21.9491 5.09524 21.1325 4.82301L13.1325 2.15634ZM17.5 15.9996V10.9996H15.5V15.9996H17.5ZM13.5 15.9996V10.9996H11.5V15.9996H13.5ZM9.5 15.9996V10.9996H7.5V15.9996H9.5ZM4.5 17.9996V19.9996H20.5V17.9996H4.5ZM4.5 8.99962L4.5 6.72038L12.5 4.05371L20.5 6.72038V8.99962H4.5Z" />
</svg>
