<svg width="16" height="17" viewBox="0 0 16 17" xmlns="http://www.w3.org/2000/svg">
<g id="icon / bin">
<g id="icon">
<path d="M6.33308 1.66602C6.05597 1.66602 5.80775 1.83743 5.70962 2.09658L5.55656 2.50077C5.22843 2.46798 4.92612 2.43526 4.68139 2.40778C4.49845 2.38724 4.34807 2.36967 4.24361 2.35726L4.12311 2.3428L4.08219 2.3378C3.71679 2.29256 3.38338 2.55202 3.33813 2.91742C3.29288 3.28282 3.55241 3.61571 3.91781 3.66096L3.96234 3.66641L4.08633 3.68129C4.19322 3.69399 4.34647 3.71189 4.53262 3.73279C4.90459 3.77455 5.40946 3.82847 5.93915 3.87681C6.65367 3.94202 7.43689 3.99935 7.99974 3.99935C8.5626 3.99935 9.34581 3.94202 10.0603 3.87681C10.59 3.82847 11.0949 3.77455 11.4669 3.73279C11.653 3.71189 11.8063 3.69399 11.9132 3.68129L12.0371 3.66641L12.0816 3.66097C12.447 3.61572 12.7066 3.28282 12.6614 2.91742C12.6161 2.55202 12.2832 2.29249 11.9178 2.33773L11.8764 2.3428L11.7559 2.35726C11.6514 2.36967 11.501 2.38724 11.3181 2.40778C11.0734 2.43526 10.7711 2.46798 10.4429 2.50077L10.2899 2.09658C10.1917 1.83743 9.94352 1.66602 9.66641 1.66602H6.33308Z"/>
<path d="M7.33308 8.33268C7.33308 7.96449 7.0346 7.66602 6.66641 7.66602C6.29822 7.66602 5.99974 7.96449 5.99974 8.33268V11.666C5.99974 12.0342 6.29822 12.3327 6.66641 12.3327C7.0346 12.3327 7.33308 12.0342 7.33308 11.666V8.33268Z"/>
<path d="M9.33308 7.66602C9.70127 7.66602 9.99974 7.96449 9.99974 8.33268V11.666C9.99974 12.0342 9.70127 12.3327 9.33308 12.3327C8.96489 12.3327 8.66641 12.0342 8.66641 11.666V8.33268C8.66641 7.96449 8.96489 7.66602 9.33308 7.66602Z"/>
<path fill-rule="evenodd" clip-rule="evenodd" d="M12.6062 5.86639C12.6666 5.02054 11.9374 4.34244 11.1086 4.43821C10.2606 4.53622 8.95197 4.66602 7.99974 4.66602C7.04752 4.66602 5.7389 4.53622 4.89088 4.43821C4.06213 4.34244 3.33289 5.02054 3.39331 5.86639L3.96447 13.8626C4.00776 14.4687 4.45925 14.9812 5.07884 15.0744C5.74324 15.1743 6.96237 15.3339 8.00051 15.3327C9.0259 15.3315 10.25 15.1726 10.9173 15.0736C11.538 14.9815 11.9917 14.4687 12.0352 13.8607L12.6062 5.86639ZM11.2617 5.76273C11.264 5.76246 11.2658 5.76262 11.2658 5.76262L11.2675 5.76302C11.269 5.76354 11.2713 5.76475 11.2736 5.76693C11.2751 5.76837 11.2763 5.77013 11.2763 5.77013L11.2762 5.77139L10.7058 13.757C10.0454 13.8546 8.91343 13.9983 7.99897 13.9993C7.0746 14.0004 5.94966 13.8566 5.29375 13.7584L4.72325 5.77139L4.7232 5.77013C4.7232 5.77013 4.72434 5.76837 4.72586 5.76693C4.72816 5.76475 4.73048 5.76354 4.73196 5.76302L4.73373 5.76262C4.73373 5.76262 4.7355 5.76246 4.73781 5.76273C5.58733 5.86091 6.96337 5.99935 7.99974 5.99935C9.03611 5.99935 10.4122 5.86091 11.2617 5.76273Z"/>
</g>
</g>
</svg>
