<svg width="32" height="32" viewBox="0 0 32 32" xmlns="http://www.w3.org/2000/svg">
<g id="icon / books">
<path id="icon" fill-rule="evenodd" clip-rule="evenodd" d="M10.667 11.0472V26.6675C10.667 28.1402 9.47309 29.3342 8.00033 29.3342H5.33366C3.8609 29.3342 2.66699 28.1403 2.66699 26.6675V5.33416C2.66699 3.8614 3.8609 2.66749 5.33366 2.66749H8.00033C8.99827 2.66749 9.86819 3.21567 10.3254 4.02733C10.6513 3.7163 11.0606 3.48377 11.5296 3.36876L14.1196 2.73361C15.5499 2.38283 16.9938 3.25802 17.3446 4.68839L21.3337 20.9545V5.33416C21.3337 3.8614 22.5276 2.66749 24.0003 2.66749H26.667C28.1398 2.66749 29.3337 3.8614 29.3337 5.33416V26.6675C29.3337 28.1402 28.1398 29.3342 26.667 29.3342H24.0003C23.0024 29.3342 22.1324 28.786 21.6753 27.9743C21.3493 28.2853 20.94 28.5178 20.471 28.6329L17.8811 29.268C16.4507 29.6188 15.0068 28.7436 14.656 27.3132L10.667 11.0472ZM12.1648 5.95868L14.7547 5.32354L19.8359 26.0429L17.2459 26.6781L12.1648 5.95868ZM8.00033 5.33416L5.33366 5.33416V26.6675H8.00033V5.33416ZM26.667 5.33416L24.0003 5.33416V26.6675H26.667V5.33416Z"/>
</g>
</svg>
