<svg width="25" height="24" viewBox="0 0 25 24" fill="none" xmlns="http://www.w3.org/2000/svg">
<path fill-rule="evenodd" clip-rule="evenodd" d="M8.5 8.28542V20.0006C8.5 21.1052 7.60457 22.0006 6.5 22.0006H4.5C3.39543 22.0006 2.5 21.1052 2.5 20.0006V4.00062C2.5 2.89605 3.39543 2.00062 4.5 2.00062H6.5C7.24846 2.00062 7.90089 2.41175 8.24379 3.0205C8.48827 2.78722 8.79524 2.61283 9.14698 2.52657L11.0894 2.05021C12.1622 1.78713 13.2451 2.44351 13.5082 3.5163L16.5 15.7158V4.00062C16.5 2.89605 17.3954 2.00062 18.5 2.00062H20.5C21.6046 2.00062 22.5 2.89605 22.5 4.00062V20.0006C22.5 21.1052 21.6046 22.0006 20.5 22.0006H18.5C17.7515 22.0006 17.0991 21.5895 16.7562 20.9807C16.5117 21.214 16.2047 21.3884 15.853 21.4746L13.9106 21.951C12.8378 22.2141 11.7548 21.5577 11.4918 20.4849L8.5 8.28542ZM9.62334 4.46901L11.5658 3.99265L15.3766 19.5322L13.4342 20.0086L9.62334 4.46901ZM6.5 4.00062L4.5 4.00062V20.0006H6.5V4.00062ZM20.5 4.00062L18.5 4.00062V20.0006H20.5V4.00062Z" fill="#50545F"/>
</svg>
