<svg width="33" height="32" viewBox="0 0 33 32" fill="none" xmlns="http://www.w3.org/2000/svg">
<path d="M29.8327 22.3189V6.22562C29.8327 4.62562 28.526 3.43895 26.9393 3.57228H26.8593C24.0593 3.81228 19.806 5.23895 17.4327 6.73228L17.206 6.87895C16.8193 7.11895 16.1793 7.11895 15.7927 6.87895L15.4593 6.67895C13.086 5.19895 8.84601 3.78562 6.04602 3.55895C4.45935 3.42562 3.16602 4.62562 3.16602 6.21228V22.3189C3.16602 23.5989 4.20602 24.7989 5.48602 24.9589L5.87268 25.0123C8.76602 25.3989 13.2327 26.8656 15.7927 28.2656L15.846 28.2923C16.206 28.4923 16.7793 28.4923 17.126 28.2923C19.686 26.8789 24.166 25.3989 27.0727 25.0123L27.5127 24.9589C28.7927 24.7989 29.8327 23.5989 29.8327 22.3189Z" stroke="white" stroke-width="2" stroke-linecap="round" stroke-linejoin="round"/>
<path d="M16.5 7.32031V27.3203" stroke="white" stroke-width="2" stroke-linecap="round" stroke-linejoin="round"/>
<path d="M10.834 11.3203H7.83398" stroke="white" stroke-width="2" stroke-linecap="round" stroke-linejoin="round"/>
<path d="M11.834 15.3203H7.83398" stroke="white" stroke-width="2" stroke-linecap="round" stroke-linejoin="round"/>
</svg>
