<svg width="21" height="20" viewBox="0 0 21 20" fill="none" xmlns="http://www.w3.org/2000/svg">
<g clip-path="url(#clip0_10319_56909)">
<path d="M4.85714 -0.0190845C5.00866 -0.0184037 5.16019 -0.0186385 5.31172 -0.0187567C5.57363 -0.0188383 5.83554 -0.0183521 6.09745 -0.0174696C6.47611 -0.0161945 6.85478 -0.0157923 7.23345 -0.0155965C7.84795 -0.0152553 8.46246 -0.0142177 9.07696 -0.0127367C9.67355 -0.0113003 10.2701 -0.0101954 10.8667 -0.00953233C10.9036 -0.00949128 10.9404 -0.00945023 10.9784 -0.00940794C11.1632 -0.00920401 11.348 -0.00900656 11.5328 -0.00881233C13.0635 -0.00719506 14.5943 -0.00440194 16.1251 -0.000949264C16.1251 0.411551 16.1251 0.824051 16.1251 1.24905C15.9768 1.24937 15.8286 1.24968 15.6759 1.25001C14.3158 1.25294 12.9557 1.25626 11.5957 1.25999C11.4173 1.26048 11.2389 1.26096 11.0606 1.26145C11.0251 1.26154 10.9896 1.26164 10.953 1.26174C10.3785 1.26329 9.80403 1.26457 9.22956 1.26575C8.63983 1.26697 8.05011 1.26848 7.46038 1.27025C7.09666 1.27134 6.73295 1.2722 6.36924 1.27277C6.11962 1.27318 5.87 1.27388 5.62038 1.2748C5.4765 1.27532 5.33262 1.27572 5.18873 1.27578C5.03238 1.27585 4.87603 1.27651 4.71967 1.27724C4.67468 1.27716 4.62969 1.27708 4.58333 1.27701C3.96824 1.28123 3.42213 1.38176 2.96832 1.82248C2.4844 2.33578 2.401 2.92097 2.40473 3.60925C2.40463 3.67833 2.40463 3.67833 2.40453 3.74881C2.40442 3.87504 2.40466 4.00126 2.40506 4.12749C2.4054 4.26422 2.40528 4.40094 2.40522 4.53767C2.40518 4.77402 2.40542 5.01037 2.40586 5.24673C2.4065 5.58845 2.4067 5.93017 2.4068 6.27189C2.40697 6.82642 2.40749 7.38096 2.40823 7.9355C2.40895 8.47389 2.4095 9.01229 2.40983 9.55068C2.40985 9.58392 2.40987 9.61716 2.40989 9.6514C2.41 9.81815 2.4101 9.98491 2.41019 10.1517C2.411 11.5331 2.41238 12.9145 2.41412 14.2959C2.44088 14.2797 2.46764 14.2635 2.49521 14.2468C2.54791 14.215 2.54791 14.215 2.60167 14.1826C2.65389 14.151 2.65389 14.151 2.70717 14.1188C2.81357 14.0564 2.92022 14.0037 3.03424 13.9566C3.08606 13.9346 3.08606 13.9346 3.13892 13.9122C3.50219 13.7882 3.83784 13.7318 4.22126 13.735C4.26712 13.7349 4.31299 13.7348 4.36024 13.7347C4.48612 13.7345 4.61198 13.7349 4.73786 13.7354C4.87413 13.736 5.0104 13.7358 5.14667 13.7357C5.3823 13.7356 5.61793 13.736 5.85356 13.7367C6.19423 13.7376 6.53491 13.7379 6.87558 13.7381C7.42841 13.7383 7.98124 13.7391 8.53406 13.7402C9.07083 13.7413 9.60759 13.7421 10.1444 13.7426C10.1775 13.7426 10.2106 13.7427 10.2448 13.7427C10.411 13.7429 10.5772 13.743 10.7434 13.7432C12.1206 13.7444 13.4978 13.7465 14.8751 13.7491C14.8751 14.1616 14.8751 14.5741 14.8751 14.9991C14.7425 14.9994 14.6099 14.9997 14.4734 15C13.2567 15.0029 12.04 15.0063 10.8234 15.01C10.6638 15.0105 10.5042 15.011 10.3446 15.0114C10.297 15.0116 10.297 15.0116 10.2484 15.0117C9.73451 15.0133 9.22067 15.0146 8.70682 15.0157C8.17924 15.017 7.65166 15.0185 7.12409 15.0203C6.79876 15.0213 6.47343 15.0222 6.14811 15.0228C5.92477 15.0232 5.70143 15.0239 5.4781 15.0248C5.3494 15.0253 5.22071 15.0257 5.09201 15.0258C4.95208 15.0259 4.81215 15.0265 4.67222 15.0272C4.61203 15.0271 4.61203 15.0271 4.55062 15.027C3.94793 15.0316 3.41156 15.142 2.96832 15.5725C2.55743 16.0083 2.43279 16.4553 2.44235 17.0448C2.46194 17.5233 2.69728 17.9309 3.04019 18.2557C3.5205 18.6523 4.05179 18.7156 4.65343 18.7162C4.71915 18.7165 4.71915 18.7165 4.7862 18.7168C4.9326 18.7174 5.079 18.7177 5.2254 18.718C5.33051 18.7184 5.43562 18.7188 5.54073 18.7192C5.76681 18.72 5.9929 18.7207 6.21898 18.7214C6.54586 18.7222 6.87273 18.7233 7.1996 18.7245C7.72999 18.7264 8.26037 18.728 8.79075 18.7296C9.30585 18.7312 9.82095 18.7328 10.336 18.7345C10.3678 18.7346 10.3996 18.7347 10.4323 18.7348C10.5917 18.7354 10.7511 18.7359 10.9105 18.7364C12.232 18.7409 13.5535 18.745 14.8751 18.7491C14.8751 19.1616 14.8751 19.5741 14.8751 19.9991C13.4668 20.0026 12.0585 20.0054 10.6502 20.007C10.4837 20.0072 10.3173 20.0074 10.1508 20.0076C10.1177 20.0077 10.0845 20.0077 10.0504 20.0078C9.51463 20.0084 8.97888 20.0097 8.44314 20.0111C7.89292 20.0126 7.3427 20.0134 6.79247 20.0138C6.45329 20.014 6.11411 20.0146 5.77493 20.0159C5.54195 20.0167 5.30898 20.017 5.076 20.0168C4.94183 20.0167 4.80767 20.0168 4.6735 20.0177C4.01372 20.0212 3.42402 20.0109 2.82916 19.6939C2.80322 19.6805 2.77727 19.6671 2.75053 19.6533C2.54176 19.5427 2.35837 19.4115 2.17975 19.2569C2.14878 19.2335 2.11781 19.2102 2.08591 19.1862C1.52535 18.7133 1.18037 17.9533 1.11052 17.2316C1.10512 17.0725 1.10418 16.914 1.10522 16.7548C1.10504 16.6938 1.10479 16.6328 1.10448 16.5718C1.10384 16.4059 1.10415 16.24 1.10464 16.0741C1.10499 15.8945 1.10444 15.715 1.10401 15.5354C1.10332 15.1843 1.10347 14.8331 1.10392 14.482C1.10428 14.1965 1.10432 13.911 1.10415 13.6255C1.10413 13.5847 1.10411 13.544 1.10408 13.502C1.10403 13.4193 1.10398 13.3365 1.10393 13.2538C1.10348 12.4788 1.10399 11.7039 1.10483 10.9289C1.10553 10.2649 1.10541 9.60086 1.10469 8.93681C1.10385 8.16453 1.10353 7.39226 1.10401 6.61998C1.10406 6.53753 1.1041 6.45509 1.10415 6.37264C1.10418 6.33208 1.1042 6.29152 1.10423 6.24973C1.10436 5.96476 1.10413 5.67979 1.10377 5.39481C1.10333 5.04724 1.10345 4.69966 1.10428 4.35208C1.10469 4.17495 1.10485 3.99783 1.10433 3.8207C1.10386 3.65819 1.10413 3.49571 1.10495 3.3332C1.10513 3.27477 1.10504 3.21634 1.10466 3.15792C1.10156 2.64399 1.18608 2.16135 1.43024 1.70315C1.45031 1.66423 1.45031 1.66423 1.47079 1.62452C1.58146 1.41575 1.71257 1.23236 1.86725 1.05374C1.89056 1.02277 1.91388 0.991803 1.9379 0.959897C2.25264 0.586808 2.69912 0.315623 3.15631 0.155301C3.19 0.142295 3.2237 0.129289 3.25841 0.115889C3.77713 -0.0542807 4.31752 -0.0221304 4.85714 -0.0190845Z" fill="#2F3237"/>
<path d="M18.2347 2.49927C18.3933 2.56847 18.4684 2.64618 18.5555 2.79019C18.634 2.91879 18.7143 3.04601 18.7957 3.17283C19.8763 4.88841 20.0492 6.38783 20.0056 8.38515C19.9974 8.77441 19.9962 9.16361 19.9953 9.55294C19.9934 10.2469 19.9861 10.9407 19.9752 11.6346C19.9647 12.3061 19.9573 12.9775 19.9536 13.6491C19.9534 13.6908 19.9531 13.7325 19.9529 13.7755C19.952 13.9432 19.9511 14.1108 19.9502 14.2785C19.9462 15.0392 19.94 15.7999 19.9331 16.5605C19.9328 16.599 19.9324 16.6375 19.9321 16.6771C19.9277 17.1559 19.9223 17.6347 19.9151 18.1135C19.9131 18.2467 19.9115 18.3799 19.9102 18.5131C19.9087 18.6663 19.9064 18.8194 19.9036 18.9726C19.9027 19.028 19.902 19.0834 19.9017 19.1388C19.8979 19.6529 19.8979 19.6529 19.719 19.843C19.5423 19.9921 19.4181 20.0189 19.1893 20.0195C19.1463 20.0199 19.1463 20.0199 19.1025 20.0203C19.0085 20.021 18.9146 20.0205 18.8206 20.02C18.7549 20.0201 18.6893 20.0203 18.6236 20.0205C18.4862 20.0207 18.3489 20.0204 18.2115 20.0196C18.0357 20.0187 17.86 20.0193 17.6843 20.0202C17.5487 20.0208 17.4132 20.0206 17.2777 20.0202C17.2129 20.0201 17.1481 20.0202 17.0833 20.0206C16.9926 20.021 16.902 20.0204 16.8113 20.0195C16.7598 20.0194 16.7083 20.0192 16.6552 20.0191C16.4489 19.9897 16.3389 19.9041 16.1984 19.7545C16.0681 19.5501 16.0995 19.2922 16.0976 19.0585C16.0965 19.0016 16.0955 18.9446 16.0943 18.8877C16.0914 18.7312 16.0894 18.5748 16.0877 18.4183C16.086 18.284 16.0838 18.1497 16.0816 18.0153C16.0607 16.7321 16.0513 15.4487 16.0436 14.1653C16.0426 13.9975 16.0416 13.8298 16.0405 13.662C16.0403 13.6203 16.04 13.5786 16.0398 13.5356C16.0354 12.8664 16.026 12.1974 16.0144 11.5283C16.0025 10.8374 15.9959 10.1466 15.994 9.45559C15.9928 9.0692 15.9894 8.68312 15.9801 8.29683C15.9314 6.21633 16.1904 4.45846 17.4534 2.73364C17.6899 2.48662 17.9029 2.46926 18.2347 2.49927ZM17.3753 6.24927C17.3753 9.34302 17.3753 12.4368 17.3753 15.6243C17.7878 15.6243 18.2003 15.6243 18.6253 15.6243C18.6253 12.5305 18.6253 9.43677 18.6253 6.24927C18.2128 6.24927 17.8003 6.24927 17.3753 6.24927ZM17.3753 16.8743C17.3753 17.493 17.3753 18.1118 17.3753 18.7493C17.7878 18.7493 18.2003 18.7493 18.6253 18.7493C18.6253 18.1305 18.6253 17.5118 18.6253 16.8743C18.2128 16.8743 17.8003 16.8743 17.3753 16.8743Z" fill="#2F3237"/>
<path d="M5.03356 3.10632C5.073 3.10618 5.11244 3.10605 5.15307 3.10591C5.28515 3.10566 5.4172 3.10651 5.54928 3.10737C5.64399 3.10741 5.73869 3.10739 5.8334 3.1073C6.03726 3.10726 6.24111 3.10771 6.44496 3.10859C6.73969 3.10986 7.03443 3.11026 7.32916 3.11046C7.80738 3.1108 8.2856 3.11184 8.76381 3.11332C9.22829 3.11475 9.69276 3.11586 10.1572 3.11652C10.2002 3.11659 10.2002 3.11659 10.244 3.11665C10.3877 3.11685 10.5314 3.11705 10.6751 3.11724C11.8667 3.11886 13.0583 3.12166 14.2499 3.12511C14.2499 3.53761 14.2499 3.95011 14.2499 4.37511C11.3624 4.37511 8.47494 4.37511 5.49994 4.37511C5.49994 4.78761 5.49994 5.20011 5.49994 5.62511C7.97494 5.62511 10.4499 5.62511 12.9999 5.62511C12.9999 6.03761 12.9999 6.45011 12.9999 6.87511C11.9141 6.87872 10.8282 6.88151 9.7423 6.8832C9.23811 6.88401 8.73393 6.88511 8.22975 6.88689C7.79036 6.88845 7.35096 6.88946 6.91156 6.88981C6.67886 6.89001 6.44616 6.89049 6.21346 6.89163C5.99448 6.89269 5.77551 6.89302 5.55652 6.89278C5.47612 6.89282 5.39571 6.89313 5.31531 6.89373C5.20556 6.89451 5.09585 6.89432 4.9861 6.8939C4.93834 6.89458 4.93834 6.89458 4.88961 6.89528C4.68444 6.89312 4.56942 6.85376 4.40619 6.71886C4.25712 6.54213 4.23027 6.41791 4.22972 6.18907C4.22944 6.16046 4.22917 6.13184 4.22889 6.10236C4.2282 6.00837 4.22866 5.91442 4.22918 5.82042C4.22908 5.75476 4.22893 5.68909 4.22873 5.62343C4.2285 5.48604 4.22883 5.34867 4.22957 5.21129C4.23046 5.03554 4.22994 4.85982 4.22901 4.68407C4.22844 4.54855 4.22862 4.41303 4.22903 4.27751C4.22913 4.21272 4.22901 4.14793 4.22864 4.08315C4.22824 3.99246 4.22885 3.90183 4.22972 3.81114C4.22984 3.75963 4.22997 3.70812 4.2301 3.65504C4.25994 3.44546 4.34531 3.33319 4.50453 3.19763C4.68653 3.1006 4.83048 3.1038 5.03356 3.10632Z" fill="#2F3237"/>
<path d="M6.75 16.25C9.43125 16.25 12.1125 16.25 14.875 16.25C14.875 16.6625 14.875 17.075 14.875 17.5C12.1937 17.5 9.5125 17.5 6.75 17.5C6.75 17.0875 6.75 16.675 6.75 16.25Z" fill="#2F3237"/>
<path d="M10.5 8.75C11.7375 8.75 12.975 8.75 14.25 8.75C14.25 9.1625 14.25 9.575 14.25 10C13.0125 10 11.775 10 10.5 10C10.5 9.5875 10.5 9.175 10.5 8.75Z" fill="#2F3237"/>
<path d="M4.25 16.25C4.6625 16.25 5.075 16.25 5.5 16.25C5.5 16.6625 5.5 17.075 5.5 17.5C5.0875 17.5 4.675 17.5 4.25 17.5C4.25 17.0875 4.25 16.675 4.25 16.25Z" fill="#2F3237"/>
<path d="M6.75 8.75C7.1625 8.75 7.575 8.75 8 8.75C8 9.1625 8 9.575 8 10C7.5875 10 7.175 10 6.75 10C6.75 9.5875 6.75 9.175 6.75 8.75Z" fill="#2F3237"/>
<path d="M4.25 8.75C4.6625 8.75 5.075 8.75 5.5 8.75C5.5 9.1625 5.5 9.575 5.5 10C5.0875 10 4.675 10 4.25 10C4.25 9.5875 4.25 9.175 4.25 8.75Z" fill="#2F3237"/>
</g>
<defs>
<clipPath id="clip0_10319_56909">
<rect width="20" height="20" fill="white" transform="translate(0.5)"/>
</clipPath>
</defs>
</svg>
