<svg width="28" height="24" viewBox="0 0 28 24"  xmlns="http://www.w3.org/2000/svg">
<path d="M5.40404 10.5252C4.7454 10.1959 4.47844 9.39497 4.80776 8.73633C5.13707 8.07769 5.93797 7.81073 6.59661 8.14004L10.5966 10.14C11.2552 10.4694 11.5222 11.2703 11.1929 11.9289C10.8636 12.5875 10.0627 12.8545 9.40404 12.5252L5.40404 10.5252Z"/>
<path d="M5.40404 14.5252C4.7454 14.1959 4.47844 13.395 4.80776 12.7363C5.13707 12.0777 5.93797 11.8107 6.59661 12.14L10.5966 14.14C11.2552 14.4694 11.5222 15.2703 11.1929 15.9289C10.8636 16.5875 10.0627 16.8545 9.40404 16.5252L5.40404 14.5252Z"/>
<path d="M23.1929 8.73633C23.5222 9.39497 23.2552 10.1959 22.5966 10.5252L18.5966 12.5252C17.938 12.8545 17.1371 12.5875 16.8078 11.9289C16.4784 11.2703 16.7454 10.4694 17.404 10.14L21.404 8.14004C22.0627 7.81073 22.8636 8.07769 23.1929 8.73633Z"/>
<path d="M23.1929 12.7363C23.5222 13.395 23.2552 14.1959 22.5966 14.5252L18.5966 16.5252C17.938 16.8545 17.1371 16.5875 16.8078 15.9289C16.4784 15.2703 16.7454 14.4694 17.404 14.14L21.404 12.14C22.0627 11.8107 22.8636 12.0777 23.1929 12.7363Z"/>
<path fill-rule="evenodd" clip-rule="evenodd" d="M14.0003 22.6659C14.4672 23.9149 14.4673 23.9148 14.4674 23.9148L14.4795 23.9103L14.5117 23.8981L14.6325 23.8522C14.737 23.8123 14.888 23.7541 15.0765 23.6803C15.4532 23.5327 15.981 23.3219 16.5877 23.0682C17.7923 22.5643 19.3419 21.8768 20.6385 21.1699C22.0786 20.3849 24.2065 19.4883 25.4796 18.9733C26.5889 18.5246 27.3337 17.4479 27.3337 16.2331V3.42488C27.3337 1.50325 25.4941 0.0624172 23.6011 0.644185C22.3528 1.02785 20.718 1.56595 19.4681 2.11012C18.1623 2.67861 16.6054 3.5459 15.4042 4.25041C14.8534 4.57343 14.3673 4.86824 14.0003 5.09412C13.6333 4.86824 13.1472 4.57343 12.5965 4.25041C11.3953 3.5459 9.83832 2.67861 8.53257 2.11012C7.28269 1.56595 5.6479 1.02785 4.39951 0.644185C2.50651 0.0624168 0.666992 1.50325 0.666992 3.42488V16.2331C0.666992 17.4479 1.4118 18.5246 2.521 18.9733C3.79417 19.4883 5.92203 20.3849 7.36211 21.1699C8.65877 21.8768 10.2084 22.5643 11.413 23.0682C12.0196 23.3219 12.5474 23.5327 12.9242 23.6803C13.1127 23.7541 13.2636 23.8123 13.3681 23.8522L13.4889 23.8981L13.5211 23.9103L13.5323 23.9144C13.5324 23.9145 13.5334 23.9149 14.0003 22.6659ZM3.61613 3.19319C3.49371 3.15557 3.33366 3.23807 3.33366 3.42488V16.2331C3.33366 16.343 3.40209 16.4531 3.52096 16.5012C4.79312 17.0158 7.04959 17.9624 8.63854 18.8286C9.81443 19.4697 11.2648 20.1156 12.4421 20.608C12.5184 20.64 12.5934 20.6712 12.667 20.7017V7.4048C12.3061 7.18219 11.8116 6.88155 11.2474 6.55064C10.063 5.85599 8.61997 5.05661 7.46808 4.55511C6.36365 4.07427 4.84927 3.57217 3.61613 3.19319ZM15.3337 7.4048V20.7017C15.4072 20.6712 15.4823 20.64 15.5586 20.608C16.7358 20.1156 18.1862 19.4697 19.3621 18.8286C20.9511 17.9624 23.2075 17.0158 24.4797 16.5012C24.5986 16.4531 24.667 16.343 24.667 16.2331V3.42488C24.667 3.23807 24.5069 3.15557 24.3845 3.19319C23.1514 3.57217 21.637 4.07427 20.5326 4.55511C19.3807 5.05661 17.9376 5.85599 16.7533 6.55064C16.1891 6.88155 15.6945 7.18219 15.3337 7.4048Z"/>
<path d="M14.0003 22.6659L14.4674 23.9148C14.1663 24.0274 13.8334 24.027 13.5323 23.9144L14.0003 22.6659Z"/>
</svg>
