<svg width="20" height="20" viewBox="0 0 20 20" xmlns="http://www.w3.org/2000/svg">
<path d="M4.62765 9.07946C4.216 8.87364 4.04914 8.37308 4.25497 7.96143C4.46079 7.54978 4.96135 7.38292 5.373 7.58875L7.873 8.83875C8.28465 9.04457 8.45151 9.54513 8.24568 9.95678C8.03986 10.3684 7.5393 10.5353 7.12765 10.3295L4.62765 9.07946Z"/>
<path d="M4.62765 11.5795C4.216 11.3736 4.04914 10.8731 4.25497 10.4614C4.46079 10.0498 4.96135 9.88292 5.373 10.0887L7.873 11.3387C8.28465 11.5446 8.45151 12.0451 8.24568 12.4568C8.03986 12.8684 7.5393 13.0353 7.12765 12.8295L4.62765 11.5795Z"/>
<path d="M15.7457 7.96143C15.9515 8.37308 15.7847 8.87364 15.373 9.07946L12.873 10.3295C12.4614 10.5353 11.9608 10.3684 11.755 9.95678C11.5491 9.54513 11.716 9.04457 12.1276 8.83875L14.6276 7.58875C15.0393 7.38292 15.5399 7.54978 15.7457 7.96143Z"/>
<path d="M15.7457 10.4614C15.9515 10.8731 15.7847 11.3736 15.373 11.5795L12.873 12.8295C12.4614 13.0353 11.9608 12.8684 11.755 12.4568C11.5491 12.0451 11.716 11.5446 12.1276 11.3387L14.6276 10.0887C15.0393 9.88292 15.5399 10.0498 15.7457 10.4614Z"/>
<path fill-rule="evenodd" clip-rule="evenodd" d="M10.0003 16.6674C10.2921 17.448 10.2922 17.448 10.2922 17.448L10.2998 17.4451L10.3199 17.4375L10.3955 17.4088C10.4608 17.3839 10.5551 17.3476 10.6729 17.3014C10.9084 17.2092 11.2383 17.0774 11.6174 16.9188C12.3703 16.6039 13.3388 16.1742 14.1492 15.7324C15.0493 15.2418 16.3792 14.6814 17.1749 14.3595C17.8682 14.0791 18.3337 13.4061 18.3337 12.6469V4.64177C18.3337 3.44075 17.184 2.54023 16.0008 2.90384C15.2206 3.14363 14.1988 3.47994 13.4177 3.82004C12.6016 4.17535 11.6285 4.71741 10.8777 5.15773C10.5335 5.35961 10.2297 5.54387 10.0003 5.68504C9.77094 5.54387 9.46714 5.35961 9.12293 5.15773C8.37217 4.71741 7.39907 4.17535 6.58298 3.82004C5.8018 3.47994 4.78006 3.14363 3.99981 2.90384C2.81669 2.54023 1.66699 3.44075 1.66699 4.64177V12.6469C1.66699 13.4061 2.1325 14.0791 2.82575 14.3595C3.62148 14.6814 4.95139 15.2418 5.85144 15.7324C6.66185 16.1742 7.63037 16.6039 8.38324 16.9188C8.76239 17.0774 9.09227 17.2092 9.32773 17.3014C9.44553 17.3476 9.53989 17.3839 9.60519 17.4088L9.68071 17.4375L9.70083 17.4451L9.70779 17.4477C9.70785 17.4478 9.70852 17.448 10.0003 16.6674ZM3.5102 4.49696C3.43369 4.47345 3.33366 4.52501 3.33366 4.64177V12.6469C3.33366 12.7156 3.37643 12.7844 3.45072 12.8145C4.24582 13.1361 5.65611 13.7277 6.64921 14.2691C7.38414 14.6698 8.29063 15.0735 9.02641 15.3812C9.07411 15.4012 9.12101 15.4207 9.16699 15.4398V7.12922C8.94146 6.99009 8.63236 6.80219 8.27974 6.59537C7.5395 6.16122 6.6376 5.6616 5.91767 5.34816C5.2274 5.04764 4.28092 4.73383 3.5102 4.49696ZM10.8337 7.12922V15.4398C10.8796 15.4207 10.9265 15.4012 10.9742 15.3812C11.71 15.0735 12.6165 14.6698 13.3514 14.2691C14.3445 13.7277 15.7548 13.1361 16.5499 12.8145C16.6242 12.7844 16.667 12.7156 16.667 12.6469V4.64177C16.667 4.52501 16.567 4.47345 16.4904 4.49696C15.7197 4.73383 14.7732 5.04764 14.083 5.34816C13.363 5.6616 12.4611 6.16122 11.7209 6.59537C11.3683 6.80219 11.0592 6.99009 10.8337 7.12922Z"/>
<path d="M10.0003 16.6674L10.2922 17.448C10.1041 17.5183 9.89597 17.5181 9.70779 17.4477L10.0003 16.6674Z"/>
<g clip-path="url(#clip0_11662_42762)">
<rect x="14" width="6" height="6" rx="3" fill="white"/>
<path fill-rule="evenodd" clip-rule="evenodd" d="M19.1212 0.870539C18.7795 0.528831 18.2255 0.528831 17.8837 0.870539L17.6595 1.09476L15.1437 3.61058C15.0098 3.74445 14.923 3.91813 14.8962 4.10555L14.7916 4.8377C14.7504 5.12644 14.9979 5.37393 15.2866 5.33268L16.0187 5.22809C16.2062 5.20131 16.3799 5.11447 16.5137 4.9806L19.0295 2.46478L19.2538 2.24056C19.5955 1.89885 19.5955 1.34483 19.2538 1.00312L19.1212 0.870539ZM18.1931 1.1799C18.364 1.00904 18.641 1.00904 18.8118 1.1799L18.9444 1.31248C19.1153 1.48334 19.1153 1.76034 18.9444 1.9312L18.8749 2.00074L18.1236 1.24944L18.1931 1.1799ZM17.8142 1.5588L18.5655 2.3101L16.2044 4.67124C16.1374 4.73817 16.0506 4.78159 15.9569 4.79498L15.2247 4.89957L15.3293 4.16742C15.3427 4.07371 15.3861 3.98687 15.4531 3.91994L17.8142 1.5588Z"/>
</g>
<defs>
<clipPath id="clip0_11662_42762">
<rect x="14" width="6" height="6" rx="3" fill="white"/>
</clipPath>
</defs>
</svg>
