<svg width="20" height="20" viewBox="0 0 20 20" fill="none" xmlns="http://www.w3.org/2000/svg">
<g id="button-icon">
<path id="icon" fill-rule="evenodd" clip-rule="evenodd" d="M5.00033 1.66699C3.15938 1.66699 1.66699 3.15938 1.66699 5.00033V15.0003C1.66699 16.8413 3.15938 18.3337 5.00033 18.3337H15.0003C16.8413 18.3337 18.3337 16.8413 18.3337 15.0003V5.00033C18.3337 3.15938 16.8413 1.66699 15.0003 1.66699H5.00033ZM3.33366 5.00033C3.33366 4.07985 4.07985 3.33366 5.00033 3.33366H15.0003C15.9208 3.33366 16.667 4.07985 16.667 5.00033V5.37894L7.97153 10.9744L3.33366 5.12665V5.00033ZM9.01226 12.2866L16.667 7.36086V15.0003C16.667 15.9208 15.9208 16.667 15.0003 16.667H12.4863L9.01226 12.2866ZM10.3591 16.667H5.00033C4.07985 16.667 3.33366 15.9208 3.33366 15.0003V7.80879L10.3591 16.667Z" fill="#366CDA"/>
</g>
</svg>
