<svg width="20" height="20" viewBox="0 0 20 20"  xmlns="http://www.w3.org/2000/svg">
<path fill-rule="evenodd" clip-rule="evenodd" d="M6.66699 0.833008C7.12723 0.833008 7.50033 1.2061 7.50033 1.66634V2.49967H12.5003V1.66634C12.5003 1.2061 12.8734 0.833008 13.3337 0.833008C13.7939 0.833008 14.167 1.2061 14.167 1.66634V2.49967H15.0003C16.8413 2.49967 18.3337 3.99206 18.3337 5.83301V14.9997C18.3337 16.8406 16.8413 18.333 15.0003 18.333H5.00033C3.15938 18.333 1.66699 16.8406 1.66699 14.9997V5.83301C1.66699 3.99206 3.15938 2.49967 5.00033 2.49967H5.83366V1.66634C5.83366 1.2061 6.20675 0.833008 6.66699 0.833008ZM12.5003 4.16634C12.5003 4.62658 12.8734 4.99967 13.3337 4.99967C13.7939 4.99967 14.167 4.62658 14.167 4.16634H15.0003C15.9208 4.16634 16.667 4.91253 16.667 5.83301V6.24967H3.33366V5.83301C3.33366 4.91253 4.07985 4.16634 5.00033 4.16634H5.83366C5.83366 4.62658 6.20675 4.99967 6.66699 4.99967C7.12723 4.99967 7.50033 4.62658 7.50033 4.16634H12.5003ZM16.667 7.91634H3.33366V14.9997C3.33366 15.9201 4.07985 16.6663 5.00033 16.6663H15.0003C15.9208 16.6663 16.667 15.9201 16.667 14.9997V7.91634Z"/>
</svg>
