<svg width="22" height="21" viewBox="0 0 22 21" fill="none" xmlns="http://www.w3.org/2000/svg">
<path fill-rule="evenodd" clip-rule="evenodd" d="M3 10C1.61929 10 0.5 8.88071 0.5 7.5L0.5 2.5C0.5 1.11929 1.61929 0 3 0H8C9.38071 0 10.5 1.11929 10.5 2.5V7.5C10.5 8.88071 9.38071 10 8 10H3ZM2.5 7.5C2.5 7.77614 2.72386 8 3 8L8 8C8.27614 8 8.5 7.77614 8.5 7.5V2.5C8.5 2.22386 8.27614 2 8 2L3 2C2.72386 2 2.5 2.22386 2.5 2.5L2.5 7.5Z" fill="#366CDA"/>
<path fill-rule="evenodd" clip-rule="evenodd" d="M6.67604 11.6942C5.75039 10.7686 4.24961 10.7686 3.32396 11.6942L0.694237 14.324C-0.231413 15.2496 -0.231412 16.7504 0.694237 17.676L3.32396 20.3058C4.24961 21.2314 5.75039 21.2314 6.67604 20.3058L9.30576 17.676C10.2314 16.7504 10.2314 15.2496 9.30576 14.324L6.67604 11.6942ZM4.73818 13.1085C4.88278 12.9639 5.11722 12.9639 5.26182 13.1085L7.89155 15.7382C8.03615 15.8828 8.03615 16.1172 7.89155 16.2618L5.26182 18.8915C5.11722 19.0361 4.88278 19.0361 4.73818 18.8916L2.10845 16.2618C1.96385 16.1172 1.96385 15.8828 2.10845 15.7382L4.73818 13.1085Z" fill="#366CDA"/>
<path fill-rule="evenodd" clip-rule="evenodd" d="M11.5 18.5C11.5 19.8807 12.6193 21 14 21H19C20.3807 21 21.5 19.8807 21.5 18.5V13.5C21.5 12.1193 20.3807 11 19 11H14C12.6193 11 11.5 12.1193 11.5 13.5V18.5ZM14 19C13.7239 19 13.5 18.7761 13.5 18.5V13.5C13.5 13.2239 13.7239 13 14 13H19C19.2761 13 19.5 13.2239 19.5 13.5V18.5C19.5 18.7761 19.2761 19 19 19H14Z" fill="#366CDA"/>
<path fill-rule="evenodd" clip-rule="evenodd" d="M11.5 5C11.5 7.76142 13.7386 10 16.5 10C19.2614 10 21.5 7.76142 21.5 5C21.5 2.23858 19.2614 0 16.5 0C13.7386 0 11.5 2.23858 11.5 5ZM16.5 2C18.1569 2 19.5 3.34315 19.5 5C19.5 6.65685 18.1569 8 16.5 8C14.8431 8 13.5 6.65685 13.5 5C13.5 3.34315 14.8431 2 16.5 2Z" fill="#366CDA"/>
</svg>
