<svg width="20" height="20" viewBox="0 0 20 20" fill="none" xmlns="http://www.w3.org/2000/svg">
<g id="icon / chats">
<g id="icon">
<path d="M5.00033 12.5013C4.54009 12.5013 4.16699 12.1282 4.16699 11.668C4.16699 11.2077 4.54009 10.8346 5.00033 10.8346C5.46056 10.8346 5.83366 11.2077 5.83366 11.668C5.83366 12.1282 5.46056 12.5013 5.00033 12.5013Z" fill="#2B49A2"/>
<path d="M7.50033 11.668C7.50033 12.1282 7.87342 12.5013 8.33366 12.5013C8.7939 12.5013 9.16699 12.1282 9.16699 11.668C9.16699 11.2077 8.7939 10.8346 8.33366 10.8346C7.87342 10.8346 7.50033 11.2077 7.50033 11.668Z" fill="#2B49A2"/>
<path d="M11.667 12.5013C11.2068 12.5013 10.8337 12.1282 10.8337 11.668C10.8337 11.2077 11.2068 10.8346 11.667 10.8346C12.1272 10.8346 12.5003 11.2077 12.5003 11.668C12.5003 12.1282 12.1272 12.5013 11.667 12.5013Z" fill="#2B49A2"/>
<path fill-rule="evenodd" clip-rule="evenodd" d="M17.0654 11.208L14.9973 11.4665C14.9993 11.5334 15.0003 11.6006 15.0003 11.668C15.0003 15.3499 12.0156 18.3346 8.33366 18.3346C7.78288 18.3346 7.24662 18.2677 6.73305 18.141L3.15063 17.6932C2.26955 17.5831 1.65722 16.7618 1.8032 15.8859L2.02294 14.5675L1.86058 13.2686C1.73396 12.755 1.66699 12.2187 1.66699 11.668C1.66699 7.98607 4.65176 5.0013 8.33366 5.0013C8.42836 5.0013 8.5226 5.00328 8.61634 5.00719C9.3011 3.0625 11.1536 1.66797 13.3337 1.66797C16.0951 1.66797 18.3337 3.90655 18.3337 6.66797C18.3337 7.07584 18.2846 7.47335 18.1918 7.85451L18.0819 8.73413L18.2331 9.64166C18.3596 10.4007 17.829 11.1125 17.0654 11.208ZM13.3337 3.33464C15.1746 3.33464 16.667 4.82702 16.667 6.66797C16.667 6.95467 16.631 7.23176 16.5637 7.49547L16.5507 7.54623L16.4224 8.5726C16.4062 8.7025 16.4089 8.83406 16.4304 8.96319L16.5356 9.59457L14.7406 9.81895C14.119 7.66132 12.437 5.95297 10.2952 5.29457C10.8187 4.13845 11.9831 3.33464 13.3337 3.33464ZM8.33366 6.66797C5.57224 6.66797 3.33366 8.90655 3.33366 11.668C3.33366 12.0974 3.3876 12.513 3.48865 12.9089L3.50161 12.9597L3.67862 14.3758C3.69736 14.5257 3.69426 14.6775 3.66943 14.8265L3.46503 16.0529L7.04196 16.5L7.09271 16.513C7.48863 16.614 7.90425 16.668 8.33366 16.668C11.0951 16.668 13.3337 14.4294 13.3337 11.668C13.3337 8.90655 11.0951 6.66797 8.33366 6.66797Z" fill="#2B49A2"/>
</g>
</g>
</svg>
