<svg width="16" height="16" viewBox="0 0 16 16" xmlns="http://www.w3.org/2000/svg">
<g id="icon / coin-stack">
<path id="icon" fill-rule="evenodd" clip-rule="evenodd" d="M9.33268 4.97976V4.33301C9.33268 3.38168 8.72799 2.61574 7.94999 2.12065C7.16409 1.62053 6.11908 1.33301 4.99935 1.33301C3.87962 1.33301 2.83461 1.62053 2.04871 2.12065C1.27071 2.61574 0.666016 3.38168 0.666016 4.33301V11.6663C0.666016 12.6177 1.27071 13.3836 2.04871 13.8787C2.83461 14.3788 3.87962 14.6663 4.99935 14.6663C6.11908 14.6663 7.16409 14.3788 7.94999 13.8787C8.3044 13.6532 8.62285 13.3714 8.86455 13.0416C9.05713 13.4391 9.37326 13.7706 9.73865 14.0193C10.3456 14.4324 11.1469 14.6663 11.9993 14.6663C12.8518 14.6663 13.6531 14.4324 14.2601 14.0193C14.8635 13.6086 15.3327 12.9719 15.3327 12.1849V6.48116C15.3327 5.69415 14.8635 5.05746 14.2601 4.64675C13.6531 4.23367 12.8518 3.99967 11.9993 3.99967C11.1469 3.99967 10.3456 4.23367 9.73865 4.64675C9.59408 4.74513 9.45723 4.85648 9.33268 4.97976ZM1.99935 4.33301C1.99935 3.99567 2.21546 3.59495 2.76454 3.24553C3.30571 2.90115 4.09403 2.66634 4.99935 2.66634C5.90466 2.66634 6.69299 2.90115 7.23416 3.24553C7.78323 3.59495 7.99935 3.99567 7.99935 4.33301C7.99935 4.67035 7.78323 5.07107 7.23416 5.42048C6.69299 5.76486 5.90466 5.99967 4.99935 5.99967C4.09403 5.99967 3.30571 5.76486 2.76454 5.42048C2.21546 5.07107 1.99935 4.67035 1.99935 4.33301ZM7.94999 6.54536C7.96652 6.53484 7.98298 6.5242 7.99935 6.51344V6.99967C7.99935 7.33702 7.78323 7.73774 7.23416 8.08715C6.69299 8.43153 5.90466 8.66634 4.99935 8.66634C4.09403 8.66634 3.30571 8.43153 2.76454 8.08715C2.21546 7.73774 1.99935 7.33702 1.99935 6.99967V6.51344C2.01572 6.5242 2.03217 6.53484 2.04871 6.54536C2.83461 7.04549 3.87962 7.33301 4.99935 7.33301C6.11908 7.33301 7.16409 7.04549 7.94999 6.54536ZM7.94999 9.21203C7.96652 9.20151 7.98298 9.19087 7.99935 9.1801V9.66634C7.99935 10.0037 7.78323 10.4044 7.23416 10.7538C6.69299 11.0982 5.90466 11.333 4.99935 11.333C4.09403 11.333 3.30571 11.0982 2.76454 10.7538C2.21546 10.4044 1.99935 10.0037 1.99935 9.66634V9.1801C2.01572 9.19087 2.03217 9.20151 2.04871 9.21203C2.83461 9.71215 3.87962 9.99967 4.99935 9.99967C6.11908 9.99967 7.16409 9.71215 7.94999 9.21203ZM7.94999 11.8787L7.97575 11.8622C7.90653 12.1523 7.68021 12.47 7.23416 12.7538C6.69299 13.0982 5.90466 13.333 4.99935 13.333C4.09403 13.333 3.30571 13.0982 2.76454 12.7538C2.31849 12.47 2.09217 12.1523 2.02295 11.8622L2.04871 11.8787C2.83461 12.3788 3.87962 12.6663 4.99935 12.6663C6.11908 12.6663 7.16409 12.3788 7.94999 11.8787ZM9.99935 6.48116C9.99935 6.26586 10.1272 5.99515 10.4888 5.74903C10.847 5.50528 11.379 5.33301 11.9993 5.33301C12.6197 5.33301 13.1517 5.50528 13.5099 5.74903C13.8715 5.99515 13.9993 6.26586 13.9993 6.48116C13.9993 6.69645 13.8715 6.96716 13.5099 7.21328C13.1517 7.45704 12.6197 7.6293 11.9993 7.6293C11.379 7.6293 10.847 7.45704 10.4888 7.21328C10.1272 6.96716 9.99935 6.69645 9.99935 6.48116ZM11.9993 8.96264C12.7347 8.96264 13.432 8.7885 13.9993 8.47548V8.55523C13.9993 8.77052 13.8715 9.04124 13.5099 9.28736C13.1517 9.53111 12.6197 9.70338 11.9993 9.70338C11.379 9.70338 10.847 9.53111 10.4888 9.28736C10.1272 9.04124 9.99935 8.77052 9.99935 8.55523V8.47548C10.5667 8.7885 11.264 8.96264 11.9993 8.96264ZM11.9993 11.0367C12.7347 11.0367 13.432 10.8626 13.9993 10.5496V10.6293C13.9993 10.8446 13.8715 11.1153 13.5099 11.3614C13.1517 11.6052 12.6197 11.7775 11.9993 11.7775C11.379 11.7775 10.847 11.6052 10.4888 11.3614C10.1272 11.1153 9.99935 10.8446 9.99935 10.6293V10.5496C10.5667 10.8626 11.264 11.0367 11.9993 11.0367ZM11.9993 13.1108C12.6067 13.1108 13.1881 12.992 13.6918 12.7743C13.6391 12.8224 13.5787 12.8701 13.5099 12.917C13.1517 13.1607 12.6197 13.333 11.9993 13.333C11.379 13.333 10.847 13.1607 10.4888 12.917C10.42 12.8701 10.3596 12.8224 10.3069 12.7743C10.8106 12.992 11.392 13.1108 11.9993 13.1108Z"/>
</g>
</svg>
