<svg width="16" height="17" viewBox="0 0 16 17" fill="none" xmlns="http://www.w3.org/2000/svg">
<g id="icon / copy">
<path id="icon" fill-rule="evenodd" clip-rule="evenodd" d="M9.33301 1.83398C7.86025 1.83398 6.66634 3.02789 6.66634 4.50065V5.83398H3.99967C2.52692 5.83398 1.33301 7.02789 1.33301 8.50065V12.5007C1.33301 13.9734 2.52692 15.1673 3.99967 15.1673H6.66634C8.1391 15.1673 9.33301 13.9734 9.33301 12.5007V11.1673H11.9997C13.4724 11.1673 14.6663 9.97341 14.6663 8.50065V4.50065C14.6663 3.02789 13.4724 1.83398 11.9997 1.83398H9.33301ZM9.33301 9.83398H11.9997C12.7361 9.83398 13.333 9.23703 13.333 8.50065V4.50065C13.333 3.76427 12.7361 3.16732 11.9997 3.16732H9.33301C8.59663 3.16732 7.99967 3.76427 7.99967 4.50065V6.19074C8.79674 6.65182 9.33301 7.51361 9.33301 8.50065V9.83398ZM2.66634 8.50065C2.66634 7.76427 3.26329 7.16732 3.99967 7.16732H6.66634C7.40272 7.16732 7.99967 7.76427 7.99967 8.50065V12.5007C7.99967 13.237 7.40272 13.834 6.66634 13.834H3.99967C3.26329 13.834 2.66634 13.237 2.66634 12.5007V8.50065Z" fill="#2B49A2"/>
</g>
</svg>
