<svg width="60" height="60" viewBox="0 0 60 60" fill="none" xmlns="http://www.w3.org/2000/svg">
<path d="M26.9168 26.9323C28.1372 25.7119 28.1372 23.7333 26.9168 22.5129C25.6964 21.2925 23.7177 21.2925 22.4973 22.5129C21.277 23.7333 21.277 25.7119 22.4973 26.9323C23.7177 28.1527 25.6964 28.1527 26.9168 26.9323Z" fill="url(#paint0_linear_4908_65781)"/>
<path d="M37.5235 33.1196C38.7438 34.34 38.7438 36.3186 37.5235 37.539C36.3031 38.7594 34.3244 38.7594 33.104 37.539C31.8836 36.3186 31.8836 34.34 33.104 33.1196C34.3244 31.8992 36.3031 31.8992 37.5235 33.1196Z" fill="url(#paint1_linear_4908_65781)"/>
<path d="M22.9303 33.5365C21.954 34.5128 21.954 36.0957 22.9303 37.072C23.9066 38.0484 25.4895 38.0484 26.4658 37.072L37.0724 26.4654C38.0487 25.4891 38.0487 23.9062 37.0724 22.9299C36.0961 21.9536 34.5132 21.9536 33.5369 22.9299L22.9303 33.5365Z" fill="url(#paint2_linear_4908_65781)"/>
<path fill-rule="evenodd" clip-rule="evenodd" d="M36.2559 5.07318C32.7686 1.69956 27.2342 1.69956 23.7469 5.07318C22.8611 5.93006 21.6295 6.33024 20.4092 6.15764C15.605 5.47811 11.1275 8.73118 10.2892 13.5103C10.0763 14.7241 9.31509 15.7718 8.22644 16.3494C3.9403 18.6235 2.23007 23.8871 4.36093 28.2462C4.90216 29.3534 4.90216 30.6484 4.36093 31.7556C2.23006 36.1147 3.9403 41.3783 8.22644 43.6524C9.31509 44.23 10.0763 45.2777 10.2892 46.4916C11.1275 51.2707 15.605 54.5238 20.4092 53.8442C21.6295 53.6716 22.8611 54.0718 23.7469 54.9287C27.2342 58.3023 32.7686 58.3023 36.2559 54.9287C37.1417 54.0718 38.3733 53.6716 39.5935 53.8442C44.3978 54.5238 48.8752 51.2707 49.7136 46.4916C49.9265 45.2777 50.6877 44.23 51.7763 43.6524C56.0625 41.3783 57.7727 36.1147 55.6418 31.7556C55.1006 30.6484 55.1006 29.3534 55.6418 28.2462C57.7727 23.8871 56.0625 18.6235 51.7763 16.3494C50.6877 15.7718 49.9265 14.7241 49.7136 13.5103C48.8752 8.73118 44.3978 5.47811 39.5935 6.15764C38.3733 6.33024 37.1417 5.93006 36.2559 5.07318ZM27.2233 8.6668C28.7723 7.16836 31.2305 7.16836 32.7794 8.6668C34.7736 10.596 37.5465 11.4969 40.2938 11.1084C42.4277 10.8065 44.4164 12.2514 44.7888 14.3742C45.2681 17.1071 46.9819 19.4658 49.4329 20.7662C51.3366 21.7763 52.0963 24.1142 51.1498 26.0504C49.9313 28.5431 49.9313 31.4587 51.1498 33.9515C52.0963 35.8876 51.3366 38.2255 49.4329 39.2356C46.9819 40.5361 45.2681 42.8948 44.7888 45.6277C44.4164 47.7504 42.4277 49.1953 40.2938 48.8935C37.5465 48.5049 34.7736 49.4059 32.7794 51.3351C31.2305 52.8335 28.7723 52.8335 27.2233 51.3351C25.2291 49.4059 22.4563 48.5049 19.709 48.8935C17.5751 49.1953 15.5864 47.7504 15.214 45.6277C14.7346 42.8948 13.0209 40.5361 10.5699 39.2356C8.66613 38.2255 7.9065 35.8876 8.85296 33.9515C10.0715 31.4587 10.0715 28.5431 8.85296 26.0504C7.9065 24.1142 8.66613 21.7763 10.5699 20.7662C13.0209 19.4658 14.7346 17.1071 15.214 14.3742C15.5864 12.2514 17.5751 10.8065 19.709 11.1084C22.4563 11.4969 25.2291 10.596 27.2233 8.6668Z" fill="url(#paint3_linear_4908_65781)"/>
<defs>
<linearGradient id="paint0_linear_4908_65781" x1="3.44531" y1="30.0009" x2="67.3895" y2="30.0009" gradientUnits="userSpaceOnUse">
<stop offset="0.2" stop-color="#366CDA"/>
<stop offset="0.535" stop-color="#0EE5CB" stop-opacity="0.32"/>
<stop offset="0.95" stop-color="#1F429E"/>
</linearGradient>
<linearGradient id="paint1_linear_4908_65781" x1="3.44531" y1="30.0009" x2="67.3895" y2="30.0009" gradientUnits="userSpaceOnUse">
<stop offset="0.2" stop-color="#366CDA"/>
<stop offset="0.535" stop-color="#0EE5CB" stop-opacity="0.32"/>
<stop offset="0.95" stop-color="#1F429E"/>
</linearGradient>
<linearGradient id="paint2_linear_4908_65781" x1="3.44531" y1="30.0009" x2="67.3895" y2="30.0009" gradientUnits="userSpaceOnUse">
<stop offset="0.2" stop-color="#366CDA"/>
<stop offset="0.535" stop-color="#0EE5CB" stop-opacity="0.32"/>
<stop offset="0.95" stop-color="#1F429E"/>
</linearGradient>
<linearGradient id="paint3_linear_4908_65781" x1="3.44531" y1="30.0009" x2="67.3895" y2="30.0009" gradientUnits="userSpaceOnUse">
<stop offset="0.2" stop-color="#366CDA"/>
<stop offset="0.535" stop-color="#0EE5CB" stop-opacity="0.32"/>
<stop offset="0.95" stop-color="#1F429E"/>
</linearGradient>
</defs>
</svg>
