<svg width="20" height="21" viewBox="0 0 20 21" xmlns="http://www.w3.org/2000/svg">
<path fill-rule="evenodd" clip-rule="evenodd" d="M10.8333 2.16659C10.8333 1.70635 10.4602 1.33325 10 1.33325C9.53976 1.33325 9.16667 1.70635 9.16667 2.16659V2.99992C6.86548 2.99992 5 4.8654 5 7.16658C5 9.46777 6.86548 11.3333 9.16667 11.3333V16.3333C7.78595 16.3333 6.66667 15.214 6.66667 13.8333C6.66667 13.373 6.29357 12.9999 5.83333 12.9999C5.3731 12.9999 5 13.373 5 13.8333C5 16.1344 6.86548 17.9999 9.16667 17.9999V18.8333C9.16667 19.2935 9.53976 19.6666 10 19.6666C10.4602 19.6666 10.8333 19.2935 10.8333 18.8333V17.9999C13.1345 17.9999 15 16.1344 15 13.8333C15 11.5321 13.1345 9.66658 10.8333 9.66658V4.66658C12.214 4.66658 13.3333 5.78587 13.3333 7.16658C13.3333 7.62682 13.7064 7.99992 14.1667 7.99992C14.6269 7.99992 15 7.62682 15 7.16658C15 4.8654 13.1345 2.99992 10.8333 2.99992V2.16659ZM9.16667 4.66658C7.78595 4.66658 6.66667 5.78587 6.66667 7.16658C6.66667 8.5473 7.78595 9.66658 9.16667 9.66658V4.66658ZM10.8333 11.3333V16.3333C12.214 16.3333 13.3333 15.214 13.3333 13.8333C13.3333 12.4525 12.214 11.3333 10.8333 11.3333Z" />
</svg>
