<svg width="25" height="24" viewBox="0 0 25 24" fill="none" xmlns="http://www.w3.org/2000/svg">
<path d="M17.2071 13.7071L13.2071 17.7071C12.8166 18.0976 12.1834 18.0976 11.7929 17.7071L7.79289 13.7071C7.40237 13.3166 7.40237 12.6834 7.79289 12.2929C8.18342 11.9024 8.81658 11.9024 9.20711 12.2929L11.5 14.5858V3C11.5 2.44771 11.9477 2 12.5 2C13.0523 2 13.5 2.44771 13.5 3V14.5858L15.7929 12.2929C16.1834 11.9024 16.8166 11.9024 17.2071 12.2929C17.5976 12.6834 17.5976 13.3166 17.2071 13.7071Z" fill="black"/>
<path d="M4.5 17.5C4.5 16.9477 4.05228 16.5 3.5 16.5C2.94772 16.5 2.5 16.9477 2.5 17.5V19C2.5 21.2091 4.29086 23 6.5 23H18.5C20.7091 23 22.5 21.2091 22.5 19V17.5C22.5 16.9477 22.0523 16.5 21.5 16.5C20.9477 16.5 20.5 16.9477 20.5 17.5V19C20.5 20.1046 19.6046 21 18.5 21H6.5C5.39543 21 4.5 20.1046 4.5 19V17.5Z" fill="black"/>
</svg>
