<svg width="112" height="112" viewBox="0 0 112 112" fill="none" xmlns="http://www.w3.org/2000/svg">
<path d="M82.828 64.5483C91.7941 46.8315 84.7003 25.2007 66.9835 16.2346C49.2666 7.26847 27.6358 14.3623 18.6697 32.0792C9.70361 49.796 16.7975 71.4268 34.5143 80.3929C52.2311 89.359 73.8619 82.2652 82.828 64.5483Z" fill="#84D8FF"/>
<path d="M87.2016 66.7624C97.3551 46.6995 89.3849 22.2197 69.4055 11.9671L69.1964 11.8612C67.5858 11.0461 66.9408 9.07972 67.756 7.46909C68.5709 5.85853 70.5372 5.21363 72.1478 6.02857L72.4398 6.17627C95.5799 18.0842 104.804 46.4575 93.0341 69.7143C86.3363 82.9491 74.2768 91.6868 60.8334 94.6231V102.512H66.7655C68.4039 102.512 69.7318 103.84 69.7318 105.478C69.7318 107.116 68.4039 108.445 66.7655 108.445H46.0017C44.3633 108.445 43.0354 107.116 43.0354 105.478C43.0354 103.84 44.3633 102.512 46.0017 102.512H51.9345V95.7012C44.4464 95.8953 36.8055 94.3127 29.6402 90.7469L29.348 90.6004C27.7374 89.7854 27.0924 87.8189 27.9076 86.2083C28.7225 84.5976 30.6891 83.9529 32.2997 84.7678C52.4324 94.9567 77.0128 86.8954 87.2016 66.7624Z" fill="#FF9600"/>
<path fill-rule="evenodd" clip-rule="evenodd" d="M53.4168 84.1728C47.1004 84.6488 40.5779 83.4616 34.5141 80.3926C31.5997 78.9178 28.9725 77.1 26.6573 75.0134C26.416 73.273 26.6865 71.4435 27.5448 69.7591C29.776 65.3802 35.1347 63.6391 39.5137 65.8703L50.0855 71.257C54.4645 73.4882 56.2056 78.8467 53.9743 83.2259C53.8058 83.5568 53.6193 83.8726 53.4168 84.1728ZM86.111 41.8117C87.4901 49.2816 86.5225 57.2473 82.8277 64.548C80.6206 68.9094 77.6458 72.6271 74.1509 75.6199L71.0711 74.0507C62.313 69.5882 58.8307 58.8708 63.2932 50.1129C67.567 41.7248 77.5783 38.1764 86.111 41.8117ZM59.2164 13.3634C64.2498 15.9974 66.2366 22.1996 63.6511 27.2741C61.0481 32.383 54.7963 34.4144 49.6874 31.8113L49.3419 31.6353C49.2117 34.2296 48.5448 36.8389 47.2891 39.3032C42.5214 48.6603 31.0711 52.3806 21.7139 47.6131C19.1203 46.2915 16.9597 44.4566 15.293 42.295C15.8831 38.8252 16.9968 35.3839 18.6694 32.0789C26.3576 16.8875 43.357 9.50643 59.2164 13.3634Z" fill="#58CC02"/>
</svg>
