<svg width="20" height="20" viewBox="0 0 20 20" fill="none" xmlns="http://www.w3.org/2000/svg">
<g id="button-icon">
<g id="icon">
<path fill-rule="evenodd" clip-rule="evenodd" d="M17.1632 2.42463C16.0411 1.30247 14.2217 1.30247 13.0995 2.42463L5.99497 9.52918C5.48498 10.0392 5.15416 10.7008 5.05216 11.4148L4.84628 12.8559C4.68915 13.9559 5.63196 14.8987 6.7319 14.7416L8.17304 14.5357C8.88703 14.4337 9.54867 14.1029 10.0587 13.5929L17.1632 6.48832C18.2854 5.36616 18.2854 3.54678 17.1632 2.42463ZM14.4526 3.45839C14.9223 3.13817 15.568 3.18642 15.9847 3.60314C16.4014 4.01985 16.4497 4.66551 16.1294 5.13524L14.4526 3.45839ZM13.2592 4.62199L14.9658 6.32866L8.88015 12.4144C8.62515 12.6694 8.29433 12.8348 7.93734 12.8858L6.4962 13.0916L6.70208 11.6505C6.75307 11.2935 6.91849 10.9627 7.17348 10.7077L13.2592 4.62199Z" fill="#366CDA"/>
<path d="M4.99984 1.6663C3.15889 1.6663 1.6665 3.15869 1.6665 4.99964V14.9996C1.6665 16.8406 3.15889 18.333 4.99984 18.333H14.9998C16.8408 18.333 18.3332 16.8406 18.3332 14.9996V9.99964C18.3332 9.5394 17.9601 9.1663 17.4998 9.1663C17.0396 9.1663 16.6665 9.5394 16.6665 9.99964V14.9996C16.6665 15.9201 15.9203 16.6663 14.9998 16.6663H4.99984C4.07936 16.6663 3.33317 15.9201 3.33317 14.9996V4.99964C3.33317 4.07916 4.07936 3.33297 4.99984 3.33297H7.23668C7.69692 3.33297 8.07001 2.95987 8.07001 2.49964C8.07001 2.0394 7.69692 1.6663 7.23668 1.6663H4.99984Z" fill="#366CDA"/>
</g>
</g>
</svg>
