<svg width="20" height="20" viewBox="0 0 20 20" xmlns="http://www.w3.org/2000/svg">
<g id="icon / elements">
<g id="icon">
<path fill-rule="evenodd" clip-rule="evenodd" d="M3.33203 9.58333C2.18144 9.58333 1.2487 8.65059 1.2487 7.5L1.2487 3.33333C1.2487 2.18274 2.18144 1.25 3.33203 1.25H7.4987C8.64929 1.25 9.58203 2.18274 9.58203 3.33333V7.5C9.58203 8.65059 8.64929 9.58333 7.4987 9.58333H3.33203ZM2.91536 7.5C2.91536 7.73012 3.10191 7.91667 3.33203 7.91667L7.4987 7.91667C7.72882 7.91667 7.91536 7.73012 7.91536 7.5V3.33333C7.91536 3.10322 7.72882 2.91667 7.4987 2.91667L3.33203 2.91667C3.10191 2.91667 2.91536 3.10322 2.91536 3.33333L2.91536 7.5Z" />
<path fill-rule="evenodd" clip-rule="evenodd" d="M6.3954 10.9952C5.62402 10.2238 4.37337 10.2238 3.602 10.9952L1.41056 13.1866C0.639187 13.958 0.639188 15.2087 1.41056 15.98L3.602 18.1715C4.37338 18.9428 5.62402 18.9428 6.3954 18.1715L8.58683 15.98C9.35821 15.2087 9.35821 13.958 8.58683 13.1866L6.3954 10.9952ZM4.78051 12.1737C4.90101 12.0532 5.09638 12.0532 5.21688 12.1737L7.40832 14.3651C7.52882 14.4856 7.52882 14.681 7.40832 14.8015L5.21688 16.993C5.09638 17.1135 4.90101 17.1135 4.78051 16.993L2.58907 14.8015C2.46857 14.681 2.46857 14.4856 2.58907 14.3651L4.78051 12.1737Z" />
<path fill-rule="evenodd" clip-rule="evenodd" d="M10.4154 16.6667C10.4154 17.8173 11.3481 18.75 12.4987 18.75H16.6654C17.816 18.75 18.7487 17.8173 18.7487 16.6667V12.5C18.7487 11.3494 17.816 10.4167 16.6654 10.4167H12.4987C11.3481 10.4167 10.4154 11.3494 10.4154 12.5V16.6667ZM12.4987 17.0833C12.2686 17.0833 12.082 16.8968 12.082 16.6667V12.5C12.082 12.2699 12.2686 12.0833 12.4987 12.0833H16.6654C16.8955 12.0833 17.082 12.2699 17.082 12.5V16.6667C17.082 16.8968 16.8955 17.0833 16.6654 17.0833H12.4987Z" />
<path fill-rule="evenodd" clip-rule="evenodd" d="M10.4154 5.41667C10.4154 7.71785 12.2808 9.58333 14.582 9.58333C16.8832 9.58333 18.7487 7.71785 18.7487 5.41667C18.7487 3.11548 16.8832 1.25 14.582 1.25C12.2808 1.25 10.4154 3.11548 10.4154 5.41667ZM14.582 2.91667C15.9627 2.91667 17.082 4.03595 17.082 5.41667C17.082 6.79738 15.9627 7.91667 14.582 7.91667C13.2013 7.91667 12.082 6.79738 12.082 5.41667C12.082 4.03596 13.2013 2.91667 14.582 2.91667Z" />
</g>
</g>
</svg>
