<svg width="16" height="16" viewBox="0 0 16 16" xmlns="http://www.w3.org/2000/svg">
<path d="M2.86244 9.32185C3.05288 9.63697 2.9518 10.0468 2.63669 10.2372C2.32157 10.4277 1.91174 10.3266 1.72131 10.0115C1.45057 9.56349 1.26689 9.17745 1.15888 8.92824C1.00422 8.57141 1.02666 8.16966 1.21508 7.8332C1.50259 7.31979 2.2289 6.13289 3.34825 5.06645C4.46503 4.00246 6.03644 3 7.99917 3C9.9619 3 11.5333 4.00246 12.6501 5.06645C13.7695 6.13289 14.4958 7.31979 14.7833 7.8332C14.9717 8.16966 14.9941 8.57141 14.8395 8.92824C14.7315 9.17745 14.5478 9.56349 14.277 10.0115C14.0866 10.3266 13.6768 10.4277 13.3617 10.2372C13.0465 10.0468 12.9455 9.63697 13.1359 9.32185C13.3537 8.96154 13.5048 8.64993 13.5964 8.44295C13.3259 7.96622 12.6853 6.94154 11.7304 6.0318C10.7441 5.09211 9.48581 4.33333 7.99917 4.33333C6.51254 4.33333 5.25428 5.09211 4.26796 6.0318C3.31308 6.94155 2.67244 7.96622 2.40194 8.44295C2.49359 8.64993 2.64469 8.96154 2.86244 9.32185Z"/>
<path fill-rule="evenodd" clip-rule="evenodd" d="M7.99917 5.33333C6.15823 5.33333 4.66584 6.82572 4.66584 8.66667C4.66584 10.5076 6.15823 12 7.99917 12C9.84012 12 11.3325 10.5076 11.3325 8.66667C11.3325 6.82572 9.84012 5.33333 7.99917 5.33333ZM5.99917 8.66667C5.99917 7.5621 6.8946 6.66667 7.99917 6.66667C9.10374 6.66667 9.99917 7.5621 9.99917 8.66667C9.99917 9.77124 9.10374 10.6667 7.99917 10.6667C6.8946 10.6667 5.99917 9.77124 5.99917 8.66667Z"/>
</svg>
