<svg width="24" height="25" viewBox="0 0 24 25" fill="none" xmlns="http://www.w3.org/2000/svg">
<g id="facebook">
<path id="bg" d="M20.25 0.5H3.75C1.67893 0.5 0 2.17893 0 4.25V20.75C0 22.8211 1.67893 24.5 3.75 24.5H20.25C22.3211 24.5 24 22.8211 24 20.75V4.25C24 2.17893 22.3211 0.5 20.25 0.5Z" fill="#1877F2"/>
<path id="facebook_2" d="M18 12.5C18 9.2 15.3 6.5 12 6.5C8.7 6.5 6 9.2 6 12.5C6 15.5 8.175 17.975 11.025 18.425V14.225H9.525V12.5H11.025V11.15C11.025 9.65 11.925 8.825 13.275 8.825C13.95 8.825 14.625 8.975 14.625 8.975V10.475H13.875C13.125 10.475 12.9 10.925 12.9 11.375V12.5H14.55L14.25 14.225H12.825V18.5C15.825 18.05 18 15.5 18 12.5Z" fill="white"/>
</g>
</svg>
