<svg width="20" height="20" viewBox="0 0 20 20" xmlns="http://www.w3.org/2000/svg">
<g id="Icon-right">
<path id="icon" d="M12.8235 6.17033C13.4744 5.51945 14.5297 5.51945 15.1806 6.17033C15.8314 6.8212 15.8314 7.87648 15.1806 8.52735L8.99338 14.7145C7.85435 15.8536 6.00762 15.8536 4.86859 14.7145C3.72957 13.5755 3.72957 11.7288 4.86859 10.5897L10.9674 4.49095C11.2928 4.16551 11.2928 3.63787 10.9674 3.31244C10.642 2.987 10.1143 2.987 9.78888 3.31244L3.69008 9.41123C1.90018 11.2011 1.90018 14.1031 3.69008 15.893C5.47999 17.6829 8.38199 17.6829 10.1719 15.893L16.3591 9.70586C17.6608 8.40411 17.6608 6.29356 16.3591 4.99182C15.0573 3.69007 12.9468 3.69007 11.645 4.99182L5.28107 11.3558C4.46748 12.1694 4.46748 13.4885 5.28107 14.3021C6.09467 15.1156 7.41376 15.1156 8.22735 14.3021L14.5029 8.02648C14.8284 7.70105 14.8284 7.17341 14.5029 6.84797C14.1775 6.52253 13.6498 6.52253 13.3244 6.84797L7.04884 13.1235C6.88612 13.2863 6.6223 13.2863 6.45958 13.1235C6.29687 12.9608 6.29687 12.697 6.45958 12.5343L12.8235 6.17033Z" />
</g>
</svg>
