<svg width="21" height="20" viewBox="0 0 21 20" xmlns="http://www.w3.org/2000/svg">
<path d="M6.33333 9.99967C6.33333 9.53944 6.70643 9.16634 7.16667 9.16634H13.8333C14.2936 9.16634 14.6667 9.53944 14.6667 9.99967C14.6667 10.4599 14.2936 10.833 13.8333 10.833H7.16667C6.70643 10.833 6.33333 10.4599 6.33333 9.99967Z"/>
<path d="M7.16667 13.333C6.70643 13.333 6.33333 13.7061 6.33333 14.1663C6.33333 14.6266 6.70643 14.9997 7.16667 14.9997H13.8333C14.2936 14.9997 14.6667 14.6266 14.6667 14.1663C14.6667 13.7061 14.2936 13.333 13.8333 13.333H7.16667Z"/>
<path fill-rule="evenodd" clip-rule="evenodd" d="M6.33333 0.833008C4.49238 0.833008 3 2.32539 3 4.16634V15.833C3 17.674 4.49238 19.1663 6.33333 19.1663H14.6667C16.5076 19.1663 18 17.674 18 15.833V7.57147C18 6.79168 17.7266 6.03657 17.2274 5.43752L14.3898 2.03239C13.7565 1.27242 12.8183 0.833008 11.8291 0.833008H6.33333ZM4.66667 4.16634C4.66667 3.24587 5.41286 2.49967 6.33333 2.49967H11.3333V4.99967C11.3333 6.84062 12.8257 8.33301 14.6667 8.33301H16.3333V15.833C16.3333 16.7535 15.5871 17.4997 14.6667 17.4997H6.33333C5.41286 17.4997 4.66667 16.7535 4.66667 15.833V4.16634ZM16.0661 6.66634C16.0299 6.61029 15.9901 6.55623 15.947 6.50449L13.1094 3.09937C13.0747 3.05772 13.0382 3.01801 13 2.98029V4.99967C13 5.92015 13.7462 6.66634 14.6667 6.66634H16.0661Z"/>
<g clip-path="url(#clip0_11662_42749)">
<rect x="1.5" y="14" width="6" height="6" rx="3" fill="white"/>
<path fill-rule="evenodd" clip-rule="evenodd" d="M6.62118 14.8705C6.27947 14.5288 5.72545 14.5288 5.38374 14.8705L5.15952 15.0948L2.6437 17.6106C2.50983 17.7445 2.42299 17.9181 2.39622 18.1056L2.29162 18.8377C2.25038 19.1264 2.49786 19.3739 2.7866 19.3327L3.51875 19.2281C3.70617 19.2013 3.87985 19.1145 4.01372 18.9806L6.52954 16.4648L6.75376 16.2406C7.09547 15.8988 7.09547 15.3448 6.75376 15.0031L6.62118 14.8705ZM5.6931 15.1799C5.86396 15.009 6.14097 15.009 6.31182 15.1799L6.4444 15.3125C6.61526 15.4833 6.61526 15.7603 6.4444 15.9312L6.37486 16.0007L5.62356 15.2494L5.6931 15.1799ZM5.3142 15.5588L6.0655 16.3101L3.70436 18.6712C3.63743 18.7382 3.55059 18.7816 3.45688 18.795L2.72473 18.8996L2.82932 18.1674C2.84271 18.0737 2.88613 17.9869 2.95306 17.9199L5.3142 15.5588Z"/>
</g>
<defs>
<clipPath id="clip0_11662_42749">
<rect x="1.5" y="14" width="6" height="6" rx="3" fill="white"/>
</clipPath>
</defs>
</svg>
