<svg width="16" height="17" viewBox="0 0 16 17" fill="none" xmlns="http://www.w3.org/2000/svg">
<g id="icon / file-alt">
<path id="icon" fill-rule="evenodd" clip-rule="evenodd" d="M4.66667 1.16602C3.19391 1.16602 2 2.35992 2 3.83268V13.166C2 14.6388 3.19391 15.8327 4.66667 15.8327H11.3333C12.8061 15.8327 14 14.6388 14 13.166V6.55678C14 5.93295 13.7813 5.32886 13.3819 4.84962L11.1118 2.12552C10.6052 1.51754 9.85466 1.16602 9.06325 1.16602H4.66667ZM3.33333 3.83268C3.33333 3.0963 3.93029 2.49935 4.66667 2.49935H8.66667V4.49935C8.66667 5.97211 9.86057 7.16602 11.3333 7.16602H12.6667V13.166C12.6667 13.9024 12.0697 14.4993 11.3333 14.4993H4.66667C3.93029 14.4993 3.33333 13.9024 3.33333 13.166V3.83268ZM12.4529 5.83268C12.4239 5.78784 12.3921 5.74459 12.3576 5.7032L10.0875 2.9791C10.0598 2.94579 10.0306 2.91401 10 2.88384V4.49935C10 5.23573 10.597 5.83268 11.3333 5.83268H12.4529Z" fill="#2D59C8"/>
</g>
</svg>
