<svg width="20" height="20" viewBox="0 0 20 20" xmlns="http://www.w3.org/2000/svg">
<path d="M10.8337 7.70833C10.8337 7.2481 10.4606 6.875 10.0003 6.875C9.54009 6.875 9.16699 7.2481 9.16699 7.70833C8.70675 7.70833 8.33366 8.08143 8.33366 8.54167C8.33366 9.0019 8.70675 9.375 9.16699 9.375C9.16699 9.83524 9.54009 10.2083 10.0003 10.2083C10.4606 10.2083 10.8337 9.83524 10.8337 9.375C11.2939 9.375 11.667 9.0019 11.667 8.54167C11.667 8.08143 11.2939 7.70833 10.8337 7.70833Z" />
<path fill-rule="evenodd" clip-rule="evenodd" d="M1.66699 8.50926C1.66699 9.10273 1.99351 9.61994 2.4767 9.89105L2.9436 14.5024C3.11595 16.2047 4.54906 17.5 6.25998 17.5H13.7407C15.4516 17.5 16.8847 16.2047 17.057 14.5024L17.524 9.89105C18.0071 9.61994 18.3337 9.10273 18.3337 8.50926V7.40741C18.3337 5.92442 17.1315 4.72222 15.6485 4.72222H13.7186C13.3559 3.43972 12.1767 2.5 10.7781 2.5H9.22255C7.82391 2.5 6.64475 3.43972 6.28201 4.72222H4.35218C2.86919 4.72222 1.66699 5.92442 1.66699 7.40741V8.50926ZM4.35218 6.38889C3.78967 6.38889 3.33366 6.8449 3.33366 7.40741V8.43004C3.41208 8.43783 3.4873 8.45648 3.5578 8.48449L9.11956 10.5444C9.30484 10.613 9.50084 10.6481 9.69841 10.6481H10.3022C10.4998 10.6481 10.6958 10.613 10.8811 10.5444L16.4429 8.48448C16.5134 8.45648 16.5886 8.43783 16.667 8.43004V7.40741C16.667 6.8449 16.211 6.38889 15.6485 6.38889H4.35218ZM4.60179 14.3346L4.21403 10.5048L8.5407 12.1073C8.91126 12.2446 9.30326 12.3148 9.69841 12.3148H10.3022C10.6974 12.3148 11.0894 12.2446 11.4599 12.1073L15.7866 10.5048L15.3989 14.3346C15.3127 15.1857 14.5961 15.8333 13.7407 15.8333H6.25998C5.40452 15.8333 4.68797 15.1857 4.60179 14.3346ZM10.7781 4.16667C11.2325 4.16667 11.6359 4.38488 11.8893 4.72222H8.11133C8.36472 4.38488 8.76815 4.16667 9.22255 4.16667H10.7781Z" />
</svg>
