<svg width="60" height="60" viewBox="0 0 60 60" fill="none" xmlns="http://www.w3.org/2000/svg">
<path fill-rule="evenodd" clip-rule="evenodd" d="M30 2.5C21.0014 2.5 13.0122 6.82474 7.99925 13.4986C4.54679 18.0949 2.5 23.812 2.5 30C2.5 36.188 4.54679 41.9051 7.99925 46.5014C13.0122 53.1753 21.0014 57.5 30 57.5C38.9986 57.5 46.9878 53.1753 52.0007 46.5014C55.4532 41.9051 57.5 36.188 57.5 30C57.5 23.812 55.4532 18.0949 52.0007 13.4986C46.9878 6.82474 38.9986 2.5 30 2.5ZM12.2537 17.294C12.8141 17.242 13.4742 17.1823 14.2111 17.1183C14.0065 20.1548 13.8274 23.7364 13.7695 27.5H7.63714C8.04849 23.7747 9.36857 20.3264 11.3714 17.3771C11.6276 17.3526 11.9232 17.3247 12.2537 17.294ZM11.3714 42.6229C9.36857 39.6736 8.04849 36.2253 7.63714 32.5H13.7695C13.8274 36.2636 14.0065 39.8452 14.2111 42.8817C13.4742 42.8177 12.8141 42.758 12.2537 42.706C11.9232 42.6753 11.6276 42.6474 11.3714 42.6229ZM18.7701 32.5C18.8324 36.4365 19.031 40.1785 19.2506 43.2808C21.9361 43.4717 24.8557 43.641 27.5 43.7131V32.5H18.7701ZM19.7984 49.6647C19.8135 49.8129 19.8279 49.9522 19.8416 50.0823C22.1879 51.2715 24.7704 52.0612 27.5 52.3628V48.7148C24.9689 48.6486 22.2195 48.4964 19.6664 48.322C19.7115 48.7987 19.7538 49.2267 19.7918 49.6007C19.794 49.6222 19.7962 49.6435 19.7984 49.6647ZM40.1584 50.0823C37.8121 51.2715 35.2296 52.0612 32.5 52.3628V48.7148C35.0311 48.6486 37.7805 48.4964 40.3336 48.322C40.2885 48.7987 40.2462 49.2267 40.2082 49.6007C40.1906 49.7729 40.174 49.9336 40.1584 50.0823ZM40.7494 43.2808C38.0639 43.4717 35.1443 43.641 32.5 43.7131V32.5H41.2299C41.1676 36.4365 40.969 40.1785 40.7494 43.2808ZM40.7494 16.7192C40.969 19.8215 41.1676 23.5635 41.2299 27.5H32.5V16.2869C35.1443 16.359 38.0639 16.5283 40.7494 16.7192ZM40.3336 11.678C37.7805 11.5036 35.0311 11.3514 32.5 11.2852V7.63724C35.2296 7.93881 37.8121 8.72849 40.1584 9.91771C40.174 10.0664 40.1906 10.2271 40.2082 10.3993C40.2462 10.7733 40.2885 11.2013 40.3336 11.678ZM19.6664 11.678C22.2195 11.5036 24.9689 11.3514 27.5 11.2852V7.63724C24.7704 7.93881 22.1879 8.72849 19.8416 9.91771C19.826 10.0664 19.8094 10.2271 19.7918 10.3993C19.7538 10.7733 19.7115 11.2013 19.6664 11.678ZM27.5 16.2869C24.8557 16.359 21.9361 16.5283 19.2506 16.7192C19.031 19.8215 18.8324 23.5635 18.7701 27.5H27.5V16.2869ZM47.7463 17.294C47.1859 17.242 46.5258 17.1823 45.7889 17.1183C45.9935 20.1548 46.1726 23.7364 46.2305 27.5H52.3629C51.9515 23.7747 50.6314 20.3264 48.6286 17.3771C48.3725 17.3526 48.0768 17.3247 47.7463 17.294ZM45.7889 42.8817C45.9935 39.8452 46.1726 36.2636 46.2305 32.5H52.3629C51.9515 36.2253 50.6314 39.6736 48.6286 42.6229C48.3725 42.6474 48.0768 42.6753 47.7463 42.706C47.1859 42.758 46.5258 42.8177 45.7889 42.8817Z" fill="url(#paint0_linear_4908_65409)"/>
<defs>
<linearGradient id="paint0_linear_4908_65409" x1="2.5" y1="30" x2="68.7171" y2="30" gradientUnits="userSpaceOnUse">
<stop offset="0.2" stop-color="#366CDA"/>
<stop offset="0.535" stop-color="#0EE5CB" stop-opacity="0.32"/>
<stop offset="0.95" stop-color="#1F429E"/>
</linearGradient>
</defs>
</svg>
