<svg width="21" height="20" viewBox="0 0 21 20" xmlns="http://www.w3.org/2000/svg">
<path fill-rule="evenodd" clip-rule="evenodd" d="M11.1441 2.12345C10.7483 1.88594 10.2538 1.88593 9.8579 2.12345L2.33442 6.63753C1.52525 7.12304 1.52525 8.29576 2.33442 8.78127L3.83435 9.68122V15.0142C3.83435 15.3791 3.99518 15.7514 4.32083 15.9952C4.95516 16.4701 7.37703 18.1261 10.501 18.1261C13.625 18.1261 16.0469 16.4701 16.6812 15.9952C17.0069 15.7514 17.1677 15.3791 17.1677 15.0142V9.68122L18.6676 8.78127C19.4768 8.29576 19.4768 7.12304 18.6676 6.63753L11.1441 2.12345ZM3.78739 7.7094L10.501 3.68123L17.2146 7.7094L14.4131 9.39035L11.402 7.23962C11.0275 6.97211 10.5071 7.05886 10.2396 7.43337C9.97206 7.80788 10.0588 8.32834 10.4333 8.59584L12.8547 10.3254L10.501 11.7376L3.78739 7.7094ZM13.001 12.1812L11.1441 13.2954C10.7483 13.5329 10.2538 13.5329 9.8579 13.2954L5.50102 10.6812V14.792C6.23657 15.3062 8.15463 16.4594 10.501 16.4594C12.8474 16.4594 14.7655 15.3062 15.501 14.792V10.6812L14.6677 11.1812V13.3344C14.6677 13.7946 14.2946 14.1677 13.8344 14.1677C13.3741 14.1677 13.001 13.7946 13.001 13.3344V12.1812Z"/>
</svg>
