<svg width="1277" height="650" viewBox="0 0 1277 650" fill="none" xmlns="http://www.w3.org/2000/svg">
<path d="M-111.3 649.833C-37.8449 628.596 44.6615 628.596 118.116 649.833L119.787 646.86C45.2653 625.341 -38.4183 625.341 -112.94 646.86L-111.3 649.833Z" fill="#DEEBFB"/>
<path d="M816.163 649.833C852.076 639.495 890.429 634.09 929.184 633.906C967.94 634.088 1006.29 639.493 1042.21 649.833L1043.85 646.86C1007.41 636.386 968.501 630.909 929.184 630.721C889.877 630.911 850.978 636.388 814.547 646.86L816.163 649.833Z" fill="#DEEBFB"/>
<path d="M-175.794 649.833C-128.011 632.428 -69.5414 614.622 1.69637 614.622C72.9341 614.622 131.494 632.428 179.217 649.833L181.391 647.18C133.094 629.595 73.9604 611.607 1.69637 611.607C-70.5677 611.607 -129.671 629.595 -177.968 647.18L-175.794 649.833Z" fill="#DEEBFB"/>
<path d="M751.692 649.833C799.476 632.428 857.945 614.622 929.183 614.622C1000.42 614.622 1058.98 632.428 1106.7 649.833L1108.88 647.18C1060.58 629.595 1001.45 611.607 929.183 611.607C856.919 611.607 797.815 629.595 749.519 647.18L751.692 649.833Z" fill="#DEEBFB"/>
<path d="M-226.856 649.832C-157.763 623.097 -86.2827 595.454 3.48354 595.454C93.2498 595.454 164.73 623.077 233.853 649.832L236.15 647.287C166.634 620.354 94.5192 592.494 3.42313 592.494C-87.673 592.494 -159.607 620.354 -229.304 647.287L-226.856 649.832Z" fill="#DEEBFB"/>
<path d="M697.208 649.832C766.331 623.097 837.782 595.454 927.548 595.454C1017.31 595.454 1088.79 623.077 1157.92 649.832L1160.21 647.287C1090.7 620.354 1018.58 592.494 927.488 592.494C836.391 592.494 764.488 620.354 694.76 647.287L697.208 649.832Z" fill="#DEEBFB"/>
<path d="M-278.476 649.832C-260.783 643.346 -243.09 636.316 -225.969 629.528C-157.183 602.194 -86.1406 573.993 3.34689 573.993C92.8344 573.993 163.877 602.194 232.813 629.528C249.904 636.316 267.597 643.346 285.32 649.832L287.486 647.173C269.854 640.707 252.191 633.698 235.1 626.93C165.893 599.434 94.0982 570.992 3.40714 570.992C-87.284 570.992 -158.898 599.434 -228.285 626.93C-245.346 633.718 -263.009 640.707 -280.642 647.173L-278.476 649.832Z" fill="#DEEBFB"/>
<path d="M645.724 649.832C663.524 643.348 681.323 636.32 698.548 629.533C767.748 602.206 839.339 574.013 929.245 574.013C1019.15 574.013 1090.74 602.206 1159.97 629.513C1177.17 636.299 1194.97 643.328 1212.8 649.812L1214.97 647.154C1197.24 640.69 1179.47 633.682 1162.27 626.915C1092.65 599.427 1020.42 570.992 929.184 570.992C837.947 570.992 765.901 599.427 696.096 626.915C678.932 633.682 661.163 640.69 643.424 647.154L645.724 649.832Z" fill="#DEEBFB"/>
<path d="M-343.885 649.834C-302.831 639.27 -264.287 624.231 -227.012 609.69C-157.874 582.814 -86.499 554.964 3.40756 554.964C93.3142 554.964 164.689 582.814 233.948 609.69C271.223 624.231 309.797 639.27 350.851 649.834L352.514 647.049C311.672 636.525 273.248 621.606 236.125 607.123C166.594 579.95 94.463 551.881 3.34714 551.881C-87.7687 551.881 -159.718 579.97 -229.431 607.123C-266.554 621.606 -305.008 636.585 -345.668 647.049L-343.885 649.834Z" fill="#DEEBFB"/>
<path d="M580.152 649.834C621.291 639.277 659.887 624.247 697.242 609.714C766.443 582.855 838.035 555.022 927.941 555.022C1017.85 555.022 1089.44 582.855 1158.67 609.814C1195.75 624.148 1234.11 639.078 1274.94 649.615L1276.58 646.851C1236.11 636.394 1197.87 621.523 1160.97 607.09C1091.35 579.933 1019.12 551.881 927.881 551.881C836.642 551.881 764.596 579.953 694.79 607.09C657.617 621.563 619.112 636.533 578.396 646.991L580.152 649.834Z" fill="#DEEBFB"/>
<path d="M466.218 645.055C557.171 645.055 629.1 616.588 698.733 589.068C767.763 561.75 839.178 533.484 928.863 533.484C1018.55 533.484 1089.96 561.709 1159.02 589.068C1195.95 603.705 1234.21 618.846 1274.95 629.531L1276.58 626.709C1236.21 616.124 1198.07 601.044 1161.26 586.386C1091.8 558.846 1019.75 530.379 928.742 530.379C837.729 530.379 765.861 558.846 696.227 586.386C627.197 613.705 555.812 641.95 466.098 641.95C376.383 641.95 304.998 613.725 235.938 586.386C166.485 558.846 94.436 530.379 3.4231 530.379V533.403C93.1376 533.403 164.523 561.629 233.583 588.987C303.337 616.588 375.266 645.055 466.218 645.055Z" fill="#DEEBFB"/>
<path d="M466.218 623.553C557.171 623.553 629.1 595.679 698.733 568.732C767.763 541.963 839.178 514.306 928.863 514.306C1018.55 514.306 1089.96 541.943 1159.02 568.732C1195.95 583.064 1234.21 597.889 1274.95 608.352L1276.58 605.589C1236.21 595.224 1198.07 580.458 1161.26 566.106C1091.8 539.14 1019.75 511.266 928.742 511.266C837.729 511.266 765.861 539.14 696.227 566.106C627.197 592.856 555.812 620.513 466.098 620.513C376.383 620.513 304.998 592.875 235.938 566.106C166.485 539.14 94.436 511.266 3.4231 511.266V514.227C93.1376 514.227 164.523 541.864 233.583 568.653C303.337 595.6 375.266 623.553 466.218 623.553Z" fill="#DEEBFB"/>
<path d="M466.218 604.44C557.171 604.44 629.1 575.968 698.733 548.443C767.763 521.1 839.178 492.849 928.863 492.849C1018.55 492.849 1089.96 521.079 1159.02 548.423C1195.95 563.082 1234.21 578.226 1274.95 588.913L1276.58 586.09C1236.21 575.484 1198.07 560.421 1161.26 545.761C1091.8 518.236 1019.75 489.764 928.742 489.764C837.729 489.764 765.861 518.236 696.227 545.761C627.197 573.104 555.812 601.355 466.098 601.355C376.383 601.355 304.998 573.124 235.938 545.761C166.485 518.236 94.436 489.764 3.4231 489.764V492.788C93.1376 492.788 164.523 521.019 233.583 548.382C303.337 576.008 375.266 604.44 466.218 604.44Z" fill="#DEEBFB"/>
<path d="M466.218 585.327C557.171 585.327 629.1 556.834 698.733 529.27C767.763 501.928 839.178 473.657 928.863 473.657C1018.55 473.657 1089.96 501.907 1159.02 529.27C1195.95 544 1234.21 559.094 1274.95 569.85L1276.58 567.045C1236.21 556.431 1198.07 541.337 1161.26 526.687C1091.8 499.143 1019.75 470.65 928.742 470.65C837.729 470.65 765.861 499.143 696.227 526.687C627.197 554.029 555.812 582.32 466.098 582.32C376.383 582.32 304.998 554.07 235.938 526.687C166.485 499.143 94.436 470.65 3.4231 470.65V473.677C93.1376 473.677 164.523 501.928 233.583 529.29C303.337 556.915 375.266 585.327 466.218 585.327Z" fill="#DEEBFB"/>
<path d="M466.218 563.825C557.171 563.825 629.1 535.362 698.733 507.827C767.763 480.514 839.178 452.273 928.863 452.273C1018.55 452.273 1089.96 480.493 1159.02 507.827C1195.95 522.421 1234.21 537.62 1274.95 548.243L1276.58 545.441C1236.21 534.838 1198.07 519.76 1161.26 505.126C1091.8 477.611 1019.75 449.148 928.742 449.148C837.729 449.148 765.861 477.611 696.227 505.126C627.197 532.439 555.812 560.7 466.098 560.7C376.383 560.7 304.998 532.48 235.938 505.126C166.485 477.611 94.436 449.148 3.4231 449.148V452.172C93.1376 452.172 164.523 480.393 233.583 507.726C303.337 535.322 375.266 563.825 466.218 563.825Z" fill="#DEEBFB"/>
<path d="M466.218 544.713C557.171 544.713 629.1 516.241 698.733 488.716C767.763 461.393 839.178 433.122 928.863 433.122C1018.55 433.122 1089.96 461.353 1159.02 488.716C1195.95 503.356 1234.21 518.499 1274.95 529.187L1276.58 526.384C1236.21 515.777 1198.07 500.694 1161.26 486.055C1091.8 458.51 1019.75 430.037 928.742 430.037C837.729 430.037 765.861 458.51 696.227 486.055C627.197 513.378 555.812 541.628 466.098 541.628C376.383 541.628 304.998 513.398 235.938 486.055C166.485 458.51 94.436 430.037 3.4231 430.037V433.062C93.1376 433.062 164.523 461.292 233.583 488.656C303.337 516.241 375.266 544.713 466.218 544.713Z" fill="#DEEBFB"/>
<path d="M466.218 523.212C557.171 523.212 629.1 494.744 698.733 467.224C767.763 439.906 839.178 411.64 928.863 411.64C1018.55 411.64 1089.96 439.866 1159.02 467.224C1195.95 481.861 1234.21 497.002 1274.95 507.687L1276.58 504.865C1236.21 494.28 1198.07 479.2 1161.26 464.543C1091.8 437.003 1019.75 408.535 928.742 408.535C837.729 408.535 765.861 437.003 696.227 464.543C627.197 491.861 555.812 520.107 466.098 520.107C376.383 520.107 304.998 491.881 235.938 464.543C166.485 437.003 94.436 408.535 3.4231 408.535V411.559C93.1376 411.559 164.523 439.785 233.583 467.143C303.337 494.744 375.266 523.212 466.218 523.212Z" fill="#DEEBFB"/>
<path d="M466.218 504.098C557.171 504.098 629.1 475.626 698.733 448.101C767.763 420.758 839.178 392.507 928.863 392.507C1018.55 392.507 1089.96 420.738 1159.02 448.101C1195.95 462.741 1234.21 477.884 1274.95 488.571L1276.58 485.748C1236.21 475.142 1198.07 460.079 1161.26 445.419C1091.8 417.894 1019.75 389.422 928.742 389.422C837.729 389.422 765.861 417.894 696.227 445.419C627.197 472.762 555.812 501.013 466.098 501.013C376.383 501.013 304.998 472.783 235.938 445.419C166.485 417.894 94.436 389.422 3.4231 389.422V392.447C93.1376 392.447 164.523 420.677 233.583 448.041C303.337 475.626 375.266 504.098 466.218 504.098Z" fill="#DEEBFB"/>
<path d="M466.218 482.596C557.171 482.596 629.1 454.139 698.733 426.608C767.763 399.3 839.178 371.064 928.863 371.064C1018.55 371.064 1089.9 399.3 1158.96 426.709C1195.95 441.26 1234.21 456.396 1274.95 467.017L1276.58 464.196C1236.21 453.595 1198.07 438.519 1161.26 423.888C1091.8 396.377 1019.75 367.92 928.742 367.92C837.729 367.92 765.861 396.377 696.227 423.888C627.197 451.216 555.812 479.452 466.098 479.452C376.383 479.452 304.998 451.237 235.938 423.888C166.485 396.377 94.436 367.92 3.4231 367.92V370.943C93.1376 370.943 164.523 399.159 233.583 426.488C303.337 454.139 375.266 482.596 466.218 482.596Z" fill="#DEEBFB"/>
<path d="M466.218 463.483C557.171 463.483 629.1 434.99 698.733 407.426C767.763 380.084 839.178 351.813 928.863 351.813C1018.55 351.813 1089.96 380.064 1159.02 407.426C1195.95 422.076 1234.21 437.23 1274.95 448.006L1276.58 445.201C1236.21 434.587 1198.07 419.493 1161.26 404.843C1091.8 377.299 1019.75 348.807 928.742 348.807C837.729 348.807 765.861 377.299 696.227 404.843C627.197 432.186 555.812 460.476 466.098 460.476C376.383 460.476 304.998 432.226 235.938 404.843C166.485 377.299 94.436 348.807 3.4231 348.807V351.833C93.1376 351.833 164.523 380.084 233.583 407.446C303.337 434.99 375.266 463.483 466.218 463.483Z" fill="#DEEBFB"/>
<path d="M466.218 441.981C557.171 441.981 629.1 413.509 698.733 385.964C767.763 358.641 839.178 330.39 928.863 330.39C1018.55 330.39 1089.96 358.62 1159.02 385.964C1195.95 400.603 1234.21 415.747 1274.95 426.434L1276.58 423.631C1236.21 413.025 1198.07 397.941 1161.26 383.302C1091.8 355.757 1019.75 327.305 928.742 327.305C837.729 327.305 765.861 355.777 696.227 383.302C627.197 410.625 555.812 438.896 466.098 438.896C376.383 438.896 304.998 410.665 235.938 383.302C166.485 355.777 94.436 327.305 3.4231 327.305V330.329C93.1376 330.329 164.523 358.56 233.583 385.903C303.337 413.509 375.266 441.981 466.218 441.981Z" fill="#DEEBFB"/>
<path d="M466.141 422.87C557.103 422.87 629.038 394.402 698.678 366.882C767.715 339.564 839.137 311.298 928.83 311.298C1018.52 311.298 1089.94 339.524 1159.01 366.882C1195.95 381.459 1234.21 396.66 1274.95 407.346L1276.58 404.523C1236.2 393.939 1198.06 378.858 1161.25 364.201C1091.79 336.661 1019.73 308.193 928.709 308.193C837.687 308.193 765.812 336.661 696.172 364.201C627.256 391.539 555.865 419.765 466.141 419.765C376.418 419.765 305.027 391.539 235.96 364.201C166.501 336.661 94.4447 308.193 3.4231 308.193V311.218C93.1461 311.218 164.538 339.443 233.604 366.802C303.245 394.402 375.18 422.87 466.141 422.87Z" fill="#DEEBFB"/>
<path d="M466.141 401.367C557.103 401.367 629.038 373.493 698.678 346.546C767.715 319.797 839.137 292.12 928.83 292.12C1018.52 292.12 1089.94 319.758 1159.01 346.546C1195.95 360.938 1234.21 375.704 1274.95 386.167L1276.58 383.403C1236.2 373.039 1198.06 358.273 1161.25 343.921C1091.79 316.954 1019.73 289.08 928.709 289.08C837.687 289.08 765.812 316.954 696.172 343.921C627.256 370.808 555.865 398.446 466.141 398.446C376.418 398.446 305.027 370.808 235.96 344.039C166.501 317.073 94.4447 289.199 3.4231 289.199V292.16C93.1461 292.16 164.538 319.797 233.604 346.586C303.245 373.493 375.18 401.367 466.141 401.367Z" fill="#DEEBFB"/>
<path d="M466.218 382.254C557.171 382.254 629.1 353.782 698.733 326.237C767.763 298.914 839.178 270.663 928.863 270.663C1018.55 270.663 1089.96 298.894 1159.02 326.237C1195.95 340.897 1234.21 356.04 1274.95 366.728L1276.58 363.905C1236.21 353.298 1198.07 338.235 1161.26 323.575C1091.8 296.051 1019.75 267.578 928.742 267.578C837.729 267.578 765.861 296.051 696.227 323.575C627.197 350.919 555.812 379.169 466.098 379.169C376.383 379.169 304.998 350.939 235.938 323.575C166.485 296.051 94.436 267.578 3.4231 267.578V270.603C93.1376 270.603 164.523 298.833 233.583 326.177C303.337 353.782 375.266 382.254 466.218 382.254Z" fill="#DEEBFB"/>
<path d="M466.218 360.752C557.171 360.752 629.1 332.873 698.733 305.902C767.703 279.089 839.118 251.446 928.802 251.446C1018.49 251.446 1089.9 279.089 1158.96 305.862C1195.95 320.256 1234.21 335.064 1274.95 345.549L1276.58 342.785C1236.21 332.399 1198.07 317.63 1161.26 303.295C1091.8 276.344 1019.75 248.465 928.742 248.465C837.729 248.465 765.861 276.344 696.227 303.295C627.197 330.049 555.812 357.731 466.098 357.731C376.383 357.731 304.998 330.089 235.938 303.295C166.485 276.344 94.436 248.465 3.4231 248.465V251.446C93.1376 251.446 164.523 279.089 233.583 305.862C303.337 332.873 375.266 360.752 466.218 360.752Z" fill="#DEEBFB"/>
<path d="M466.218 341.639C557.171 341.639 629.1 313.167 698.733 285.622C767.703 258.359 839.118 230.129 928.802 230.129C1018.49 230.129 1089.9 258.359 1158.96 285.703C1195.95 300.261 1234.21 315.405 1274.95 326.092L1276.58 323.289C1236.21 312.683 1198.07 297.6 1161.26 282.96C1091.8 255.435 1019.75 226.963 928.742 226.963C837.729 226.963 765.861 255.435 696.227 282.96C627.197 310.283 555.812 338.554 466.098 338.554C376.383 338.554 304.998 310.324 235.938 282.96C166.485 255.435 94.436 226.963 3.4231 226.963V230.129C93.1376 230.129 164.523 258.359 233.583 285.703C303.337 313.167 375.266 341.639 466.218 341.639Z" fill="#DEEBFB"/>
<path d="M466.218 322.528C557.171 322.528 629.1 294.076 698.733 266.531C767.763 239.208 839.178 210.937 928.863 210.937C1018.55 210.937 1089.96 239.167 1159.02 266.531C1195.95 281.17 1234.21 296.314 1274.95 307.001L1276.58 304.198C1236.21 293.592 1198.07 278.508 1161.26 263.869C1091.8 236.324 1019.75 207.852 928.742 207.852C837.729 207.852 765.861 236.324 696.227 263.869C627.197 291.192 555.812 319.443 466.098 319.443C376.383 319.443 304.998 291.212 235.938 263.869C166.485 236.324 94.436 207.852 3.4231 207.852V210.876C93.1376 210.876 164.523 239.107 233.583 266.47C303.337 294.076 375.266 322.528 466.218 322.528Z" fill="#DEEBFB"/>
<path d="M466.218 301.026C557.171 301.026 629.1 272.558 698.733 245.039C767.763 217.72 839.178 189.454 928.863 189.454C1018.55 189.454 1089.96 217.68 1159.02 245.039C1195.95 259.676 1234.21 274.817 1274.95 285.502L1276.58 282.679C1236.21 272.095 1198.07 257.014 1161.26 242.357C1091.8 214.817 1019.75 186.35 928.742 186.35C837.729 186.35 765.861 214.817 696.227 242.357C627.197 269.675 555.812 297.921 466.098 297.921C376.383 297.921 304.998 269.696 235.938 242.357C166.485 214.817 94.436 186.35 3.4231 186.35V189.374C93.1376 189.374 164.523 217.599 233.583 244.958C303.337 272.558 375.266 301.026 466.218 301.026Z" fill="#DEEBFB"/>
<path d="M466.218 281.913C557.171 281.913 629.1 253.445 698.733 225.925C767.763 198.587 839.178 170.341 928.863 170.341C1018.55 170.341 1089.96 198.567 1159.02 225.925C1195.95 240.562 1234.21 255.703 1274.95 266.389L1276.58 263.546C1236.21 252.961 1198.07 237.881 1161.26 223.224C1091.8 195.704 1019.75 167.236 928.742 167.236C837.729 167.236 765.861 195.704 696.227 223.244C627.197 250.562 555.812 278.808 466.098 278.808C376.383 278.808 304.998 250.582 235.938 223.244C166.485 195.704 94.436 167.236 3.4231 167.236V170.26C93.1376 170.26 164.523 198.486 233.583 225.845C303.337 253.465 375.266 281.913 466.218 281.913Z" fill="#DEEBFB"/>
<path d="M466.218 260.411C557.171 260.411 629.1 231.913 698.733 204.344C767.763 176.997 839.178 148.721 928.863 148.721C1018.55 148.721 1089.96 176.977 1159.02 204.344C1195.95 219.017 1234.21 234.174 1274.95 244.87L1276.58 242.146C1236.21 231.53 1198.07 216.453 1161.26 201.781C1091.8 174.232 1019.75 145.734 928.742 145.734C837.729 145.734 765.861 174.232 696.227 201.781C627.197 229.148 555.812 257.424 466.098 257.424C376.383 257.424 304.998 229.168 235.938 201.781C166.485 174.232 94.436 145.734 3.4231 145.734V148.762C93.1376 148.762 164.523 177.017 233.583 204.384C303.337 231.913 375.266 260.411 466.218 260.411Z" fill="#DEEBFB"/>
<path d="M466.218 241.297C557.171 241.297 629.1 212.83 698.733 185.29C767.763 157.972 839.178 129.726 928.863 129.726C1018.55 129.726 1089.96 157.951 1159.02 185.29C1195.95 199.907 1234.21 215.088 1274.95 225.733L1276.58 222.931C1236.21 212.326 1198.07 197.245 1161.26 182.608C1091.8 155.089 1019.75 126.621 928.742 126.621C837.729 126.621 765.861 155.089 696.227 182.608C627.197 209.927 555.812 238.193 466.098 238.193C376.383 238.193 304.998 209.967 235.938 182.608C166.485 155.089 94.436 126.621 3.4231 126.621V129.645C93.1376 129.645 164.523 157.871 233.583 185.209C303.337 212.81 375.266 241.297 466.218 241.297Z" fill="#DEEBFB"/>
<path d="M466.218 219.796C557.171 219.796 629.1 191.323 698.733 163.778C767.763 136.455 839.178 108.204 928.863 108.204C1018.55 108.204 1089.96 136.435 1159.02 163.778C1195.95 178.418 1234.21 193.561 1274.95 204.249L1276.58 201.446C1236.21 190.839 1198.07 175.756 1161.26 161.116C1091.8 133.592 1019.75 105.119 928.742 105.119C837.729 105.119 765.861 133.592 696.227 161.116C627.197 188.439 555.812 216.71 466.098 216.71C376.383 216.71 304.998 188.48 235.938 161.116C166.485 133.592 94.436 105.119 3.4231 105.119V108.144C93.1376 108.144 164.523 136.374 233.583 163.718C303.337 191.323 375.266 219.796 466.218 219.796Z" fill="#DEEBFB"/>
<path d="M466.218 200.684C557.171 200.684 629.1 172.212 698.733 144.687C767.763 117.364 839.178 89.093 928.863 89.093C1018.55 89.093 1089.96 117.324 1159.02 144.687C1195.95 159.326 1234.21 174.47 1274.95 185.157L1276.58 182.355C1236.21 171.748 1198.07 156.665 1161.26 142.025C1091.8 114.48 1019.75 86.0078 928.742 86.0078C837.729 86.0078 765.861 114.48 696.227 142.025C627.197 169.348 555.812 197.599 466.098 197.599C376.383 197.599 304.998 169.368 235.938 142.025C166.485 114.48 94.436 86.0078 3.4231 86.0078V89.0325C93.1376 89.0325 164.523 117.263 233.583 144.626C303.337 172.212 375.266 200.684 466.218 200.684Z" fill="#DEEBFB"/>
<path d="M466.218 179.182C557.171 179.182 629.1 150.715 698.733 123.195C767.763 95.8765 839.178 67.6107 928.863 67.6107C1018.55 67.6107 1089.9 95.8765 1158.96 123.134C1195.95 137.832 1234.21 152.973 1274.95 163.658L1276.58 160.836C1236.21 150.251 1198.07 135.171 1161.26 120.513C1091.8 92.9733 1019.75 64.5059 928.742 64.5059C837.729 64.5059 765.861 92.9733 696.227 120.513C627.197 147.832 555.812 176.077 466.098 176.077C376.383 176.077 304.998 147.852 235.938 120.513C166.485 92.9733 94.436 64.5059 3.4231 64.5059V67.53C93.1376 67.53 164.523 95.7556 233.583 123.114C303.337 150.715 375.266 179.182 466.218 179.182Z" fill="#DEEBFB"/>
<path d="M466.18 160.069C557.137 160.069 629.069 131.581 698.706 104.042C767.678 76.6845 839.097 48.4189 928.786 48.4189C1018.47 48.4189 1089.89 76.6845 1158.96 104.103C1195.95 118.689 1234.21 133.841 1274.95 144.453L1276.58 141.629C1236.2 131.037 1198.06 115.946 1161.25 101.278C1091.67 73.8397 1019.74 45.3926 928.786 45.3926C837.829 45.3926 765.897 73.8801 696.26 101.44C627.227 128.777 555.838 157.043 466.12 157.043C376.401 157.043 305.012 128.797 235.949 101.44C166.493 73.8801 94.4404 45.3926 3.4231 45.3926V48.4189C93.1418 48.4189 164.53 76.6643 233.594 104.042C303.291 131.581 375.223 160.069 466.18 160.069Z" fill="#DEEBFB"/>
<path d="M466.218 138.567C557.171 138.567 629.1 110.677 698.733 83.6969C767.703 56.9336 839.118 29.2618 928.802 29.2618C1018.49 29.2618 1089.9 56.9139 1158.96 83.6969C1195.95 98.0562 1234.21 112.89 1274.95 123.397L1276.58 120.632C1236.21 110.243 1198.07 95.4885 1161.26 81.1292C1091.8 54.1684 1019.75 26.2793 928.742 26.2793C837.729 26.2793 765.861 54.1684 696.227 81.1292C627.197 107.912 555.812 135.584 466.098 135.584C376.383 135.584 304.998 107.932 235.938 81.1292C166.485 54.1684 94.436 26.2793 3.4231 26.2793V29.242C93.1376 29.242 164.523 56.8941 233.583 83.6772C303.337 110.677 375.266 138.567 466.218 138.567Z" fill="#DEEBFB"/>
<path d="M466.218 119.454C557.171 119.454 629.1 90.9812 698.733 63.4363C767.703 36.1132 839.118 7.86253 928.802 7.86253C1018.49 7.86253 1089.9 36.1132 1158.96 63.4363C1195.95 78.0758 1234.21 93.2195 1274.95 103.907L1276.58 101.104C1236.21 90.4973 1198.07 75.4141 1161.26 60.7746C1091.8 33.2498 1019.75 4.77734 928.742 4.77734C837.729 4.77734 765.861 33.2498 696.227 60.7746C627.197 88.0977 555.812 116.369 466.098 116.369C376.383 116.369 304.998 88.138 235.938 60.7746C166.485 33.2498 94.436 4.77734 3.4231 4.77734V7.80204C93.1376 7.80204 164.523 36.0326 233.583 63.3758C303.337 90.9812 375.266 119.454 466.218 119.454Z" fill="#DEEBFB"/>
<path d="M465.547 97.9527C556.614 97.9527 628.633 69.8497 698.355 42.7014C735.422 28.2223 773.821 13.3057 814.547 2.78444L812.914 0C771.825 10.561 733.276 25.597 695.996 40.1358C626.849 67.0056 555.374 94.9694 465.547 94.9694C375.719 94.9694 304.244 67.125 235.097 40.1358C197.818 25.597 159.268 10.561 118.028 0L116.365 2.78444C157.333 13.3057 195.671 28.2223 232.92 42.7014C302.46 69.8696 374.479 97.9527 465.547 97.9527Z" fill="#DEEBFB"/>
<path d="M1274.95 83.6182L1276.58 80.8202C1236.38 70.232 1198.41 55.1751 1161.76 40.5611C1125.11 25.947 1086.27 10.6888 1045.5 0L1043.85 2.81814C1084.38 13.4667 1122.56 28.5638 1159.48 43.2182C1196.4 57.8725 1234.4 72.9495 1274.95 83.6182Z" fill="#DEEBFB"/>
<path d="M465.425 78.84C556.061 78.84 627.739 50.398 697.13 22.9027C714.192 16.1145 731.856 9.12481 749.52 2.7596L747.353 0.100714C729.629 6.58678 711.935 13.6167 694.813 20.4049C625.964 47.6384 554.827 75.8387 465.425 75.8387C376.023 75.8387 304.887 47.6384 236.068 20.3042C218.976 13.516 201.282 6.48607 183.558 0L181.391 2.65889C199.055 9.12481 216.689 16.1346 233.781 22.802C303.111 50.398 374.79 78.84 465.425 78.84Z" fill="#DEEBFB"/>
<path d="M1274.94 62.1164L1276.58 59.3539C1235.98 48.9946 1197.64 34.235 1160.65 19.8899C1143.38 13.2402 1125.52 6.35371 1107.64 0L1105.46 2.60462C1123.28 8.9386 1141.1 15.8053 1158.32 22.3366C1195.51 36.8791 1233.98 51.6584 1274.94 62.1164Z" fill="#DEEBFB"/>
<path d="M465.394 57.3382C556.453 57.3382 628.466 29.4781 698.182 2.54529L695.854 0C626.743 26.7355 555.274 54.3785 465.454 54.3785C375.635 54.3785 304.166 26.7552 235.055 0L232.727 2.54529C302.322 29.4781 374.335 57.3382 465.394 57.3382Z" fill="#DEEBFB"/>
<path d="M1274.96 43.0036L1276.58 40.1903C1236.66 29.6404 1198.9 14.6293 1162.54 0L1160.21 2.57218C1196.84 17.2818 1234.69 32.3532 1274.96 43.0036Z" fill="#DEEBFB"/>
<path d="M467.167 38.2255C539.425 38.2255 598.553 20.2382 646.846 2.65287L644.673 0C596.863 17.3843 538.398 35.2108 467.167 35.2108C395.935 35.2108 337.561 17.3843 289.661 0L287.487 2.65287C335.78 20.2382 394.909 38.2255 467.167 38.2255Z" fill="#DEEBFB"/>
<path d="M1274.94 23.8909L1276.58 20.9362C1255.01 14.8963 1234.02 7.90335 1213.73 0L1211.55 2.78587C1232.02 10.754 1253.19 17.8034 1274.94 23.8909Z" fill="#DEEBFB"/>
<path d="M465.47 19.1127C505.364 18.926 544.845 13.4493 581.818 2.97309L580.178 0C543.73 10.3405 504.804 15.7454 465.47 15.9273C426.136 15.7454 387.21 10.3405 350.762 0L349.091 2.97309C386.076 13.4475 425.566 18.9241 465.47 19.1127Z" fill="#DEEBFB"/>
</svg>
