<svg width="239" height="221" viewBox="0 0 239 221" fill="none" xmlns="http://www.w3.org/2000/svg">
<g opacity="0.4">
<path d="M111.235 138.186L129.005 141.137C135.947 142.289 141.535 135.496 139.063 128.907L132.735 112.042C130.263 105.452 121.584 104.012 117.114 109.447L105.674 123.361C101.202 128.798 104.293 137.033 111.235 138.186Z" stroke="#293DFF" stroke-width="0.198061" stroke-miterlimit="10"/>
<path d="M109.377 140.668L132.154 143.048C139.229 143.997 144.678 136.93 141.962 130.329L132.635 109.414C129.918 102.812 121.075 101.628 116.715 107.28L103.265 125.817C98.9057 131.468 102.3 139.719 109.377 140.668Z" stroke="#4051FF" stroke-width="0.198061" stroke-miterlimit="10"/>
<path d="M107.52 143.142L135.305 144.951C142.515 145.693 147.823 138.355 144.864 131.74L132.539 106.772C129.578 100.157 120.568 99.2283 116.319 105.101L100.861 128.258C96.6084 134.133 100.31 142.4 107.52 143.142Z" stroke="#5764FF" stroke-width="0.198061" stroke-miterlimit="10"/>
<path d="M105.66 145.622L138.453 146.86C145.795 147.399 150.967 139.787 147.76 133.16L132.436 104.142C129.231 97.5153 120.053 96.8419 115.918 102.932L98.4488 130.712C94.3132 136.801 98.32 145.084 105.66 145.622Z" stroke="#6E78FF" stroke-width="0.198061" stroke-miterlimit="10"/>
<path d="M103.803 148.099L141.604 148.766C149.079 149.099 154.112 141.216 150.662 134.575L132.339 101.505C128.891 94.866 119.546 94.4481 115.522 100.756L96.0445 133.159C92.0159 139.467 96.3277 147.766 103.803 148.099Z" stroke="#848CFF" stroke-width="0.198061" stroke-miterlimit="10"/>
<path d="M101.945 150.584L144.754 150.679C152.361 150.808 157.255 142.652 153.561 135.999L132.24 98.8762C128.546 92.2233 119.038 92.0629 115.122 98.589L93.6343 135.614C89.7206 142.141 94.3374 150.455 101.945 150.584Z" stroke="#9B9FFF" stroke-width="0.198061" stroke-miterlimit="10"/>
<path d="M100.087 152.826L147.905 152.351C155.645 152.273 160.4 143.846 156.463 137.181L132.143 96.0083C128.205 89.3435 118.53 89.4386 114.725 96.1806L91.2275 137.829C87.4248 144.571 92.3446 152.903 100.087 152.826Z" stroke="#B2B3FF" stroke-width="0.198061" stroke-miterlimit="10"/>
<path d="M100.347 153.723L148.812 151.719C156.657 151.394 161.211 142.699 157.006 136.066L131.038 95.0956C126.833 88.4625 117.027 88.8685 113.385 95.8264L90.8873 138.802C87.247 145.757 92.5015 154.048 100.347 153.723Z" stroke="#94A0FD" stroke-width="0.198061" stroke-miterlimit="10"/>
<path d="M100.608 154.627L149.723 151.093C157.673 150.521 162.024 141.557 157.552 134.957L129.934 94.1884C125.464 87.589 115.526 88.304 112.046 95.4758L90.5481 139.776C87.0682 146.948 92.6555 155.199 100.608 154.627Z" stroke="#778CFC" stroke-width="0.198061" stroke-miterlimit="10"/>
<path d="M100.867 155.53L150.629 150.468C158.685 149.648 162.834 140.416 158.096 133.849L128.831 93.2837C124.093 86.716 114.024 87.7419 110.704 95.1276L90.207 140.755C86.8895 148.141 92.8115 156.35 100.867 155.53Z" stroke="#5979FA" stroke-width="0.198061" stroke-miterlimit="10"/>
<path d="M101.126 156.437L151.539 149.845C159.699 148.778 163.644 139.277 158.641 132.743L127.728 92.3801C122.723 85.8461 112.523 87.179 109.366 94.7806L89.8685 141.735C86.7114 149.336 92.9661 157.502 101.126 156.437Z" stroke="#3B66F8" stroke-width="0.198061" stroke-miterlimit="10"/>
<path d="M101.388 157.336L152.448 149.215C160.713 147.9 164.457 138.132 159.186 131.63L126.625 91.4688C121.355 84.9685 111.022 86.6104 108.027 94.4259L89.5284 142.705C86.5337 150.523 93.1212 158.649 101.388 157.336Z" stroke="#1E52F7" stroke-width="0.198061" stroke-miterlimit="10"/>
<path d="M101.648 158.242L153.358 148.592C161.728 147.03 165.269 136.992 159.731 130.523L125.52 90.5666C119.982 84.0979 109.519 86.0508 106.687 94.0802L89.1879 143.686C86.3556 151.718 93.2778 159.803 101.648 158.242Z" stroke="#2D59C8" stroke-width="0.198061" stroke-miterlimit="10"/>
<path d="M102.22 158.974L154.339 147.546C162.777 145.696 166.047 135.405 160.226 129.024L124.268 89.6017C118.447 83.2202 107.9 85.5316 105.284 93.765L89.1221 144.617C86.5077 152.846 93.7824 160.824 102.22 158.974Z" stroke="#2B49A2" stroke-width="0.198061" stroke-miterlimit="10"/>
<path d="M102.794 159.708L155.323 146.5C163.828 144.361 166.827 133.82 160.724 127.524L123.02 88.6364C116.915 82.3401 106.286 85.0139 103.885 93.4473L89.0582 145.545C86.6597 153.977 94.289 161.846 102.794 159.708Z" stroke="#2D59C8" stroke-width="0.198061" stroke-miterlimit="10"/>
<path d="M103.366 160.446L156.308 145.457C164.878 143.031 167.607 132.236 161.222 126.027L121.768 87.6727C115.381 81.4635 104.67 84.4978 102.485 93.1332L88.9952 146.475C86.8125 155.11 94.7963 162.872 103.366 160.446Z" stroke="#174CFA" stroke-width="0.198061" stroke-miterlimit="10"/>
<path d="M103.939 161.18L157.29 144.411C165.928 141.695 168.386 130.649 161.717 124.527L120.518 86.7077C113.85 80.5856 103.053 83.9784 101.085 92.8159L88.9316 147.403C86.9648 156.241 95.3012 163.894 103.939 161.18Z" stroke="#1E50FC" stroke-width="0.198061" stroke-miterlimit="10"/>
<path d="M104.511 161.916L158.273 143.367C166.976 140.365 169.164 129.065 162.212 123.031L119.269 85.7437C112.317 79.7088 101.437 83.4621 99.6864 92.4996L88.8703 148.333C87.1175 157.374 95.8084 164.918 104.511 161.916Z" stroke="#2554FD" stroke-width="0.198061" stroke-miterlimit="10"/>
<path d="M105.083 162.648L159.257 142.319C168.027 139.027 169.944 127.478 162.711 121.528L118.019 84.7781C110.784 78.8284 99.8208 82.9421 98.2859 92.1836L88.8047 149.263C87.2697 158.502 96.3152 165.939 105.083 162.648Z" stroke="#2D58FF" stroke-width="0.198061" stroke-miterlimit="10"/>
<path d="M106.036 163.38L160.314 141.045C169.1 137.428 170.679 125.657 163.154 119.856L116.672 84.0192C109.147 78.218 98.1627 82.7377 96.9011 92.1555L89.1054 150.33C87.8418 159.744 97.2477 166.995 106.036 163.38Z" stroke="#4167FF" stroke-width="0.198061" stroke-miterlimit="10"/>
<path d="M106.988 164.118L161.369 139.774C170.173 135.833 171.409 123.84 163.596 118.185L115.324 83.2614C107.509 77.6068 96.5045 82.5326 95.5162 92.1286L89.406 151.396C88.4157 160.99 98.184 168.057 106.988 164.118Z" stroke="#5576FF" stroke-width="0.198061" stroke-miterlimit="10"/>
<path d="M107.94 164.855L162.427 138.506C171.248 134.239 172.144 122.025 164.039 116.519L113.975 82.5059C105.87 76.9998 94.8444 82.3316 94.1294 92.1039L89.7048 152.467C88.9898 162.237 99.1186 169.12 107.94 164.855Z" stroke="#6A85FF" stroke-width="0.198061" stroke-miterlimit="10"/>
<path d="M108.892 165.594L163.484 137.238C172.321 132.647 172.876 120.211 164.482 114.853L112.628 81.7531C104.234 76.3956 93.1861 82.1334 92.7424 92.082L90.0032 153.538C89.5616 163.487 100.055 170.185 108.892 165.594Z" stroke="#7E95FF" stroke-width="0.198061" stroke-miterlimit="10"/>
<path d="M109.843 166.336L164.54 135.974C173.395 131.058 173.607 118.402 164.924 113.191L111.279 81.0038C102.594 75.7928 91.5267 81.9366 91.3564 92.0635L90.3027 154.615C90.1344 164.738 100.99 171.252 109.843 166.336Z" stroke="#92A4FF" stroke-width="0.198061" stroke-miterlimit="10"/>
<path d="M111.113 167.073L165.914 134.702C174.785 129.461 174.659 116.583 165.685 111.521L110.249 80.2473C101.275 75.1848 90.1858 81.7347 90.2888 92.0378L90.9206 155.683C91.0236 165.984 102.24 172.314 111.113 167.073Z" stroke="#A6B3FF" stroke-width="0.198061" stroke-miterlimit="10"/>
<path d="M112.538 167.832L167.197 133.16C175.997 127.588 175.466 114.58 166.241 109.745L108.884 79.7466C99.6586 74.9119 88.6603 81.8757 89.0841 92.2818L91.7817 156.953C92.2076 167.361 103.739 173.404 112.538 167.832Z" stroke="#9DAFFF" stroke-width="0.198061" stroke-miterlimit="10"/>
<path d="M113.967 168.605L168.481 131.631C177.21 125.729 176.275 112.592 166.8 107.983L107.522 79.2582C98.0471 74.6513 87.136 82.0291 87.8846 92.5382L92.648 158.237C93.3947 168.748 105.239 174.508 113.967 168.605Z" stroke="#94AAFF" stroke-width="0.198061" stroke-miterlimit="10"/>
<path d="M115.395 169.365L169.766 130.088C178.424 123.855 177.085 110.587 167.358 106.208L106.157 78.7584C96.4304 74.3792 85.6103 82.1709 86.6798 92.785L93.509 159.51C94.5785 170.124 106.737 175.598 115.395 169.365Z" stroke="#8BA6FF" stroke-width="0.198061" stroke-miterlimit="10"/>
<path d="M116.82 170.129L171.047 128.55C179.631 121.984 177.89 108.589 167.914 104.436L104.792 78.2621C94.8139 74.1108 84.083 82.3165 85.4773 93.0335L94.3722 160.786C95.7646 171.503 108.236 176.694 116.82 170.129Z" stroke="#81A2FF" stroke-width="0.198061" stroke-miterlimit="10"/>
<path d="M118.249 170.899L172.333 127.017C180.846 120.12 178.701 106.595 168.473 102.671L103.428 77.7731C93.2 73.8495 82.5582 82.4691 84.2734 93.2892L95.2341 162.068C96.9513 172.89 109.736 177.794 118.249 170.899Z" stroke="#789DFF" stroke-width="0.198061" stroke-miterlimit="10"/>
<path d="M119.676 171.665L173.616 125.481C182.057 118.254 179.508 104.599 169.029 100.902L102.063 77.279C91.5832 73.5831 81.0325 82.6167 83.0705 93.5398L96.095 163.346C98.135 174.271 111.235 178.892 119.676 171.665Z" stroke="#6F99FF" stroke-width="0.198061" stroke-miterlimit="10"/>
<path d="M121.437 172.65L175.185 123.466C183.395 116.013 180.46 102.465 169.899 99.0825L100.429 77.1275C89.8686 73.7426 79.607 83.0594 81.956 93.8973L97.6781 165.037C100.027 175.873 113.226 180.103 121.437 172.65Z" stroke="#639CFA" stroke-width="0.198061" stroke-miterlimit="10"/>
<path d="M123.199 173.647L176.754 121.46C184.734 113.781 181.409 100.343 170.769 97.2707L98.7956 76.9833C88.1558 73.9114 78.1795 83.5114 80.8414 94.2621L99.2591 166.736C101.917 177.487 115.217 181.326 123.199 173.647Z" stroke="#589FF5" stroke-width="0.198061" stroke-miterlimit="10"/>
<path d="M124.957 174.634L178.321 119.444C186.071 111.54 182.355 98.2103 171.636 95.4514L97.1594 76.8317C86.4384 74.0727 76.7513 83.9539 79.7222 94.6175L100.835 168.427C103.808 179.09 117.209 182.539 124.957 174.634Z" stroke="#4CA2F1" stroke-width="0.198061" stroke-miterlimit="10"/>
<path d="M126.718 175.631L179.889 117.439C187.408 109.309 183.306 96.0862 172.504 93.6402L95.5236 76.6881C84.7233 74.2421 75.3233 84.4066 78.6052 94.983L102.414 170.127C105.698 180.704 119.2 183.762 126.718 175.631Z" stroke="#40A5EC" stroke-width="0.198061" stroke-miterlimit="10"/>
<path d="M128.479 176.619L181.458 115.427C188.747 107.07 184.255 93.9567 173.373 91.8236L93.8875 76.5373C83.0061 74.4042 73.8953 84.8499 77.4881 95.3412L103.993 171.82C107.589 182.31 121.19 184.975 128.479 176.619Z" stroke="#35A8E7" stroke-width="0.198061" stroke-miterlimit="10"/>
<path d="M130.24 177.61L183.027 113.414C190.084 104.83 185.204 91.8256 174.243 90.0055L92.2542 76.3868C81.2915 74.5666 72.4699 85.2956 76.3737 95.6997L105.574 173.514C109.48 183.918 123.183 186.194 130.24 177.61Z" stroke="#29ABE2" stroke-width="0.198061" stroke-miterlimit="10"/>
<path d="M132.323 178.65L184.209 111.157C191 102.391 185.756 89.5605 174.769 88.0612L90.3755 76.8727C79.389 75.3734 70.8982 86.3301 75.0951 96.5956L107.603 175.277C111.798 185.541 125.531 187.414 132.323 178.65Z" stroke="#22A1DC" stroke-width="0.198061" stroke-miterlimit="10"/>
<path d="M134.409 179.693L185.394 108.902C191.92 99.9536 186.311 87.2975 175.298 86.1211L88.5003 77.3628C77.4882 76.1863 69.332 87.3708 73.8181 97.4957L109.631 177.045C114.118 187.17 127.883 188.641 134.409 179.693Z" stroke="#1B98D5" stroke-width="0.198061" stroke-miterlimit="10"/>
<path d="M136.492 180.733L186.575 106.644C192.834 97.5136 186.863 85.0318 175.825 84.1762L86.6201 77.8461C75.5841 76.9905 67.7588 88.4048 72.538 98.391L111.659 178.81C116.436 188.794 130.233 189.863 136.492 180.733Z" stroke="#158ECF" stroke-width="0.198061" stroke-miterlimit="10"/>
<path d="M138.575 181.771L187.758 104.385C193.751 95.0722 187.415 82.7647 176.351 82.2299L84.7424 78.3301C73.6807 77.7974 66.19 89.4374 71.2584 99.2849L113.685 180.571C118.755 190.419 132.582 191.084 138.575 181.771Z" stroke="#366CDA" stroke-width="0.198061" stroke-miterlimit="10"/>
<path d="M140.659 182.815L188.94 102.131C194.666 92.6359 187.966 80.5007 176.88 80.2908L82.8667 78.8192C71.7793 78.6073 64.6214 90.4771 69.9829 100.184L115.715 182.338C121.075 192.047 134.933 192.31 140.659 182.815Z" stroke="#4B89E6" stroke-width="0.198061" stroke-miterlimit="10"/>
<path d="M142.744 184.336L190.124 100.356C195.585 90.6769 188.52 78.718 177.409 78.8289L80.9891 79.7875C69.8779 79.8984 63.0528 91.9959 68.7034 101.564L117.743 184.585C123.394 194.152 137.284 194.013 142.744 184.336Z" stroke="#4B89E6" stroke-width="0.198061" stroke-miterlimit="10"/>
<path d="M145.134 185.541L190.775 98.1013C195.94 88.2894 188.548 76.5642 177.467 76.996L78.9199 81.1909C67.8404 81.6226 61.3816 93.8866 67.2957 103.267L120.202 186.514C126.118 195.892 139.968 195.353 145.134 185.541Z" stroke="#4B89E6" stroke-width="0.198061" stroke-miterlimit="10"/>
<path d="M147.524 186.747L191.426 95.8475C196.299 85.9029 188.578 74.4114 177.528 75.164L76.8541 82.5933C65.8043 83.3459 59.7139 95.7782 65.8915 104.97L122.664 188.441C128.841 197.633 142.652 196.692 147.524 186.747Z" stroke="#4B89E6" stroke-width="0.198061" stroke-miterlimit="10"/>
<path d="M149.914 187.957L192.077 93.5968C196.656 83.5175 188.607 72.2617 177.589 73.3371L74.7875 84.0027C63.7694 85.0762 58.0474 97.6748 64.4864 106.681L125.123 190.375C131.564 199.379 145.335 198.036 149.914 187.957Z" stroke="#4B89E6" stroke-width="0.198061" stroke-miterlimit="10"/>
<path d="M152.304 189.161L192.728 91.3408C197.012 81.1288 188.636 70.1067 177.65 71.503L72.7211 85.4049C61.7347 86.8012 56.3792 99.5663 63.0815 108.382L127.584 192.302C134.286 201.118 148.02 199.373 152.304 189.161Z" stroke="#4B89E6" stroke-width="0.198061" stroke-miterlimit="10"/>
<path d="M154.694 190.373L193.381 89.0929C197.372 78.7462 188.666 67.9618 177.711 69.677L70.6552 86.8132C59.7004 88.5304 54.7113 101.462 61.6771 110.091L130.046 194.235C137.009 202.865 150.703 200.718 154.694 190.373Z" stroke="#4B89E6" stroke-width="0.198061" stroke-miterlimit="10"/>
<path d="M157.084 191.581L194.032 86.8404C197.728 76.361 188.695 65.8103 177.772 67.8484L68.5887 88.2189C57.6656 90.2569 53.0449 103.357 60.2721 111.798L132.507 196.166C139.732 204.607 153.386 202.06 157.084 191.581Z" stroke="#4B89E6" stroke-width="0.198061" stroke-miterlimit="10"/>
<path d="M159.741 192.825L194.004 84.6323C197.388 74.0717 188.072 63.8102 177.234 66.1592L66.4049 90.584C55.5671 92.933 51.3385 106.134 58.7915 114.343L135.358 198.113C142.811 206.323 156.358 203.385 159.741 192.825Z" stroke="#366CDA" stroke-width="0.198061" stroke-miterlimit="10"/>
<path d="M162.396 194.058L193.973 82.4133C197.045 71.7735 187.445 61.7972 176.694 64.4591L64.2173 92.9343C53.4665 95.5942 49.6281 108.894 57.3069 116.876L138.207 200.045C145.888 208.023 159.326 204.698 162.396 194.058Z" stroke="#2D59C8" stroke-width="0.198061" stroke-miterlimit="10"/>
<path d="M165.055 195.308L193.948 80.2112C196.707 69.4902 186.826 59.803 176.162 62.7739L62.0375 95.3014C51.3739 98.2723 47.9256 111.673 55.8302 119.423L141.062 201.995C148.966 209.743 162.296 206.029 165.055 195.308Z" stroke="#1751A7" stroke-width="0.198061" stroke-miterlimit="10"/>
<path d="M167.71 196.543L193.917 77.9923C196.363 67.192 186.199 57.7921 175.622 61.074L59.8499 97.6518C49.2735 100.934 46.2154 114.435 54.3458 121.954L143.909 203.925C152.043 211.448 165.264 207.346 167.71 196.543Z" stroke="#1F46A0" stroke-width="0.198061" stroke-miterlimit="10"/>
<path d="M170.366 197.785L193.888 75.7816C196.021 64.9001 185.575 55.7893 175.084 59.3822L57.6659 100.012C47.1747 103.605 44.5088 117.208 52.8649 124.497L146.762 205.87C155.122 213.158 168.233 208.666 170.366 197.785Z" stroke="#263C99" stroke-width="0.198061" stroke-miterlimit="10"/>
<path d="M173.024 199.034L193.862 73.5789C195.682 62.6162 184.953 53.7946 174.549 57.6984L55.4831 102.381C45.0789 106.285 42.8032 119.988 51.3872 127.045L149.615 207.818C158.197 214.877 171.204 209.997 173.024 199.034Z" stroke="#2E3192" stroke-width="0.198061" stroke-miterlimit="10"/>
<path d="M175.86 199.77L192.985 71.0761C194.484 60.0897 183.527 51.5989 173.262 55.7958L53.2488 105.311C42.9853 109.506 41.1116 123.239 49.8758 130.031L152.764 209.208C161.53 216.001 174.361 210.756 175.86 199.77Z" stroke="#2B2C8A" stroke-width="0.198061" stroke-miterlimit="10"/>
<path d="M178.699 200.51L192.11 68.578C193.287 57.5658 182.102 49.4097 171.977 53.8957L51.0157 108.248C40.8908 112.734 39.4192 126.499 48.3676 133.025L155.919 210.605C164.865 217.129 177.521 211.522 178.699 200.51Z" stroke="#282783" stroke-width="0.198061" stroke-miterlimit="10"/>
<path d="M181.535 201.246L191.234 66.0756C192.09 55.0397 180.676 47.2143 170.689 51.9935L48.7792 111.18C38.7929 115.957 37.7254 129.754 46.856 136.013L159.067 211.997C168.198 218.256 180.68 212.284 181.535 201.246Z" stroke="#25237B" stroke-width="0.198061" stroke-miterlimit="10"/>
<path d="M184.373 201.987L190.359 63.5778C190.891 52.5162 179.251 45.0255 169.404 50.0939L46.5467 114.115C36.7011 119.183 36.0336 133.012 45.3465 139.003L162.218 213.391C171.531 219.386 183.838 213.048 184.373 201.987Z" stroke="#211E73" stroke-width="0.198061" stroke-miterlimit="10"/>
<path d="M187.209 202.731L189.481 61.084C189.693 49.9966 177.823 42.8387 168.116 48.2002L44.3105 117.056C34.6035 122.415 34.3381 136.274 43.8351 142.002L165.367 214.793C174.864 220.519 186.997 213.819 187.209 202.731Z" stroke="#1E196C" stroke-width="0.198061" stroke-miterlimit="10"/>
<path d="M189.325 203.472L187.885 58.5863C187.775 47.4751 175.677 40.6499 166.109 46.3006L41.3562 119.991C31.7879 125.642 31.9266 139.532 41.6038 144.992L167.798 216.187C177.477 221.648 189.436 214.583 189.325 203.472Z" stroke="#1B1464" stroke-width="0.198061" stroke-miterlimit="10"/>
<path d="M191.985 203.542L185.76 55.872C185.328 44.7925 173.065 38.3337 163.684 44.2478L38.9121 123.474C29.532 129.388 30.0727 143.239 39.8826 148.406L170.88 216.85C180.692 222.015 192.417 214.622 191.985 203.542Z" stroke="#273276" stroke-width="0.198061" stroke-miterlimit="10"/>
<path d="M194.644 203.613L183.634 53.1583C182.882 42.1085 170.449 36.0181 161.257 42.1957L36.4653 126.958C27.2733 133.135 28.2141 146.946 38.1607 151.818L173.963 217.511C183.908 222.383 195.399 214.661 194.644 203.613Z" stroke="#345088" stroke-width="0.198061" stroke-miterlimit="10"/>
<path d="M197.304 203.685L181.509 50.4477C180.436 39.4295 167.837 33.7076 158.831 40.1465L34.0212 130.444C25.0174 136.883 26.3602 150.656 36.4395 155.234L177.047 218.173C187.124 222.753 198.38 214.703 197.304 203.685Z" stroke="#406E9A" stroke-width="0.198061" stroke-miterlimit="10"/>
<path d="M199.964 203.757L179.381 47.7343C177.985 36.7479 165.22 31.3923 156.404 38.0947L31.5746 133.93C22.7589 140.633 24.5018 154.364 34.7158 158.65L180.126 218.837C190.34 223.119 201.36 214.743 199.964 203.757Z" stroke="#4C8CAC" stroke-width="0.198061" stroke-miterlimit="10"/>
<path d="M202.624 203.824L177.257 45.0175C175.54 34.0627 162.608 29.0736 153.979 36.0394L29.1313 137.411C20.5018 144.375 22.6487 158.069 32.9954 162.059L183.211 219.495C193.555 223.484 204.342 214.779 202.624 203.824Z" stroke="#59AABE" stroke-width="0.198061" stroke-miterlimit="10"/>
<path d="M205.285 203.896L175.132 42.304C173.094 31.381 159.994 26.7602 151.553 33.9874L26.6853 140.897C18.244 148.124 20.793 161.778 31.2724 165.476L186.293 220.158C196.772 223.852 207.323 214.819 205.285 203.896Z" stroke="#65C8D0" stroke-width="0.198061" stroke-miterlimit="10"/>
<path d="M207.745 203.125L171.737 39.4699C169.388 28.632 156.187 24.4034 147.978 31.8564L24.2513 144.868C16.0417 152.321 18.9769 165.868 29.5375 169.251L189.271 219.895C199.83 223.28 210.094 213.963 207.745 203.125Z" stroke="#54D1D8" stroke-width="0.198061" stroke-miterlimit="10"/>
<path d="M210.203 202.355L168.339 36.6357C165.679 25.885 152.379 22.0466 144.397 29.7254L21.8113 148.841C13.8314 156.52 17.1568 169.958 27.7966 173.03L192.246 219.634C202.888 222.704 212.863 213.106 210.203 202.355Z" stroke="#43DAE0" stroke-width="0.198061" stroke-miterlimit="10"/>
<path d="M212.663 201.581L164.944 33.7982C161.973 23.1346 148.572 19.6864 140.822 27.591L19.3772 152.809C11.6271 160.713 15.3427 174.043 26.0617 176.802L195.225 219.367C205.946 222.126 215.634 212.245 212.663 201.581Z" stroke="#33E3E8" stroke-width="0.198061" stroke-miterlimit="10"/>
<path d="M215.12 200.812L161.545 30.9651C158.263 20.3887 144.761 17.3306 137.243 25.461L16.9388 156.781C9.42044 164.912 13.5223 178.134 24.3245 180.58L198.204 219.105C209.004 221.553 218.404 211.388 215.12 200.812Z" stroke="#22EDEF" stroke-width="0.198061" stroke-miterlimit="10"/>
<path d="M217.58 200.04L158.15 28.1293C154.557 17.638 140.954 14.9721 133.666 23.3283L14.5024 160.753C7.2138 169.109 11.7058 182.223 22.5873 184.356L201.181 218.842C212.062 220.977 221.173 210.531 217.58 200.04Z" stroke="#11F6F7" stroke-width="0.198061" stroke-miterlimit="10"/>
<path d="M220.04 199.269L154.753 25.297C150.849 14.8929 137.145 12.6172 130.088 21.2011L12.0661 164.728C5.00918 173.312 9.88939 186.316 20.8501 188.137L204.159 218.582C215.122 220.403 223.943 209.674 220.04 199.269Z" stroke="#00FFFF" stroke-width="0.198061" stroke-miterlimit="10"/>
<path d="M222.763 197.465L150.607 22.4372C146.412 12.1737 132.679 10.3001 125.887 19.0643L10.3865 169.067C3.59495 177.834 8.8396 190.664 19.826 192.163L207.483 217.188C218.469 218.688 226.958 207.729 222.763 197.465Z" stroke="#00D4FF" stroke-width="0.198061" stroke-miterlimit="10"/>
<path d="M225.487 195.665L146.462 19.5831C141.976 9.45822 128.211 7.98663 121.685 16.935L8.70521 173.413C2.17911 182.361 7.78819 195.017 18.8004 196.194L210.804 215.798C221.816 216.976 229.975 205.79 225.487 195.665Z" stroke="#00AAFF" stroke-width="0.198061" stroke-miterlimit="10"/>
<path d="M228.213 193.849L142.32 16.7132C137.542 6.72702 123.745 5.65948 117.487 14.7901L7.02832 177.742C0.769607 186.873 6.74114 199.355 17.7791 200.21L214.13 214.394C225.166 215.249 232.99 203.835 228.213 193.849Z" stroke="#6DA9ED" stroke-width="0.198061" stroke-miterlimit="10"/>
<path d="M230.935 192.049L138.174 13.8602C133.105 4.01459 119.277 3.34711 113.285 12.6599L5.34823 182.089C-0.645082 191.402 5.69088 203.709 16.7545 204.244L217.451 213.006C228.515 213.539 236.006 201.897 230.935 192.049Z" stroke="#4B89E6" stroke-width="0.198061" stroke-miterlimit="10"/>
<path d="M233.661 190.237L134.03 10.9926C128.671 1.28567 114.813 1.02026 109.085 10.5173L3.66879 186.421C-2.05714 195.916 4.64325 208.051 15.7287 208.261L220.773 211.6C231.862 211.814 239.02 199.944 233.661 190.237Z" stroke="#2D59C8" stroke-width="0.198061" stroke-miterlimit="10"/>
<path d="M236.384 187.393L129.884 7.09402C124.234 -2.47429 110.344 -2.33565 104.883 7.3416L1.9887 189.722C-3.47183 199.399 3.593 211.36 14.7042 211.249L224.096 209.167C235.211 209.058 242.036 196.961 236.384 187.393Z" stroke="#2B49A2" stroke-width="0.198061" stroke-miterlimit="10"/>
</g>
</svg>
