<svg width="246" height="223" viewBox="0 0 246 223" fill="none" xmlns="http://www.w3.org/2000/svg">
<g opacity="0.6">
<path d="M30.4847 92.7044C30.4847 92.7044 2.98356 30.8268 39.3243 36.7199C75.6651 42.613 148.347 70.0356 123.792 109.362C99.2375 148.689 22.6272 155.564 62.8967 177.172C103.166 198.78 227.904 228.246 218.082 157.528" stroke="#F1A82E" stroke-width="0.245546" stroke-miterlimit="10"/>
<path d="M31.7461 91.4921C31.7461 91.4921 2.84295 29.1848 39.6036 35.0362C76.0794 40.8556 149.353 68.4133 126.434 107.961C123.755 112.585 120.359 116.83 116.415 120.727C86.2794 150.492 29.0992 154.917 63.2153 174.698C82.3654 185.801 119.89 200.573 155.143 202.739C192.186 204.998 223.63 193.742 218.827 159.172" stroke="#F7971E" stroke-width="0.245546" stroke-miterlimit="10"/>
<path d="M33.0085 90.2707C33.0085 90.2707 2.70076 27.5313 39.8838 33.3409C76.4971 39.0866 150.37 66.7989 129.076 106.548C126.557 111.25 123.303 115.623 119.389 119.663C89.484 150.491 30.9189 151.8 63.5372 172.209C82.2453 183.917 117.68 201.063 153.822 203.612C191.665 206.249 224.139 193.641 219.577 160.799" stroke="#F79C1E" stroke-width="0.245546" stroke-miterlimit="10"/>
<path d="M34.2709 89.0547C34.2709 89.0547 2.56109 25.8856 40.164 31.6535C76.9124 37.3256 151.401 65.2146 131.716 105.14C129.358 109.924 126.245 114.422 122.358 118.606C92.6838 150.5 32.7313 148.73 63.8567 169.731C82.1302 182.06 115.465 201.566 152.499 204.498C191.143 207.513 224.647 193.554 220.326 162.439" stroke="#F8A01E" stroke-width="0.245546" stroke-miterlimit="10"/>
<path d="M35.5355 87.8389C35.5355 87.8389 2.42115 24.2401 40.4464 29.9663C77.3298 35.5672 152.45 63.6453 134.36 103.736C132.165 108.602 129.189 113.223 125.332 117.552C95.8857 150.512 34.541 145.707 64.1784 167.253C82.0197 180.226 113.256 202.069 151.178 205.384C190.62 208.778 225.156 193.465 221.075 164.078" stroke="#F8A41F" stroke-width="0.245546" stroke-miterlimit="10"/>
<path d="M36.7972 86.6218C36.7972 86.6218 2.28083 22.5908 40.7259 28.2752C77.7469 33.8025 153.51 62.0918 137.002 102.327C134.971 107.277 132.133 112.023 128.302 116.492C99.0873 150.518 36.3405 142.719 64.4997 164.769C81.9089 178.402 111.045 202.566 149.856 206.262C190.099 210.033 225.664 193.368 221.823 165.712" stroke="#F8A91F" stroke-width="0.245546" stroke-miterlimit="10"/>
<path d="M38.059 85.4024C38.059 85.4024 2.13806 20.9417 41.0055 26.5843C78.1615 32.0379 154.59 60.5531 139.644 100.916C137.778 105.952 135.077 110.819 131.273 115.433C102.289 150.524 38.1228 139.774 64.8185 162.288C81.7931 176.603 108.833 203.063 148.532 207.144C189.575 211.294 226.172 193.276 222.569 167.348" stroke="#F8AD1F" stroke-width="0.245546" stroke-miterlimit="10"/>
<path d="M39.3241 84.1872C39.3241 84.1872 2.00117 19.2944 41.2885 24.8977C78.5795 30.2777 155.691 59.031 142.286 99.5117C140.59 104.636 138.021 109.621 134.245 114.38C105.489 150.536 39.8913 136.876 65.1384 159.81C81.6759 174.83 106.621 203.567 147.21 208.031C189.051 212.559 226.678 193.187 223.317 168.989" stroke="#F9B11F" stroke-width="0.245546" stroke-miterlimit="10"/>
<path d="M40.5859 82.9741C40.5859 82.9741 1.86083 17.6516 41.5681 23.2107C78.9966 28.517 156.81 57.5233 144.928 98.1071C143.401 103.322 140.963 108.422 137.216 113.324C108.69 150.546 41.6368 134.016 65.4597 157.333C81.5478 173.08 104.411 204.07 145.888 208.915C188.53 213.821 227.188 193.099 224.068 170.627" stroke="#F9B61F" stroke-width="0.245546" stroke-miterlimit="10"/>
<path d="M41.848 81.7589C41.848 81.7589 1.7185 16.0067 41.848 21.5241C79.4116 26.7567 157.949 56.0232 147.57 96.7004C146.217 102.007 143.907 107.222 140.187 112.268C111.89 150.556 43.3582 131.19 65.7789 154.853C81.4079 171.349 102.198 204.571 144.565 209.799C188.007 215.083 227.694 193.008 224.814 172.265" stroke="#F9BA1F" stroke-width="0.245546" stroke-miterlimit="10"/>
<path d="M43.1099 80.5402C43.1099 80.5402 1.57831 14.3558 42.1277 19.8339C79.8264 24.9929 159.108 54.5271 150.212 95.2926C149.033 100.69 146.851 106.021 143.158 111.209C115.092 150.563 45.0547 128.395 66.1004 152.37C81.253 169.632 99.9857 205.066 143.244 210.68C187.483 216.342 228.202 192.914 225.563 173.899" stroke="#F9BE1F" stroke-width="0.245546" stroke-miterlimit="10"/>
<path d="M44.3746 79.3235C44.3746 79.3235 1.4385 12.7094 42.4103 18.1434C80.2464 23.2311 160.294 53.0379 152.857 93.8844C151.857 99.3748 149.795 104.821 146.134 110.152C118.299 150.571 46.727 125.631 66.4247 149.891C81.0813 167.941 97.7784 205.568 141.925 211.562C186.966 217.603 228.716 192.822 226.314 175.536" stroke="#FAC320" stroke-width="0.245546" stroke-miterlimit="10"/>
<path d="M45.6371 78.1049C45.6371 78.1049 1.29892 11.061 42.6906 16.4532C80.6618 21.4672 161.498 51.5515 155.497 92.4742C154.679 98.0579 152.737 103.617 149.103 109.093C121.496 150.578 48.3602 122.888 66.7418 147.408C80.8803 166.266 95.564 206.066 140.6 212.443C186.44 218.862 229.219 192.728 227.059 177.173" stroke="#FAC720" stroke-width="0.245546" stroke-miterlimit="10"/>
<path d="M46.8992 76.8865C46.8992 76.8865 1.15644 9.41048 42.9704 14.7634C81.0767 19.7038 162.721 50.063 158.139 91.0667C157.505 96.7413 155.681 102.416 152.074 108.034C124.698 150.585 49.9636 120.166 67.0634 144.925C80.6568 164.605 93.354 206.564 139.278 213.324C185.917 220.121 229.73 192.637 227.808 178.808" stroke="#FACB20" stroke-width="0.245546" stroke-miterlimit="10"/>
<path d="M48.1636 75.6718C48.1636 75.6718 1.01877 7.76616 43.2526 13.0773C81.4964 17.944 163.968 48.5784 160.783 89.6631C160.336 95.431 158.627 101.218 155.047 106.981C127.902 150.598 51.5349 117.466 67.3849 142.451C80.4037 162.968 91.1439 207.071 137.957 214.211C185.397 221.386 230.238 192.549 228.559 180.449" stroke="#FAD020" stroke-width="0.245546" stroke-miterlimit="10"/>
<path d="M49.4257 74.4595C49.4257 74.4595 0.878836 6.12414 43.5326 11.3911C81.9114 16.1842 165.23 47.091 163.425 88.2568C163.167 94.118 161.569 100.018 158.018 105.926C131.102 150.606 53.072 114.773 67.7066 139.971C80.1165 161.341 88.934 207.57 136.636 215.096C184.876 222.649 230.749 192.459 229.308 182.087" stroke="#FBD420" stroke-width="0.245546" stroke-miterlimit="10"/>
<path d="M50.6878 73.2415C50.6878 73.2415 0.736425 4.47393 43.8125 9.7016C82.3264 14.421 166.509 45.593 166.065 86.8496C166.001 92.8017 164.511 98.82 160.987 104.868C134.301 150.613 54.5723 112.082 68.0233 137.489C79.7923 159.718 86.7192 208.068 135.31 215.977C184.351 223.908 231.252 192.366 230.052 183.722" stroke="#FBD820" stroke-width="0.245546" stroke-miterlimit="10"/>
<path d="M51.9499 72.0233C51.9499 72.0233 0.596422 2.82603 44.0924 8.01196C82.7438 12.6577 167.806 44.0875 168.709 85.4399C168.842 91.4828 167.457 97.6165 163.961 103.809C137.503 150.62 56.0456 109.39 68.345 135.008C79.4338 158.102 84.5068 208.569 133.989 216.858C183.828 225.168 231.761 192.272 230.801 185.357" stroke="#FBDD20" stroke-width="0.245546" stroke-miterlimit="10"/>
<path d="M53.2143 70.8113C53.2143 70.8113 0.456311 1.18433 44.3746 6.32606C83.1611 10.9006 169.119 42.5784 171.351 84.0364C171.68 90.1677 170.401 96.4193 166.931 102.757C140.705 150.633 57.4843 106.7 68.6665 132.532C79.0408 156.495 82.2967 209.073 132.668 217.746C183.307 226.433 232.271 192.185 231.549 187.001" stroke="#FBE121" stroke-width="0.245546" stroke-miterlimit="10"/>
<path d="M54.4762 69.5897C54.4762 69.5897 0.316148 -0.469487 44.6544 4.63296C83.5758 9.13381 170.443 41.0498 173.993 82.6256C174.524 88.8453 173.342 95.2148 169.902 101.695C143.906 150.637 58.8936 103.991 68.9855 130.045C78.6035 154.875 80.0842 209.565 131.344 218.624C182.784 227.689 232.777 192.09 232.298 188.633" stroke="#FCE521" stroke-width="0.245546" stroke-miterlimit="10"/>
<path d="M55.739 68.3756C55.739 68.3756 0.174422 -2.11318 44.935 2.94752C83.9939 7.37471 171.779 39.5191 176.636 81.2226C177.37 87.5282 176.287 94.018 172.877 100.643C147.109 150.651 60.2767 101.276 69.3103 127.572C78.1377 153.266 77.8774 210.073 130.026 219.512C182.264 228.955 233.291 192.003 233.05 190.274" stroke="#FCEA21" stroke-width="0.245546" stroke-miterlimit="10"/>
<path d="M57.0027 67.1564C57.0027 67.1564 0.0361151 -3.7646 45.2165 1.25435C90.397 6.27331 201.384 48.5072 175.847 99.5807C150.31 150.654 61.6288 98.5347 69.6287 125.086C77.6286 151.636 75.6642 210.567 128.702 220.389C181.74 230.211 233.796 191.906 233.796 191.906" stroke="#FCEE21" stroke-width="0.245546" stroke-miterlimit="10"/>
<path d="M54.337 67.1746C54.4278 67.1328 0.682759 -1.44567 44.5962 2.46587C60.1368 3.85075 83.4734 9.61128 106.304 19.1311C148.263 36.6041 188.322 65.662 173.009 98.2582C149.577 148.138 65.3767 99.6726 72.996 125.759C74.0224 129.298 74.8646 133.384 75.6724 137.823C80.8707 166.287 86.4494 210.141 131.362 218.856C183.246 228.918 234.344 192.98 234.344 192.98" stroke="#FCEF1F" stroke-width="0.245546" stroke-miterlimit="10"/>
<path d="M51.67 67.1964C51.8493 67.1105 1.33805 0.864663 43.9722 3.68107C59.2378 4.69027 82.0269 9.8983 104.421 19.2757C145.147 36.2846 184.196 64.9349 170.168 96.9394C148.835 145.614 69.121 100.814 76.3597 126.437C77.3345 129.936 78.1202 133.943 78.8618 138.27C83.6401 165.953 90.0857 208.398 134.019 217.328C184.753 227.626 234.894 194.058 234.894 194.058" stroke="#FCF01E" stroke-width="0.245546" stroke-miterlimit="10"/>
<path d="M49.0034 67.2161C49.2735 67.0884 2.00346 3.15809 43.3509 4.8941C58.3464 5.52515 80.583 10.1807 102.542 19.4182C142.036 35.963 180.071 64.1934 167.329 95.6208C148.091 143.073 72.9343 101.939 79.7236 127.115C80.6567 130.572 81.3786 134.503 82.0514 138.717C86.4098 165.619 93.7222 206.654 136.676 215.798C186.256 226.335 235.441 195.133 235.441 195.133" stroke="#FCF01C" stroke-width="0.245546" stroke-miterlimit="10"/>
<path d="M46.3388 67.2379C46.6998 67.066 2.68569 6.98588 42.7318 6.10928C57.4596 5.78762 79.1413 10.4677 100.663 19.5627C138.924 35.6435 175.945 63.4442 164.493 94.302C147.339 140.516 76.7006 103.075 83.0921 127.789C83.9761 131.207 84.6415 135.058 85.2456 139.161C89.1817 165.282 97.3633 204.908 139.337 214.266C187.766 225.04 235.994 196.208 235.994 196.208" stroke="#FDF11B" stroke-width="0.245546" stroke-miterlimit="10"/>
<path d="M43.6722 67.2602C44.1215 67.0466 3.42721 9.55447 42.1105 7.32492C56.556 6.49252 77.6975 10.7527 98.7825 19.7078C135.808 35.3245 171.815 62.6857 161.654 92.986C146.578 137.948 80.4623 104.217 86.4585 128.47C87.2934 131.849 87.8925 135.623 88.4376 139.608C91.9023 164.956 101 203.165 141.996 212.739C189.273 223.754 236.543 197.287 236.543 197.287" stroke="#FDF219" stroke-width="0.245546" stroke-miterlimit="10"/>
<path d="M41.0056 67.2773C41.5458 67.0219 4.05828 9.93746 41.4868 8.53539C55.699 8.00256 76.2512 11.0351 96.9016 19.8452C132.695 35.0003 167.678 61.9048 158.814 91.66C145.802 135.35 84.2216 105.349 89.8201 129.14C90.6058 132.482 91.146 136.175 91.6248 140.047C94.6622 164.617 104.634 201.412 144.65 211.202C190.776 222.455 237.089 198.357 237.089 198.357" stroke="#FDF318" stroke-width="0.245546" stroke-miterlimit="10"/>
<path d="M38.3415 67.3018C38.9725 67.0023 4.76065 12.1596 40.8682 9.75322C54.825 8.8226 74.8099 11.3248 95.0233 19.9925C129.584 34.6835 163.535 61.1239 155.978 90.3439C145.014 132.745 87.9835 106.491 93.1891 129.82C93.9257 133.123 94.407 136.737 94.8195 140.497C97.4272 164.285 108.275 199.671 147.31 209.677C192.284 221.168 237.641 199.437 237.641 199.437" stroke="#FDF416" stroke-width="0.245546" stroke-miterlimit="10"/>
<path d="M35.6747 67.3219C36.3942 66.9806 5.46767 14.3552 40.2468 10.9667C53.9531 9.63092 73.3685 11.6075 93.1423 20.1353C126.47 34.3622 159.381 60.3238 153.139 89.0257C144.203 130.118 91.7402 107.633 96.5553 130.498C97.2429 133.762 97.6677 137.295 98.0114 140.944C100.192 163.951 111.914 197.928 149.969 208.147C193.789 219.877 238.191 200.513 238.191 200.513" stroke="#FDF414" stroke-width="0.245546" stroke-miterlimit="10"/>
<path d="M33.0083 67.3408C33.8186 66.9578 6.17996 16.5252 39.6258 12.179C53.0817 10.4307 71.9077 11.931 91.264 20.2771C123.33 34.1038 155.214 59.5079 150.301 87.7039C143.371 127.47 95.4948 108.772 99.922 131.173C100.558 134.397 100.926 137.852 101.206 141.388C102.962 163.614 115.556 196.181 152.631 206.617C195.299 218.585 238.744 201.591 238.744 201.591" stroke="#FDF513" stroke-width="0.245546" stroke-miterlimit="10"/>
<path d="M30.3418 67.3621C31.2429 66.9349 6.89461 18.6704 39.0022 13.3936C52.2125 11.223 70.4591 12.2175 89.3808 20.4212C120.214 33.7887 151.03 58.687 147.46 86.387C142.51 124.81 99.2444 109.915 103.284 131.852C103.87 135.037 104.18 138.413 104.393 141.836C105.724 163.282 119.188 194.437 155.285 205.089C196.802 217.295 239.289 202.668 239.289 202.668" stroke="#FDF611" stroke-width="0.245546" stroke-miterlimit="10"/>
<path d="M27.6777 67.3824C28.6673 66.9134 7.6142 20.7876 38.3835 14.6072C51.3459 12.0044 69.0178 12.5028 87.5025 20.5641C117.101 33.4675 146.829 57.8502 144.624 85.0665C141.621 122.134 102.996 111.058 106.653 132.526C107.188 135.674 107.443 138.969 107.588 142.276C108.494 162.939 122.829 192.687 157.947 203.555C198.312 215.999 239.842 203.741 239.842 203.741" stroke="#FEF710" stroke-width="0.245546" stroke-miterlimit="10"/>
<path d="M25.0112 67.4012C26.0916 66.888 8.32637 22.8715 37.7624 15.8194C50.4792 12.7722 67.5741 12.7869 85.6242 20.7033C113.99 33.1451 142.603 57.0048 141.785 83.7447C140.695 119.445 106.744 112.196 110.019 133.2C110.503 136.309 110.702 139.525 110.78 142.72C111.264 162.602 126.468 190.94 160.607 202.022C199.82 214.704 240.392 204.814 240.392 204.814" stroke="#FEF80E" stroke-width="0.245546" stroke-miterlimit="10"/>
<path d="M22.3442 67.4231C23.5154 66.8681 9.0356 24.9314 37.1383 17.0346C49.6047 13.5331 66.1275 13.074 83.7405 20.8479C110.873 32.8232 138.347 56.1574 138.944 82.4259C139.725 116.751 110.483 113.34 113.383 133.878C113.815 136.947 113.96 140.085 113.97 143.167C114.033 162.265 130.104 189.197 163.263 200.492C201.323 213.412 240.939 205.891 240.939 205.891" stroke="#FEF90D" stroke-width="0.245546" stroke-miterlimit="10"/>
<path d="M19.6799 67.4419C20.9396 66.8452 9.73775 26.9563 36.5194 18.2468C48.7329 14.2738 64.686 13.3555 81.8619 20.9895C107.762 32.5007 134.063 55.3094 136.108 81.104C138.721 114.054 114.227 114.484 116.749 134.552C117.13 137.584 117.221 140.639 117.162 143.61C116.808 161.928 133.743 187.45 165.92 198.961C202.828 212.122 241.486 206.966 241.486 206.966" stroke="#FEF90B" stroke-width="0.245546" stroke-miterlimit="10"/>
<path d="M17.0134 67.4595C18.3639 66.8186 10.4254 28.953 35.8983 19.4577C47.854 15.0035 63.2423 13.6359 79.9836 21.1299C104.654 32.1721 129.743 54.4627 133.27 79.7834C137.67 111.366 117.965 115.626 120.116 135.228C120.445 138.221 120.481 141.197 120.354 144.055C119.583 161.589 137.38 185.702 168.579 197.429C204.335 210.829 242.036 208.039 242.036 208.039" stroke="#FEFA09" stroke-width="0.245546" stroke-miterlimit="10"/>
<path d="M14.3467 67.4836C15.788 66.8009 11.0932 30.9267 35.277 20.6776C46.965 15.7249 61.8009 13.9227 78.1027 21.2792C101.54 31.8524 125.385 53.6397 130.431 78.4693C136.574 108.701 121.697 116.774 123.482 135.91C123.757 138.866 123.742 141.761 123.546 144.504C122.36 161.257 141.019 183.961 171.238 195.904C205.843 209.542 242.586 209.122 242.586 209.122" stroke="#FEFB08" stroke-width="0.245546" stroke-miterlimit="10"/>
<path d="M11.6802 67.5055C13.2099 66.7811 11.7416 32.8712 34.6534 21.8929C46.0615 16.4246 60.3572 14.2048 76.2219 21.4214C98.4291 31.5231 120.987 52.8316 127.593 77.1505C135.443 106.056 125.427 117.921 126.849 136.585C127.07 139.502 127.003 142.318 126.74 144.948C125.142 160.918 144.66 182.215 173.9 194.372C207.353 208.247 243.139 210.195 243.139 210.195" stroke="#FEFC06" stroke-width="0.245546" stroke-miterlimit="10"/>
<path d="M9.01611 67.5203C10.6367 66.7518 12.3678 34.7891 34.0348 23.1011C45.1506 17.1049 58.9307 14.4506 74.3436 21.5591C95.3402 31.1501 116.558 52.0461 124.754 75.8247C134.274 103.439 129.154 119.058 130.213 137.255C130.38 140.133 130.262 142.871 129.93 145.388C127.924 160.577 148.297 180.464 176.557 192.837C208.856 206.951 243.687 211.268 243.687 211.268" stroke="#FFFD05" stroke-width="0.245546" stroke-miterlimit="10"/>
<path d="M6.34961 67.539C8.06106 66.7287 12.9572 36.6911 33.4137 24.3131C44.2201 17.7743 57.487 14.732 72.4628 21.7006C92.2268 30.8275 112.091 51.3011 121.916 74.5051C133.078 100.869 132.877 120.201 133.579 137.932C133.692 140.773 133.525 143.427 133.122 145.834C130.709 160.245 151.936 178.72 179.216 191.306C210.364 205.659 244.237 212.342 244.237 212.342" stroke="#FFFD03" stroke-width="0.245546" stroke-miterlimit="10"/>
<path d="M3.68311 67.5623C5.48296 66.7078 13.5148 38.5879 32.7926 25.5298C43.2675 18.4335 56.0433 15.0204 70.5845 21.8466C89.1159 30.5094 107.603 50.6049 119.08 73.1878C131.865 98.3513 136.565 121.347 136.948 138.611C137 141.413 136.794 143.991 136.317 146.282C133.523 159.919 155.575 176.975 181.878 189.78C211.874 204.371 244.792 213.424 244.792 213.424" stroke="#FFFE02" stroke-width="0.245546" stroke-miterlimit="10"/>
<path d="M1.01855 67.5858C3.9651 66.1886 29.33 3.32892 68.7033 21.9904C108.077 40.6519 146.382 119.227 139.506 146.728C132.631 174.229 245.337 214.498 245.337 214.498" stroke="#FFFF00" stroke-width="0.245546" stroke-miterlimit="10"/>
</g>
</svg>
