<svg width="259" height="223" viewBox="0 0 259 223" fill="none" xmlns="http://www.w3.org/2000/svg">
<g opacity="0.6">
<path d="M7.3999 142.391C7.3999 142.391 82.9025 211.527 119.828 199.401C156.754 187.276 221.234 93.0345 198.087 47.8432C174.94 2.65192 253.75 0.998266 253.75 0.998266" stroke="#7FF6A6" stroke-width="0.153118" stroke-miterlimit="10"/>
<path d="M8.5083 141.041C8.52974 141.199 80.7265 212.054 118.123 200.48C155.519 188.906 217.141 94.7442 195.83 49.9464C174.519 5.14862 253.173 2.78601 253.173 2.78601" stroke="#17D054" stroke-width="0.153118" stroke-miterlimit="10"/>
<path d="M9.61523 139.687C9.65658 140.003 78.5475 212.578 116.417 201.556C154.286 190.535 213.047 96.4497 193.573 52.0454C174.099 7.64113 252.595 4.5711 252.595 4.5711" stroke="#40E877" stroke-width="0.153118" stroke-miterlimit="10"/>
<path d="M10.7236 138.332C10.7864 138.805 76.37 213.101 114.712 202.629C153.055 192.158 208.954 98.1522 191.317 54.1415C173.681 10.1307 252.02 6.35174 252.02 6.35174" stroke="#0CAD41" stroke-width="0.153118" stroke-miterlimit="10"/>
<path d="M11.8311 136.983C11.9153 137.612 74.1915 213.629 113.005 203.709C151.819 193.788 204.858 99.8625 189.059 56.2453C173.26 12.628 251.441 8.14012 251.441 8.14012" stroke="#40E877" stroke-width="0.153118" stroke-miterlimit="10"/>
<path d="M12.9385 135.627C13.0426 136.414 72.013 214.152 111.3 204.783C150.587 195.414 200.766 101.566 186.803 58.3422C172.841 15.1184 250.864 9.92315 250.864 9.92315" stroke="#2DF0FF" stroke-width="0.153118" stroke-miterlimit="10"/>
<path d="M14.0469 134.276C14.1724 135.22 69.8355 214.678 109.594 205.86C149.353 197.042 196.671 103.272 184.547 60.4436C172.423 17.6134 250.288 11.7091 250.288 11.7091" stroke="#36EEFF" stroke-width="0.153118" stroke-miterlimit="10"/>
<path d="M15.1538 132.918C15.2993 134.021 67.6565 215.198 107.888 206.933C148.12 198.666 192.576 104.976 182.29 62.5391C172.003 20.1024 249.711 13.4893 249.711 13.4893" stroke="#3FEBFF" stroke-width="0.153118" stroke-miterlimit="10"/>
<path d="M16.2607 131.566C16.4276 132.826 65.4775 215.724 106.181 208.009C146.884 200.293 188.482 106.681 180.031 64.6396C171.581 22.5979 249.132 15.2743 249.132 15.2743" stroke="#40E877" stroke-width="0.153118" stroke-miterlimit="10"/>
<path d="M17.3696 130.214C17.558 131.632 63.3005 216.25 104.477 209.085C145.654 201.921 184.389 108.388 177.776 66.7388C171.163 25.0891 248.555 17.0596 248.555 17.0596" stroke="#51E5FF" stroke-width="0.153118" stroke-miterlimit="10"/>
<path d="M18.4766 128.861C18.6848 130.435 61.1215 216.775 102.77 210.162C144.418 203.549 180.293 110.095 175.518 68.8401C170.742 27.5855 247.976 18.8455 247.976 18.8455" stroke="#5AE2FF" stroke-width="0.153118" stroke-miterlimit="10"/>
<path d="M19.585 127.51C19.8146 129.242 58.944 217.302 101.065 211.24C143.187 205.178 176.202 111.802 173.262 70.9408C170.322 30.0797 247.4 20.6307 247.4 20.6307" stroke="#62DFFF" stroke-width="0.153118" stroke-miterlimit="10"/>
<path d="M20.6919 126.157C20.943 128.046 56.765 217.827 99.3594 212.315C141.954 206.803 172.107 113.508 171.005 73.0385C169.903 32.5694 246.823 22.4145 246.823 22.4145" stroke="#B7FBCD" stroke-width="0.153118" stroke-miterlimit="10"/>
<path d="M21.7988 124.803C22.0698 126.851 54.586 218.351 97.652 213.391C140.718 208.432 168.011 115.214 168.746 75.1395C169.481 35.0654 246.244 24.2001 246.244 24.2001" stroke="#74D9FF" stroke-width="0.153118" stroke-miterlimit="10"/>
<path d="M22.9077 123.449C23.2002 125.654 52.409 218.874 95.9482 214.466C139.487 210.057 163.919 116.917 166.491 77.2365C169.064 37.556 245.669 25.9818 245.669 25.9818" stroke="#7FF6A6" stroke-width="0.153118" stroke-miterlimit="10"/>
<path d="M24.0146 122.097C24.327 124.459 50.23 219.4 94.2408 215.542C138.252 211.683 159.824 118.624 164.233 79.337C168.641 40.0499 245.09 27.7683 245.09 27.7683" stroke="#40E877" stroke-width="0.153118" stroke-miterlimit="10"/>
<path d="M25.1221 120.745C25.4559 123.264 48.0515 219.926 92.5354 216.62C137.019 213.313 155.73 120.332 161.976 81.4383C168.222 42.5448 244.513 29.5542 244.513 29.5542" stroke="#8FD1FF" stroke-width="0.153118" stroke-miterlimit="10"/>
<path d="M26.2305 119.39C26.5857 122.066 45.874 220.449 90.8295 217.693C135.785 214.937 151.636 122.034 159.719 83.5356C167.802 45.0356 243.935 31.3361 243.935 31.3361" stroke="#98CEFF" stroke-width="0.153118" stroke-miterlimit="10"/>
<path d="M27.3374 118.037C27.7125 120.871 43.695 220.974 89.1237 218.769C134.552 216.564 147.543 123.741 157.462 85.634C167.381 47.5275 243.358 33.1206 243.358 33.1206" stroke="#A1CBFF" stroke-width="0.153118" stroke-miterlimit="10"/>
<path d="M28.4443 116.685C28.8409 119.677 41.516 221.499 87.4178 219.847C133.32 218.195 143.448 125.448 155.205 87.7369C166.961 50.0254 242.781 34.9081 242.781 34.9081" stroke="#AAC8FF" stroke-width="0.153118" stroke-miterlimit="10"/>
<path d="M29.5527 115.331C29.9707 118.48 39.3385 222.023 85.7119 220.921C132.085 219.818 139.354 127.151 152.949 89.8334C166.545 52.5154 242.205 36.6891 242.205 36.6891" stroke="#B3C5FF" stroke-width="0.153118" stroke-miterlimit="10"/>
<path d="M30.6602 113.979C31.0981 117.286 37.1615 222.549 84.0065 221.998C130.852 221.447 135.261 128.859 150.693 91.9331C166.124 55.0071 241.628 38.475 241.628 38.475" stroke="#BCC2FF" stroke-width="0.153118" stroke-miterlimit="10"/>
<path d="M29.2114 116.843C29.6294 119.992 38.841 218.799 84.3998 218.695C129.959 218.59 135.255 132.641 151.398 96.8713C167.541 61.1014 242.545 39.7721 242.441 39.8731" stroke="#B3B9FF" stroke-width="0.153118" stroke-miterlimit="10"/>
<path d="M27.7627 119.701C28.1593 122.692 40.5205 215.044 84.7931 215.386C129.066 215.727 135.25 136.418 152.104 101.803C168.958 67.1871 243.463 41.0621 243.254 41.2642" stroke="#AAB0FF" stroke-width="0.153118" stroke-miterlimit="10"/>
<path d="M26.3145 122.562C26.6896 125.396 42.2005 211.293 85.1869 212.08C128.175 212.867 135.246 140.198 152.81 106.737C170.374 73.2764 244.382 42.3542 244.067 42.6604" stroke="#A1A6FF" stroke-width="0.153118" stroke-miterlimit="10"/>
<path d="M24.8647 125.422C25.22 128.099 43.879 207.539 85.5807 208.772C127.282 210.006 135.24 143.975 153.516 111.671C171.792 79.3657 245.3 43.6463 244.88 44.0536" stroke="#989DFF" stroke-width="0.153118" stroke-miterlimit="10"/>
<path d="M23.416 128.283C23.7498 130.802 45.5584 203.785 85.974 205.465C126.39 207.145 135.235 147.755 154.222 116.603C173.208 85.4511 246.218 44.9376 245.693 45.4459" stroke="#8F94FF" stroke-width="0.153118" stroke-miterlimit="10"/>
<path d="M21.9673 131.144C22.2796 133.507 47.2379 200.033 86.3673 202.16C125.497 204.287 135.23 151.536 154.927 121.539C174.625 91.5415 247.137 46.2323 246.507 46.8433" stroke="#868BFF" stroke-width="0.153118" stroke-miterlimit="10"/>
<path d="M20.519 134.001C20.8115 136.206 48.9179 196.278 86.7626 198.85C124.607 201.422 135.226 155.311 155.635 126.469C176.044 97.6281 248.057 47.5217 247.322 48.2337" stroke="#7D81FF" stroke-width="0.153118" stroke-miterlimit="10"/>
<path d="M19.0708 136.863C19.3418 138.91 50.5978 192.526 87.1563 195.544C123.713 198.562 135.222 159.091 156.341 131.404C177.461 103.717 248.975 48.8152 248.136 49.6282" stroke="#7478FF" stroke-width="0.153118" stroke-miterlimit="10"/>
<path d="M17.6221 139.726C17.8732 141.616 52.2788 188.776 87.5496 192.239C122.82 195.703 135.217 162.873 157.047 136.341C178.877 109.808 249.893 50.1105 248.948 51.0247" stroke="#6B6FFF" stroke-width="0.153118" stroke-miterlimit="10"/>
<path d="M16.1724 142.585C16.402 144.316 53.9573 185.021 87.9419 188.93C121.928 192.841 135.21 166.65 157.752 141.272C180.294 115.894 250.811 51.4011 249.76 52.4178" stroke="#6266FF" stroke-width="0.153118" stroke-miterlimit="10"/>
<path d="M14.7236 145.447C14.9319 147.022 55.6368 181.269 88.3367 185.627C121.037 189.985 135.206 170.432 158.459 146.208C181.711 121.985 251.731 52.6946 250.575 53.8139" stroke="#5A5CFF" stroke-width="0.153118" stroke-miterlimit="10"/>
<path d="M13.2749 148.308C13.4632 149.726 57.3163 177.517 88.73 182.32C120.144 187.123 135.201 174.211 159.164 151.142C183.127 128.073 252.648 53.987 251.389 55.2074" stroke="#5153FF" stroke-width="0.153118" stroke-miterlimit="10"/>
<path d="M11.8262 151.166C11.9931 152.426 58.9958 173.761 89.1233 179.01C119.251 184.259 135.195 177.987 159.87 156.073C184.545 134.159 253.566 55.2769 252.202 56.5999" stroke="#484AFF" stroke-width="0.153118" stroke-miterlimit="10"/>
<path d="M10.3779 154.026C10.5234 155.128 60.6757 170.008 89.5171 175.703C118.358 181.397 135.191 181.765 160.576 161.006C185.962 140.248 254.485 56.569 253.015 57.993" stroke="#106B30" stroke-width="0.153118" stroke-miterlimit="10"/>
<path d="M8.92822 156.891C9.05378 157.836 62.3542 166.26 89.9109 172.4C117.468 178.542 135.186 185.549 161.284 165.945C187.381 146.341 255.404 57.8663 253.83 59.3914" stroke="#105729" stroke-width="0.153118" stroke-miterlimit="10"/>
<path d="M7.47949 159.752C7.58361 160.539 64.0337 162.508 90.3042 169.095C116.575 175.682 135.18 189.33 161.99 170.879C188.799 152.428 256.323 59.1593 254.643 60.7869" stroke="#0F973D" stroke-width="0.153118" stroke-miterlimit="10"/>
<path d="M6.03076 162.611C6.11498 163.24 65.7132 158.752 90.6975 165.786C115.682 172.819 135.175 193.106 162.695 175.811C190.215 158.516 257.241 60.4503 255.456 62.179" stroke="#0CAD41" stroke-width="0.153118" stroke-miterlimit="10"/>
<path d="M4.58252 165.469C4.6453 165.942 67.3947 154.997 91.0928 162.477C114.791 169.957 135.172 196.883 163.403 180.742C191.633 164.602 258.162 61.7405 256.272 63.5703" stroke="#0F973D" stroke-width="0.153118" stroke-miterlimit="10"/>
<path d="M3.13428 168.328C3.17562 168.643 69.0746 151.243 91.4865 159.168C113.898 167.094 135.168 200.66 164.109 185.675C193.05 170.689 259.079 63.0315 257.085 64.9624" stroke="#0F973D" stroke-width="0.153118" stroke-miterlimit="10"/>
<path d="M1.68555 171.193C1.70698 171.351 70.7541 147.495 91.8798 155.868C113.006 164.24 135.162 204.445 164.815 190.615C194.467 176.785 259.997 64.3291 257.898 66.3641" stroke="#106B30" stroke-width="0.153118" stroke-miterlimit="10"/>
<path d="M0.235352 174.051C0.235352 174.051 72.4321 143.74 92.2716 152.558C112.113 161.376 135.155 208.221 165.519 195.546C195.882 182.871 260.915 65.6191 258.71 67.7551" stroke="#105729" stroke-width="0.153118" stroke-miterlimit="10"/>
</g>
</svg>
