<svg width="20" height="21" viewBox="0 0 20 21" fill="none" xmlns="http://www.w3.org/2000/svg">
<g id="icon / history">
<g id="icon">
<path d="M4.83287 3.00033C4.83287 2.54009 4.45977 2.16699 3.99953 2.16699C3.53929 2.16699 3.1662 2.54009 3.1662 3.00033V6.00033C3.1662 6.46056 3.53929 6.83366 3.99953 6.83366H7.00008C7.46032 6.83366 7.83341 6.46056 7.83341 6.00033C7.83341 5.54009 7.46032 5.16699 7.00008 5.16699H5.99922C7.11395 4.3293 8.49908 3.83366 10.0001 3.83366C13.682 3.83366 16.6667 6.81843 16.6667 10.5003C16.6667 14.1822 13.682 17.167 10.0001 17.167C6.31818 17.167 3.33341 14.1822 3.33341 10.5003C3.33341 10.0401 2.96032 9.66699 2.50008 9.66699C2.03984 9.66699 1.66675 10.0401 1.66675 10.5003C1.66675 15.1027 5.39771 18.8337 10.0001 18.8337C14.6025 18.8337 18.3334 15.1027 18.3334 10.5003C18.3334 5.89795 14.6025 2.16699 10.0001 2.16699C8.04803 2.16699 6.25272 2.83863 4.83287 3.96212V3.00033Z" fill="#2D59C8"/>
<path d="M10.0001 7.58366C10.0001 7.12342 9.62699 6.75033 9.16675 6.75033C8.70651 6.75033 8.33341 7.12342 8.33341 7.58366V11.7503C8.33341 12.2106 8.70651 12.5837 9.16675 12.5837H11.6667C12.127 12.5837 12.5001 12.2106 12.5001 11.7503C12.5001 11.2901 12.127 10.917 11.6667 10.917H10.0001V7.58366Z" fill="#2D59C8"/>
</g>
</g>
</svg>
