<svg width="22" height="22" viewBox="0 0 22 22" fill="none" xmlns="http://www.w3.org/2000/svg">
	<path fill-rule="evenodd" clip-rule="evenodd" d="M13.2945 1.38518C11.9172 0.421087 10.0841 0.421084 8.70681 1.38518L1.82923 6.19948C0.670613 7.01052 0.0263913 8.37309 0.134861 9.7832L0.83988 18.9484C0.972847 20.677 2.53905 21.9334 4.25531 21.6882L7.42492 21.2354C8.90287 21.0243 10.0007 19.7585 10.0007 18.2656V17.0001C10.0007 16.4479 10.4484 16.0001 11.0007 16.0001C11.5529 16.0001 12.0007 16.4479 12.0007 17.0001V18.2656C12.0007 19.7585 13.0984 21.0243 14.5764 21.2354L17.746 21.6882C19.4623 21.9334 21.0285 20.677 21.1614 18.9484L21.8665 9.7832C21.9749 8.37309 21.3307 7.01052 20.1721 6.19949L13.2945 1.38518ZM9.85373 3.02364C10.5424 2.5416 11.4589 2.5416 12.1476 3.02365L19.0252 7.83795C19.6045 8.24347 19.9266 8.92475 19.8723 9.62981L19.1673 18.795C19.123 19.3712 18.6009 19.79 18.0289 19.7083L14.8592 19.2555C14.3666 19.1851 14.0007 18.7632 14.0007 18.2656V17.0001C14.0007 15.3433 12.6575 14.0001 11.0007 14.0001C9.3438 14.0001 8.00066 15.3433 8.00066 17.0001V18.2656C8.00066 18.7632 7.63473 19.1851 7.14208 19.2555L3.97246 19.7083C3.40038 19.79 2.87831 19.3712 2.83399 18.795L2.12897 9.62981C2.07474 8.92475 2.39685 8.24347 2.97616 7.83795L9.85373 3.02364Z" fill="currentColor" />
</svg>
