<svg width="25" height="24" viewBox="0 0 25 24" fill="none" xmlns="http://www.w3.org/2000/svg">
<path fill-rule="evenodd" clip-rule="evenodd" d="M14.7945 2.38518C13.4172 1.42109 11.5841 1.42108 10.2068 2.38518L3.32923 7.19948C2.17061 8.01052 1.52639 9.37309 1.63486 10.7832L2.33988 19.9484C2.47285 21.677 4.03905 22.9334 5.75531 22.6882L8.92492 22.2354C10.4029 22.0243 11.5007 20.7585 11.5007 19.2656V18.0001C11.5007 17.4479 11.9484 17.0001 12.5007 17.0001C13.0529 17.0001 13.5007 17.4479 13.5007 18.0001V19.2656C13.5007 20.7585 14.5984 22.0243 16.0764 22.2354L19.246 22.6882C20.9623 22.9334 22.5285 21.677 22.6614 19.9484L23.3665 10.7832C23.4749 9.37309 22.8307 8.01052 21.6721 7.19949L14.7945 2.38518ZM11.3537 4.02364C12.0424 3.5416 12.9589 3.5416 13.6476 4.02365L20.5252 8.83795C21.1045 9.24347 21.4266 9.92475 21.3723 10.6298L20.6673 19.795C20.623 20.3712 20.1009 20.79 19.5289 20.7083L16.3592 20.2555C15.8666 20.1851 15.5007 19.7632 15.5007 19.2656V18.0001C15.5007 16.3433 14.1575 15.0001 12.5007 15.0001C10.8438 15.0001 9.50066 16.3433 9.50066 18.0001V19.2656C9.50066 19.7632 9.13473 20.1851 8.64208 20.2555L5.47246 20.7083C4.90038 20.79 4.37831 20.3712 4.33399 19.795L3.62897 10.6298C3.57474 9.92475 3.89685 9.24347 4.47616 8.83795L11.3537 4.02364Z" fill="#50545F"/>
</svg>
