<svg width="20" height="20" viewBox="0 0 20 20" fill="none" xmlns="http://www.w3.org/2000/svg">
<g id="Icon-left">
<g id="icon">
<path fill-rule="evenodd" clip-rule="evenodd" d="M10.0007 1.66602C7.69947 1.66602 5.83398 3.5315 5.83398 5.83268C5.83398 8.13387 7.69947 9.99935 10.0007 9.99935C12.3018 9.99935 14.1673 8.13387 14.1673 5.83268C14.1673 3.5315 12.3018 1.66602 10.0007 1.66602ZM7.50065 5.83268C7.50065 4.45197 8.61994 3.33268 10.0007 3.33268C11.3814 3.33268 12.5007 4.45197 12.5007 5.83268C12.5007 7.21339 11.3814 8.33268 10.0007 8.33268C8.61994 8.33268 7.50065 7.21339 7.50065 5.83268Z" fill="#878FA4"/>
<path fill-rule="evenodd" clip-rule="evenodd" d="M10.0006 19.166C8.7169 19.166 6.85883 18.8745 5.46351 18.2638C4.77851 17.964 4.08186 17.535 3.67711 16.9139C3.46425 16.5872 3.32968 16.2024 3.33409 15.7729C3.33846 15.3472 3.47852 14.9394 3.71391 14.56C4.85508 12.7207 7.18964 10.8327 10.0006 10.8327C12.8117 10.8327 15.1462 12.7207 16.2874 14.56C16.5228 14.9394 16.6628 15.3472 16.6672 15.7729C16.6716 16.2024 16.5371 16.5872 16.3242 16.9139C15.9194 17.535 15.2228 17.964 14.5378 18.2638C13.1425 18.8745 11.2844 19.166 10.0006 19.166ZM5.13014 15.4387C5.02042 15.6155 5.00129 15.7291 5.00067 15.79C5.00008 15.8469 5.0147 15.9138 5.07345 16.0039C5.21193 16.2164 5.54821 16.4816 6.13176 16.737C7.27352 17.2367 8.89501 17.4993 10.0006 17.4993C11.1063 17.4993 12.7278 17.2367 13.8695 16.737C14.4531 16.4816 14.7894 16.2164 14.9278 16.0039C14.9866 15.9138 15.0012 15.8469 15.0006 15.79C15 15.7291 14.9809 15.6155 14.8712 15.4387C13.936 13.9315 12.0709 12.4993 10.0006 12.4993C7.93037 12.4993 6.06527 13.9315 5.13014 15.4387Z" fill="#878FA4"/>
</g>
</g>
</svg>
