<svg width="24" height="25" viewBox="0 0 24 25" fill="none" xmlns="http://www.w3.org/2000/svg">
<g id="instagram">
<path id="bg" d="M20.25 0.5H3.75C1.67893 0.5 0 2.17893 0 4.25V20.75C0 22.8211 1.67893 24.5 3.75 24.5H20.25C22.3211 24.5 24 22.8211 24 20.75V4.25C24 2.17893 22.3211 0.5 20.25 0.5Z" fill="#F00073"/>
<g id="instagram_2">
<path d="M11.9984 7.40039C13.6484 7.40039 13.8734 7.40039 14.5484 7.40039C15.1484 7.40039 15.4484 7.55039 15.6734 7.62539C15.9734 7.77539 16.1984 7.85039 16.4234 8.07539C16.6484 8.30039 16.7984 8.52539 16.8734 8.82539C16.9484 9.05039 17.0234 9.35039 17.0984 9.95039C17.0984 10.6254 17.0984 10.7754 17.0984 12.5004C17.0984 14.2254 17.0984 14.3754 17.0984 15.0504C17.0984 15.6504 16.9484 15.9504 16.8734 16.1754C16.7234 16.4754 16.6484 16.7004 16.4234 16.9254C16.1984 17.1504 15.9734 17.3004 15.6734 17.3754C15.4484 17.4504 15.1484 17.5254 14.5484 17.6004C13.8734 17.6004 13.7234 17.6004 11.9984 17.6004C10.2734 17.6004 10.1234 17.6004 9.44844 17.6004C8.84844 17.6004 8.54844 17.4504 8.32344 17.3754C8.02344 17.2254 7.79844 17.1504 7.57344 16.9254C7.34844 16.7004 7.19844 16.4754 7.12344 16.1754C7.04844 15.9504 6.97344 15.6504 6.89844 15.0504C6.89844 14.3754 6.89844 14.2254 6.89844 12.5004C6.89844 10.7754 6.89844 10.6254 6.89844 9.95039C6.89844 9.35039 7.04844 9.05039 7.12344 8.82539C7.27344 8.52539 7.34844 8.30039 7.57344 8.07539C7.79844 7.85039 8.02344 7.70039 8.32344 7.62539C8.54844 7.55039 8.84844 7.47539 9.44844 7.40039C10.1234 7.40039 10.3484 7.40039 11.9984 7.40039ZM11.9984 6.27539C10.2734 6.27539 10.1234 6.27539 9.44844 6.27539C8.77344 6.27539 8.32344 6.42539 7.94844 6.57539C7.57344 6.72539 7.19844 6.95039 6.82344 7.32539C6.44844 7.70039 6.29844 8.00039 6.07344 8.45039C5.92344 8.82539 5.84844 9.27539 5.77344 9.95039C5.77344 10.6254 5.77344 10.8504 5.77344 12.5004C5.77344 14.2254 5.77344 14.3754 5.77344 15.0504C5.77344 15.7254 5.92344 16.1754 6.07344 16.5504C6.22344 16.9254 6.44844 17.3004 6.82344 17.6754C7.19844 18.0504 7.49844 18.2004 7.94844 18.4254C8.32344 18.5754 8.77344 18.6504 9.44844 18.7254C10.1234 18.7254 10.3484 18.7254 11.9984 18.7254C13.6484 18.7254 13.8734 18.7254 14.5484 18.7254C15.2234 18.7254 15.6734 18.5754 16.0484 18.4254C16.4234 18.2754 16.7984 18.0504 17.1734 17.6754C17.5484 17.3004 17.6984 17.0004 17.9234 16.5504C18.0734 16.1754 18.1484 15.7254 18.2234 15.0504C18.2234 14.3754 18.2234 14.1504 18.2234 12.5004C18.2234 10.8504 18.2234 10.6254 18.2234 9.95039C18.2234 9.27539 18.0734 8.82539 17.9234 8.45039C17.7734 8.07539 17.5484 7.70039 17.1734 7.32539C16.7984 6.95039 16.4984 6.80039 16.0484 6.57539C15.6734 6.42539 15.2234 6.35039 14.5484 6.27539C13.8734 6.27539 13.7234 6.27539 11.9984 6.27539Z" fill="white"/>
<path d="M11.9984 9.27539C10.1984 9.27539 8.77344 10.7004 8.77344 12.5004C8.77344 14.3004 10.1984 15.7254 11.9984 15.7254C13.7984 15.7254 15.2234 14.3004 15.2234 12.5004C15.2234 10.7004 13.7984 9.27539 11.9984 9.27539ZM11.9984 14.6004C10.8734 14.6004 9.89844 13.7004 9.89844 12.5004C9.89844 11.3754 10.7984 10.4004 11.9984 10.4004C13.1234 10.4004 14.0984 11.3004 14.0984 12.5004C14.0984 13.6254 13.1234 14.6004 11.9984 14.6004Z" fill="white"/>
<path d="M15.2984 9.95039C15.7127 9.95039 16.0484 9.6146 16.0484 9.20039C16.0484 8.78618 15.7127 8.45039 15.2984 8.45039C14.8842 8.45039 14.5484 8.78618 14.5484 9.20039C14.5484 9.6146 14.8842 9.95039 15.2984 9.95039Z" fill="white"/>
</g>
</g>
</svg>
