<svg width="20" height="20" viewBox="0 0 20 20" fill="none" xmlns="http://www.w3.org/2000/svg">
<g id="icon / laptop">
<g id="icon">
<path fill-rule="evenodd" clip-rule="evenodd" d="M4.16634 1.25C2.32539 1.25 0.833008 2.74238 0.833008 4.58333V12.9167C0.833008 14.7576 2.32539 16.25 4.16634 16.25H15.833C17.674 16.25 19.1663 14.7576 19.1663 12.9167V4.58333C19.1663 2.74238 17.674 1.25 15.833 1.25H4.16634ZM2.49967 4.58333C2.49967 3.66286 3.24587 2.91667 4.16634 2.91667H15.833C16.7535 2.91667 17.4997 3.66286 17.4997 4.58333V12.9167C17.4997 13.8371 16.7535 14.5833 15.833 14.5833H4.16634C3.24587 14.5833 2.49967 13.8371 2.49967 12.9167V4.58333Z" fill="#2B49A2"/>
<path d="M1.66634 17.0833C1.2061 17.0833 0.833008 17.4564 0.833008 17.9167C0.833008 18.3769 1.2061 18.75 1.66634 18.75H18.333C18.7932 18.75 19.1663 18.3769 19.1663 17.9167C19.1663 17.4564 18.7932 17.0833 18.333 17.0833H1.66634Z" fill="#2B49A2"/>
</g>
</g>
</svg>
