<svg width="20" height="21" viewBox="0 0 20 21" fill="none" xmlns="http://www.w3.org/2000/svg">
<g id="icon / layer">
<path id="icon" fill-rule="evenodd" clip-rule="evenodd" d="M9.53527 3.12065C9.83329 3.00145 10.1657 3.00145 10.4637 3.12065L17.6752 6.00522C18.7229 6.4243 18.7229 7.90734 17.6752 8.32642L16.41 8.83249L17.6752 9.33856C18.7229 9.75763 18.7229 11.2407 17.6752 11.6597L16.41 12.1658L17.6752 12.6719C18.7229 13.091 18.7229 14.574 17.6752 14.9931L10.4637 17.8777C10.1657 17.9969 9.83329 17.9969 9.53527 17.8777L2.32385 14.9931C1.27617 14.574 1.27616 13.091 2.32385 12.6719L3.58902 12.1658L2.32385 11.6597C1.27617 11.2407 1.27616 9.75763 2.32385 9.33856L3.58903 8.83249L2.32385 8.32642C1.27617 7.90734 1.27616 6.4243 2.32385 6.00522L9.53527 3.12065ZM6.14045 11.3913C6.14163 11.3918 6.14281 11.3923 6.14399 11.3928L9.99951 12.935L13.8551 11.3927C13.8562 11.3923 13.8574 11.3918 13.8585 11.3914L16.089 10.4992L14.1662 9.73001L10.4637 11.211C10.1657 11.3302 9.83329 11.3302 9.53527 11.211L5.83284 9.73001L3.91 10.4992L6.14045 11.3913ZM14.1662 13.0633L10.4637 14.5443C10.1657 14.6635 9.83329 14.6635 9.53527 14.5443L5.83284 13.0633L3.91 13.8325L9.99951 16.2683L16.089 13.8325L14.1662 13.0633ZM13.8583 8.0581L13.8553 8.05931L9.99951 9.60163L6.14369 8.0593L6.14075 8.05812L3.91 7.16582L9.99951 4.73001L16.089 7.16582L13.8583 8.0581Z" fill="#4B89E6"/>
</g>
</svg>
