<svg width="20" height="21" viewBox="0 0 20 21" fill="none" xmlns="http://www.w3.org/2000/svg">
<g id="icon / link">
<g id="icon">
<path d="M16.4809 4.01824C14.8537 2.39106 12.2155 2.39106 10.5883 4.01824L8.23131 6.37526C7.90587 6.7007 7.90587 7.22834 8.23131 7.55377C8.55675 7.87921 9.08438 7.87921 9.40982 7.55377L11.7668 5.19675C12.7432 4.22044 14.3261 4.22044 15.3024 5.19675C16.2787 6.17306 16.2787 7.75597 15.3024 8.73229L12.9454 11.0893C12.6199 11.4147 12.6199 11.9424 12.9454 12.2678C13.2708 12.5933 13.7984 12.5933 14.1239 12.2678L16.4809 9.9108C18.1081 8.28361 18.1081 5.64542 16.4809 4.01824Z" fill="#2D59C8"/>
<path d="M11.7668 9.9108C12.0923 9.58536 12.0923 9.05772 11.7668 8.73229C11.4414 8.40685 10.9138 8.40685 10.5883 8.73229L8.23131 11.0893C7.90587 11.4147 7.90587 11.9424 8.23131 12.2678C8.55675 12.5933 9.08438 12.5933 9.40982 12.2678L11.7668 9.9108Z" fill="#2D59C8"/>
<path d="M7.0528 9.9108C7.37823 9.58536 7.37823 9.05772 7.0528 8.73229C6.72736 8.40685 6.19972 8.40685 5.87429 8.73229L3.51726 11.0893C1.89008 12.7165 1.89008 15.3547 3.51726 16.9819C5.14445 18.609 7.78264 18.609 9.40982 16.9819L11.7668 14.6248C12.0923 14.2994 12.0923 13.7718 11.7668 13.4463C11.4414 13.1209 10.9138 13.1209 10.5883 13.4463L8.23131 15.8034C7.255 16.7797 5.67209 16.7797 4.69577 15.8034C3.71946 14.827 3.71946 13.2441 4.69577 12.2678L7.0528 9.9108Z" fill="#2D59C8"/>
</g>
</g>
</svg>
