<svg width="20" height="20" viewBox="0 0 20 20" xmlns="http://www.w3.org/2000/svg">
<path d="M6.2513 3.33464C6.71154 3.33464 7.08464 2.96154 7.08464 2.5013C7.08464 2.04106 6.71154 1.66797 6.2513 1.66797H5.0013C3.16035 1.66797 1.66797 3.16035 1.66797 5.0013V15.0013C1.66797 16.8422 3.16035 18.3346 5.0013 18.3346H6.2513C6.71154 18.3346 7.08464 17.9615 7.08464 17.5013C7.08464 17.0411 6.71154 16.668 6.2513 16.668H5.0013C4.08083 16.668 3.33464 15.9218 3.33464 15.0013L3.33464 5.0013C3.33464 4.08083 4.08083 3.33464 5.0013 3.33464H6.2513Z" />
<path d="M18.9239 10.5906C19.2493 10.2651 19.2493 9.73748 18.9239 9.41205L15.5906 6.07871C15.2651 5.75328 14.7375 5.75328 14.412 6.07871C14.0866 6.40415 14.0866 6.93179 14.412 7.25722L16.3228 9.16797L6.66797 9.16797C6.20773 9.16797 5.83464 9.54106 5.83464 10.0013C5.83464 10.4615 6.20773 10.8346 6.66797 10.8346L16.3228 10.8346L14.412 12.7454C14.0866 13.0708 14.0866 13.5985 14.412 13.9239C14.7375 14.2493 15.2651 14.2493 15.5906 13.9239L18.9239 10.5906Z" />
</svg>
