<svg width="60" height="60" viewBox="0 0 60 60" fill="none" xmlns="http://www.w3.org/2000/svg">
<path fill-rule="evenodd" clip-rule="evenodd" d="M57.5 8.57272C57.5 5.1005 54.0478 2.6854 50.786 3.87568L32.5411 10.5334L14.2204 11.966C9.01581 12.373 5 16.7151 5 21.9356V25.5628C5 30.7833 9.01582 35.1253 14.2204 35.5323L15.2519 35.613L17.0112 50.8964C17.4444 54.6592 20.63 57.4992 24.4177 57.4992C28.8856 57.4992 32.3502 53.5962 31.8205 49.1598L30.3438 36.7931L32.5411 36.9649L50.786 43.6227C54.0478 44.813 57.5 42.3979 57.5 38.9257V8.57272ZM14.6102 16.9508L30.5769 15.7023V31.7961L14.6102 30.5475C12.0079 30.3441 10 28.173 10 25.5628V21.9356C10 19.3254 12.0079 17.1543 14.6102 16.9508ZM52.5 38.9257L35.5769 32.7502V14.7482L52.5 8.57272L52.5 38.9257ZM21.9784 50.3246L20.3306 36.0101L25.2608 36.3956L26.8557 49.7527C27.0302 51.2138 25.8892 52.4992 24.4177 52.4992C23.1702 52.4992 22.1211 51.5638 21.9784 50.3246Z" fill="url(#paint0_linear_4908_65411)"/>
<defs>
<linearGradient id="paint0_linear_4908_65411" x1="5" y1="30.5338" x2="68.2072" y2="30.5338" gradientUnits="userSpaceOnUse">
<stop offset="0.2" stop-color="#366CDA"/>
<stop offset="0.535" stop-color="#0EE5CB" stop-opacity="0.32"/>
<stop offset="0.95" stop-color="#1F429E"/>
</linearGradient>
</defs>
</svg>
