<svg width="16" height="16" viewBox="0 0 16 16" fill="none" xmlns="http://www.w3.org/2000/svg">
<g id="vuesax/linear/magic-star">
<g id="vuesax/linear/magic-star_2">
<g id="magic-star">
<g id="Group">
<g id="Group_2">
<path id="Vector" d="M14.1292 7.50142L12.3095 9.25503C12.0597 9.49545 11.89 9.97631 11.9419 10.3204L12.2247 12.3757C12.4086 13.691 11.593 14.2614 10.4145 13.6485L8.41576 12.602C8.08106 12.4276 7.53422 12.437 7.20895 12.6303L5.46005 13.6532C4.07883 14.4593 3.25386 13.8512 3.62156 12.2956L4.13539 10.1224C4.22967 9.72643 4.05524 9.18433 3.75825 8.91563L2.10365 7.42129C0.920422 6.3512 1.25039 5.38011 2.84374 5.25754L4.86135 5.10668C5.23848 5.07839 5.69573 4.78141 5.87015 4.44671L6.9167 2.44798C7.53424 1.27418 8.52889 1.27889 9.12757 2.46212L10.061 4.31003C10.2212 4.62116 10.6266 4.92284 10.9708 4.9747L13.4692 5.38011C14.8174 5.59696 15.1144 6.5539 14.1292 7.50142Z" stroke="#F3B944" stroke-width="0.980764" stroke-linecap="round" stroke-linejoin="round"/>
</g>
</g>
</g>
</g>
</g>
</svg>
