<svg width="20" height="21" viewBox="0 0 20 21" fill="none" xmlns="http://www.w3.org/2000/svg">
<g id="icon / map-marker">
<g id="icon">
<path fill-rule="evenodd" clip-rule="evenodd" d="M9.99964 5.08294C7.92857 5.08294 6.24964 6.76187 6.24964 8.83294C6.24964 10.904 7.92857 12.5829 9.99964 12.5829C12.0707 12.5829 13.7496 10.904 13.7496 8.83294C13.7496 6.76187 12.0707 5.08294 9.99964 5.08294ZM7.91631 8.83294C7.91631 7.68235 8.84905 6.74961 9.99964 6.74961C11.1502 6.74961 12.083 7.68235 12.083 8.83294C12.083 9.98353 11.1502 10.9163 9.99964 10.9163C8.84905 10.9163 7.91631 9.98353 7.91631 8.83294Z" fill="#2D59C8"/>
<path fill-rule="evenodd" clip-rule="evenodd" d="M6.50734 3.49293C8.62211 2.08309 11.3772 2.08309 13.4919 3.49293C16.351 5.39898 17.1537 9.24545 15.2956 12.1359L12.1026 17.1027C11.1185 18.6335 8.88078 18.6335 7.89669 17.1027L4.70372 12.1359C2.84558 9.24545 3.64826 5.39898 6.50734 3.49293ZM7.43184 4.87968C8.98677 3.84306 11.0125 3.84306 12.5674 4.87968C14.6696 6.28115 15.2598 9.10936 13.8936 11.2346L10.7006 16.2015C10.3726 16.7117 9.62669 16.7117 9.29866 16.2015L6.10569 11.2346C4.73944 9.10936 5.32963 6.28115 7.43184 4.87968Z" fill="#2D59C8"/>
</g>
</g>
</svg>
