<svg width="20" height="21" viewBox="0 0 20 21" xmlns="http://www.w3.org/2000/svg">
<g id="icon / map">
<path id="icon" fill-rule="evenodd" clip-rule="evenodd" d="M4.99935 2.16663C3.1584 2.16663 1.66602 3.65901 1.66602 5.49996V15.5C1.66602 17.3409 3.1584 18.8333 4.99935 18.8333H14.9993C16.8403 18.8333 18.3327 17.3409 18.3327 15.5V5.49996C18.3327 3.65901 16.8403 2.16663 14.9993 2.16663H4.99935ZM3.33268 5.49996C3.33268 4.57948 4.07887 3.83329 4.99935 3.83329H14.9993C15.9198 3.83329 16.666 4.57948 16.666 5.49996V5.87858L7.97055 11.474L3.33268 5.62628V5.49996ZM9.01128 12.7863L16.666 7.86049V15.5C16.666 16.4204 15.9198 17.1666 14.9993 17.1666H12.4854L9.01128 12.7863ZM10.3582 17.1666H4.99935C4.07887 17.1666 3.33268 16.4204 3.33268 15.5V8.30842L10.3582 17.1666Z"/>
</g>
</svg>
