<svg width="16" height="17" viewBox="0 0 16 17" fill="none" xmlns="http://www.w3.org/2000/svg">
<g id="icon / media">
<g id="icon">
<path fill-rule="evenodd" clip-rule="evenodd" d="M7.26328 5.7188C6.37674 5.27553 5.33366 5.9202 5.33366 6.91137V10.0873C5.33366 11.0785 6.37674 11.7232 7.26328 11.2799L10.4392 9.69192C11.422 9.20055 11.422 7.79815 10.4392 7.30678L7.26328 5.7188ZM6.66699 6.91137L9.84295 8.49935L6.66699 10.0873V6.91137Z" fill="#2B49A2"/>
<path fill-rule="evenodd" clip-rule="evenodd" d="M3.33366 2.16602C1.8609 2.16602 0.666992 3.35992 0.666992 4.83268V12.166C0.666992 13.6388 1.8609 14.8327 3.33366 14.8327H12.667C14.1398 14.8327 15.3337 13.6388 15.3337 12.166V4.83268C15.3337 3.35992 14.1398 2.16602 12.667 2.16602H3.33366ZM2.00033 4.83268C2.00033 4.0963 2.59728 3.49935 3.33366 3.49935H12.667C13.4034 3.49935 14.0003 4.0963 14.0003 4.83268V12.166C14.0003 12.9024 13.4034 13.4993 12.667 13.4993H3.33366C2.59728 13.4993 2.00033 12.9024 2.00033 12.166V4.83268Z" fill="#2B49A2"/>
</g>
</g>
</svg>
