<svg width="33" height="32" viewBox="0 0 33 32" fill="none" xmlns="http://www.w3.org/2000/svg">
<path d="M29.7389 9.01331L25.2455 27.0533C24.9255 28.4 23.7256 29.3333 22.3389 29.3333H4.81887C2.80554 29.3333 1.36556 27.3599 1.96556 25.4266L7.57888 7.40002C7.96555 6.14669 9.12557 5.27991 10.4322 5.27991H26.8322C28.0989 5.27991 29.1522 6.05325 29.5922 7.11991C29.8456 7.69325 29.8989 8.34664 29.7389 9.01331Z" stroke="#2D59C8" stroke-width="2" stroke-miterlimit="10"/>
<path d="M21.834 29.3333H28.2073C29.9273 29.3333 31.274 27.88 31.154 26.16L29.834 8" stroke="#2D59C8" stroke-width="2" stroke-miterlimit="10" stroke-linecap="round" stroke-linejoin="round"/>
<path d="M13.4062 8.50663L14.7929 2.7467" stroke="#2D59C8" stroke-width="2" stroke-miterlimit="10" stroke-linecap="round" stroke-linejoin="round"/>
<path d="M22.3418 8.52002L23.5951 2.7334" stroke="#2D59C8" stroke-width="2" stroke-miterlimit="10" stroke-linecap="round" stroke-linejoin="round"/>
<path d="M10.7656 16H21.4323" stroke="#2D59C8" stroke-width="2" stroke-miterlimit="10" stroke-linecap="round" stroke-linejoin="round"/>
<path d="M9.43164 21.3334H20.0983" stroke="#2D59C8" stroke-width="2" stroke-miterlimit="10" stroke-linecap="round" stroke-linejoin="round"/>
</svg>
