<svg width="20" height="21" viewBox="0 0 20 21" xmlns="http://www.w3.org/2000/svg">
<g id="icon / message-alt">
<g id="icon">
<path d="M4.99992 8.83301C4.99992 8.37277 5.37301 7.99967 5.83325 7.99967H9.99992C10.4602 7.99967 10.8333 8.37277 10.8333 8.83301C10.8333 9.29324 10.4602 9.66634 9.99992 9.66634H5.83325C5.37301 9.66634 4.99992 9.29324 4.99992 8.83301Z"/>
<path d="M5.83325 11.333C5.37301 11.333 4.99992 11.7061 4.99992 12.1663C4.99992 12.6266 5.37301 12.9997 5.83325 12.9997H13.3333C13.7935 12.9997 14.1666 12.6266 14.1666 12.1663C14.1666 11.7061 13.7935 11.333 13.3333 11.333H5.83325Z"/>
<path fill-rule="evenodd" clip-rule="evenodd" d="M0.833252 13.833C0.833252 15.674 2.32564 17.1663 4.16659 17.1663H14.1666C16.0075 17.1663 17.4999 15.674 17.4999 13.833V8.24692C17.4999 7.95687 17.5756 7.67185 17.7195 7.42002L18.3443 6.32657C18.9792 5.21548 18.177 3.83301 16.8973 3.83301H4.16658C2.32564 3.83301 0.833252 5.32539 0.833252 7.16634V13.833ZM4.16659 15.4997C3.24611 15.4997 2.49992 14.7535 2.49992 13.833V7.16634C2.49992 6.24587 3.24611 5.49967 4.16658 5.49967H16.8973L16.2724 6.59312C15.9846 7.09678 15.8333 7.66683 15.8333 8.24692V13.833C15.8333 14.7535 15.0871 15.4997 14.1666 15.4997H4.16659Z"/>
</g>
</g>
</svg>
