<svg width="16" height="17" viewBox="0 0 16 17" xmlns="http://www.w3.org/2000/svg">
<g id="icon / microphone">
<g id="icon">
<path d="M6.66685 5.83398C7.03504 5.83398 7.33351 6.13246 7.33351 6.50065V9.16732C7.33351 9.53551 7.03504 9.83398 6.66685 9.83398C6.29866 9.83398 6.00018 9.53551 6.00018 9.16732V6.50065C6.00018 6.13246 6.29866 5.83398 6.66685 5.83398Z" />
<path d="M10.0002 6.50065C10.0002 6.13246 9.7017 5.83398 9.33351 5.83398C8.96532 5.83398 8.66685 6.13246 8.66685 6.50065V9.16732C8.66685 9.53551 8.96532 9.83398 9.33351 9.83398C9.7017 9.83398 10.0002 9.53551 10.0002 9.16732V6.50065Z" />
<path fill-rule="evenodd" clip-rule="evenodd" d="M8.00018 1.83398C5.42285 1.83398 3.33351 3.92332 3.33351 6.50065V9.16732C3.33351 11.7446 5.42285 13.834 8.00018 13.834C10.5775 13.834 12.6668 11.7446 12.6668 9.16732V6.50065C12.6668 3.92332 10.5775 1.83398 8.00018 1.83398ZM4.66685 6.50065C4.66685 4.6597 6.15923 3.16732 8.00018 3.16732C9.84113 3.16732 11.3335 4.6597 11.3335 6.50065V9.16732C11.3335 11.0083 9.84113 12.5007 8.00018 12.5007C6.15923 12.5007 4.66685 11.0083 4.66685 9.16732V6.50065Z" />
<path d="M3.2993 10.9565C3.18287 10.6072 2.80532 10.4184 2.45603 10.5349C2.10673 10.6513 1.91796 11.0288 2.03439 11.3781C3.94546 17.1113 12.0549 17.1113 13.966 11.3781C14.0824 11.0288 13.8936 10.6513 13.5443 10.5349C13.195 10.4184 12.8175 10.6072 12.7011 10.9565C11.1952 15.4741 4.80517 15.4741 3.2993 10.9565Z" />
</g>
</g>
</svg>
