<svg width="40" height="40" viewBox="0 0 40 40" fill="none" xmlns="http://www.w3.org/2000/svg">
<path d="M36.101 17.4008L34.4676 24.3675C33.0676 30.3842 30.301 32.8175 25.101 32.3175C24.2676 32.2508 23.3676 32.1008 22.401 31.8675L19.601 31.2008C12.651 29.5508 10.501 26.1175 12.1343 19.1508L13.7676 12.1675C14.101 10.7508 14.501 9.51749 15.001 8.50083C16.951 4.46749 20.2676 3.38416 25.8343 4.70083L28.6176 5.35083C35.601 6.98416 37.7343 10.4342 36.101 17.4008Z" stroke="#F3B944" stroke-width="2" stroke-linecap="round" stroke-linejoin="round"/>
<path d="M25.1006 32.3167C24.0672 33.0167 22.7672 33.6 21.1839 34.1167L18.5506 34.9833C11.9339 37.1167 8.45057 35.3333 6.30057 28.7167L4.16724 22.1333C2.0339 15.5167 3.80057 12.0167 10.4172 9.88333L13.0506 9.01667C13.7339 8.8 14.3839 8.61667 15.0006 8.5C14.5006 9.51667 14.1006 10.75 13.7672 12.1667L12.1339 19.15C10.5006 26.1167 12.6506 29.55 19.6006 31.2L22.4006 31.8667C23.3672 32.1 24.2672 32.25 25.1006 32.3167Z" stroke="#F3B944" stroke-width="2" stroke-linecap="round" stroke-linejoin="round"/>
<path d="M21.0664 14.2168L29.1497 16.2668" stroke="#F3B944" stroke-width="2" stroke-linecap="round" stroke-linejoin="round"/>
<path d="M19.4336 20.666L24.2669 21.8994" stroke="#F3B944" stroke-width="2" stroke-linecap="round" stroke-linejoin="round"/>
</svg>
