<svg width="35" height="53" viewBox="0 0 35 53" fill="none" xmlns="http://www.w3.org/2000/svg">
<path fill-rule="evenodd" clip-rule="evenodd" d="M32.4453 0.394026C33.3592 1.06587 33.5641 2.36338 32.903 3.29211L3.6954 44.3212C3.03426 45.2499 1.75743 45.4581 0.843504 44.7863C-0.070418 44.1145 -0.275342 42.8169 0.385793 41.8882L29.5934 0.85915C30.2545 -0.0695737 31.5313 -0.277817 32.4453 0.394026Z" fill="#EA8616"/>
<path fill-rule="evenodd" clip-rule="evenodd" d="M34.3685 26.6467C35.1831 27.4437 35.2085 28.7618 34.4252 29.5908L12.9081 52.3609C12.1248 53.1898 10.8294 53.2156 10.0147 52.4186C9.20007 51.6215 9.17467 50.3034 9.95798 49.4745L31.4751 26.7044C32.2584 25.8755 33.5538 25.8497 34.3685 26.6467Z" fill="#EA8616"/>
</svg>
