<svg width="20" height="20" viewBox="0 0 20 20" fill="none" xmlns="http://www.w3.org/2000/svg">
<path fill-rule="evenodd" clip-rule="evenodd" d="M4.37533 2.83398C2.53438 2.83398 1.04199 4.32637 1.04199 6.16732V11.834C1.04199 13.6749 2.53438 15.1673 4.37533 15.1673H7.70867V15.5007H6.2503C5.79006 15.5007 5.41696 15.8738 5.41696 16.334C5.41696 16.7942 5.79006 17.1673 6.2503 17.1673H10.8336C11.2939 17.1673 11.667 16.7942 11.667 16.334C11.667 15.8738 11.2939 15.5007 10.8336 15.5007H9.37534V15.1673H11.7933C11.7187 15.3251 11.6694 15.504 11.6671 15.7009C11.6635 16.0074 11.775 16.2663 11.9211 16.4625C12.1836 16.8149 12.5915 17.015 12.901 17.1335C13.5607 17.3861 14.4115 17.5007 15.0003 17.5007C15.5892 17.5007 16.44 17.3861 17.0996 17.1335C17.4091 17.015 17.8171 16.8149 18.0795 16.4625C18.2256 16.2663 18.3372 16.0074 18.3336 15.7009C18.33 15.3999 18.2166 15.1408 18.0709 14.9354C17.5941 14.2629 16.7235 13.5965 15.6543 13.3953C15.6746 13.357 15.6943 13.3182 15.7131 13.279C15.722 13.2607 15.73 13.2422 15.7374 13.2236C16.7584 12.9091 17.5003 11.9582 17.5003 10.8341C17.5003 9.82511 16.9026 8.95575 16.042 8.56075V6.16732C16.042 4.32637 14.5496 2.83398 12.7087 2.83398H4.37533ZM12.5003 10.8341C12.5003 11.7985 13.0464 12.6353 13.8462 13.0523C13.5479 13.3309 13.1478 13.5007 12.7087 13.5007H4.37533C3.45485 13.5007 2.70866 12.7545 2.70866 11.834V6.16732C2.70866 5.24684 3.45485 4.50065 4.37533 4.50065H12.7087C13.6291 4.50065 14.3753 5.24684 14.3753 6.16732V8.41283C13.2971 8.69035 12.5003 9.66917 12.5003 10.8341ZM15.0003 10.0007C14.5401 10.0007 14.167 10.3738 14.167 10.8341C14.167 11.2943 14.5401 11.6674 15.0003 11.6674C15.4606 11.6674 15.8337 11.2943 15.8337 10.8341C15.8337 10.3738 15.4606 10.0007 15.0003 10.0007ZM13.5562 15.5988C13.9821 15.7491 14.5848 15.8341 15.0003 15.8341C15.4158 15.8341 16.0185 15.7491 16.4444 15.5988C16.0878 15.2691 15.5628 15.0007 15.0003 15.0007C14.4378 15.0007 13.9129 15.2691 13.5562 15.5988Z" fill="#2B49A2"/>
</svg>
