<svg width="39" height="38" viewBox="0 0 39 38" fill="none" xmlns="http://www.w3.org/2000/svg">
<path d="M28.999 11.336C28.904 11.3202 28.7932 11.3202 28.6982 11.336C26.5132 11.2569 24.7715 9.46769 24.7715 7.25102C24.7715 4.98685 26.5923 3.16602 28.8565 3.16602C31.1206 3.16602 32.9415 5.00269 32.9415 7.25102C32.9256 9.46769 31.184 11.2569 28.999 11.336Z" stroke="#2D59C8" stroke-width="2.85" stroke-linecap="round" stroke-linejoin="round"/>
<path d="M27.3678 22.8629C29.537 23.2271 31.9278 22.8471 33.6062 21.7229C35.8387 20.2346 35.8387 17.7963 33.6062 16.3079C31.912 15.1838 29.4895 14.8038 27.3203 15.1838" stroke="#2D59C8" stroke-width="2.85" stroke-linecap="round" stroke-linejoin="round"/>
<path d="M9.95031 11.336C10.0453 11.3202 10.1561 11.3202 10.2511 11.336C12.4361 11.2569 14.1778 9.46769 14.1778 7.25102C14.1778 4.98685 12.357 3.16602 10.0928 3.16602C7.82865 3.16602 6.00781 5.00269 6.00781 7.25102C6.02365 9.46769 7.76532 11.2569 9.95031 11.336Z" stroke="#2D59C8" stroke-width="2.85" stroke-linecap="round" stroke-linejoin="round"/>
<path d="M11.5826 22.8629C9.41346 23.2271 7.02263 22.8471 5.3443 21.7229C3.1118 20.2346 3.1118 17.7963 5.3443 16.3079C7.03846 15.1838 9.46096 14.8038 11.6301 15.1838" stroke="#2D59C8" stroke-width="2.85" stroke-linecap="round" stroke-linejoin="round"/>
<path d="M19.499 23.1632C19.404 23.1473 19.2932 23.1473 19.1982 23.1632C17.0132 23.084 15.2715 21.2948 15.2715 19.0782C15.2715 16.814 17.0923 14.9932 19.3565 14.9932C21.6206 14.9932 23.4415 16.8298 23.4415 19.0782C23.4257 21.2948 21.684 23.0998 19.499 23.1632Z" stroke="#2D59C8" stroke-width="2.85" stroke-linecap="round" stroke-linejoin="round"/>
<path d="M14.8931 28.1504C12.6606 29.6387 12.6606 32.077 14.8931 33.5653C17.4265 35.2595 21.5748 35.2595 24.1081 33.5653C26.3406 32.077 26.3406 29.6387 24.1081 28.1504C21.5906 26.472 17.4265 26.472 14.8931 28.1504Z" stroke="#2D59C8" stroke-width="2.85" stroke-linecap="round" stroke-linejoin="round"/>
</svg>
