<svg width="20" height="21" viewBox="0 0 20 21" fill="none" xmlns="http://www.w3.org/2000/svg">
<g id="vuesax/linear/percentage-square">
<path id="Vector" d="M7.50008 2.16699H12.5001C16.6667 2.16699 18.3334 3.83366 18.3334 8.00033V13.0003C18.3334 17.167 16.6667 18.8337 12.5001 18.8337H7.50008C3.33341 18.8337 1.66675 17.167 1.66675 13.0003V8.00033C1.66675 3.83366 3.33341 2.16699 7.50008 2.16699Z" stroke="#2D59C8" stroke-width="1.5" stroke-linecap="round" stroke-linejoin="round"/>
<path id="Vector_2" d="M7.1416 13.2254L12.5916 7.77539" stroke="#2D59C8" stroke-width="1.5" stroke-linecap="round" stroke-linejoin="round"/>
<path id="Vector_3" d="M7.48326 9.14179C8.04935 9.14179 8.50824 8.6829 8.50824 8.11681C8.50824 7.55071 8.04935 7.0918 7.48326 7.0918C6.91717 7.0918 6.45825 7.55071 6.45825 8.11681C6.45825 8.6829 6.91717 9.14179 7.48326 9.14179Z" stroke="#2D59C8" stroke-width="1.5" stroke-linecap="round" stroke-linejoin="round"/>
<path id="Vector_4" d="M12.9334 13.9084C13.4995 13.9084 13.9584 13.4495 13.9584 12.8834C13.9584 12.3173 13.4995 11.8584 12.9334 11.8584C12.3673 11.8584 11.9084 12.3173 11.9084 12.8834C11.9084 13.4495 12.3673 13.9084 12.9334 13.9084Z" stroke="#2D59C8" stroke-width="1.5" stroke-linecap="round" stroke-linejoin="round"/>
</g>
</svg>
