<svg width="24" height="24" viewBox="0 0 24 24" xmlns="http://www.w3.org/2000/svg">
<g id="vuesax/bold/percentage-square">
<g id="percentage-square">
<path id="Vector" d="M15.771 3H8.229C4.953 3 3 4.953 3 8.229V15.762C3 19.047 4.953 21 8.229 21H15.762C19.038 21 20.991 19.047 20.991 15.771V8.229C21 4.953 19.047 3 15.771 3ZM8.175 9.426C8.175 8.697 8.769 8.094 9.507 8.094C10.236 8.094 10.839 8.688 10.839 9.426C10.839 10.155 10.245 10.758 9.507 10.758C8.769 10.749 8.175 10.155 8.175 9.426ZM9.138 15.618C8.967 15.618 8.796 15.555 8.661 15.42C8.4 15.159 8.4 14.736 8.661 14.466L14.556 8.571C14.817 8.31 15.249 8.31 15.51 8.571C15.771 8.832 15.771 9.264 15.51 9.525L9.615 15.42C9.48 15.555 9.309 15.618 9.138 15.618ZM15.393 15.906C14.664 15.906 14.061 15.312 14.061 14.574C14.061 13.845 14.655 13.242 15.393 13.242C16.122 13.242 16.725 13.836 16.725 14.574C16.725 15.312 16.131 15.906 15.393 15.906Z"/>
</g>
</g>
</svg>
