<svg width="24" height="25" viewBox="0 0 24 25" fill="none" xmlns="http://www.w3.org/2000/svg">
<g id="pinterest">
<path id="bg" d="M20.25 0.5H3.75C1.67893 0.5 0 2.17893 0 4.25V20.75C0 22.8211 1.67893 24.5 3.75 24.5H20.25C22.3211 24.5 24 22.8211 24 20.75V4.25C24 2.17893 22.3211 0.5 20.25 0.5Z" fill="#E60023"/>
<path id="pinterest_2" d="M12 6.5C8.7 6.5 6 9.2 6 12.5C6 14.975 7.5 17.075 9.6 17.975C9.6 17.525 9.6 17.075 9.675 16.625C9.825 16.1 10.425 13.325 10.425 13.325C10.425 13.325 10.2 12.95 10.2 12.35C10.2 11.45 10.725 10.775 11.325 10.775C11.85 10.775 12.15 11.15 12.15 11.675C12.15 12.2 11.775 13.025 11.625 13.775C11.475 14.375 11.925 14.9 12.6 14.9C13.725 14.9 14.475 13.475 14.475 11.675C14.475 10.325 13.575 9.35 12 9.35C10.2 9.35 9.075 10.7 9.075 12.2C9.075 12.725 9.225 13.1 9.45 13.4C9.525 13.55 9.6 13.55 9.525 13.7C9.525 13.775 9.45 14.075 9.375 14.15C9.3 14.3 9.225 14.375 9.075 14.3C8.25 13.925 7.875 13.025 7.875 11.975C7.875 10.25 9.3 8.225 12.15 8.225C14.475 8.225 15.975 9.875 15.975 11.675C15.975 14 14.7 15.8 12.75 15.8C12.075 15.8 11.475 15.425 11.25 15.05C11.25 15.05 10.875 16.4 10.8 16.7C10.65 17.15 10.425 17.6 10.2 17.975C10.725 18.125 11.325 18.2 11.925 18.2C15.225 18.2 17.925 15.5 17.925 12.2C18 9.2 15.3 6.5 12 6.5Z" fill="white"/>
</g>
</svg>
