<svg width="32" height="32" viewBox="0 0 32 32" fill="none" xmlns="http://www.w3.org/2000/svg">
<path d="M16.1862 13.5259C16.5625 13.2436 16.6528 12.7166 16.3919 12.3251C16.0816 11.8597 15.4231 11.7945 15.0276 12.1901L14.2755 12.9422C13.7548 13.4629 12.9106 13.4629 12.3899 12.9422C11.8692 12.4215 11.8692 11.5772 12.3899 11.0565L13.142 10.3044C14.7274 8.71901 17.3669 8.98037 18.6107 10.8459C19.6567 12.4149 19.2947 14.5278 17.7862 15.6592L17.7214 15.7078C17.4767 15.8913 17.3327 16.1794 17.3327 16.4853L17.3327 16.666C17.3327 17.4024 16.7357 17.9994 15.9993 17.9993C15.263 17.9993 14.666 17.4024 14.666 16.666L14.666 16.4853C14.666 15.34 15.2052 14.2616 16.1214 13.5744L16.1862 13.5259Z" fill="#2D59C8"/>
<path d="M14.666 20.666C14.666 21.4024 15.263 21.9993 15.9993 21.9993C16.7357 21.9993 17.3327 21.4024 17.3327 20.666C17.3327 19.9296 16.7357 19.3327 15.9993 19.3327C15.263 19.3327 14.666 19.9296 14.666 20.666Z" fill="#2D59C8"/>
<path fill-rule="evenodd" clip-rule="evenodd" d="M2.66602 15.9993C2.66602 8.63555 8.63555 2.66602 15.9993 2.66602C23.3631 2.66602 29.3327 8.63555 29.3327 15.9993C29.3327 23.3631 23.3631 29.3327 15.9993 29.3327C8.63555 29.3327 2.66602 23.3631 2.66602 15.9993ZM15.9993 5.33268C10.1083 5.33268 5.33268 10.1083 5.33268 15.9993C5.33268 21.8904 10.1083 26.666 15.9993 26.666C21.8904 26.666 26.666 21.8904 26.666 15.9993C26.666 10.1083 21.8904 5.33268 15.9993 5.33268Z" fill="#2D59C8"/>
</svg>
