<svg width="49" height="49" viewBox="0 0 49 49"  xmlns="http://www.w3.org/2000/svg">
<path d="M35.1661 3.5H14.166C12.9726 3.5 11.828 3.97411 10.984 4.81802C10.1401 5.66194 9.66602 6.80654 9.66602 8.00001V41.0001C9.66602 42.1936 10.1401 43.3382 10.984 44.1821C11.828 45.026 12.9726 45.5001 14.166 45.5001H35.1661C36.3596 45.5001 37.5042 45.026 38.3481 44.1821C39.192 43.3382 39.6661 42.1936 39.6661 41.0001V8.00001C39.6661 6.80654 39.192 5.66194 38.3481 4.81802C37.5042 3.97411 36.3596 3.5 35.1661 3.5ZM14.166 6.50001H35.1661C35.5639 6.50001 35.9454 6.65804 36.2268 6.93935C36.5081 7.22066 36.6661 7.60219 36.6661 8.00001V26.0001H12.666V8.00001C12.666 7.60219 12.8241 7.22066 13.1054 6.93935C13.3867 6.65804 13.7682 6.50001 14.166 6.50001ZM35.1661 42.5001H14.166C13.7682 42.5001 13.3867 42.3421 13.1054 42.0608C12.8241 41.7795 12.666 41.3979 12.666 41.0001V29.0001H36.6661V41.0001C36.6661 41.3979 36.5081 41.7795 36.2268 42.0608C35.9454 42.3421 35.5639 42.5001 35.1661 42.5001Z"/>
<path d="M33.2305 32.4359C33.0911 32.2953 32.9252 32.1837 32.7424 32.1075C32.5596 32.0314 32.3635 31.9922 32.1655 31.9922C31.9675 31.9922 31.7714 32.0314 31.5886 32.1075C31.4059 32.1837 31.24 32.2953 31.1005 32.4359L29.9455 33.6059L28.7905 32.4359C28.508 32.1534 28.125 31.9947 27.7255 31.9947C27.326 31.9947 26.943 32.1534 26.6605 32.4359C26.378 32.7183 26.2194 33.1014 26.2194 33.5009C26.2194 33.9003 26.378 34.2834 26.6605 34.5659L27.8305 35.7209L26.6605 36.8759C26.5199 37.0153 26.4083 37.1812 26.3322 37.364C26.256 37.5468 26.2168 37.7429 26.2168 37.9409C26.2168 38.1389 26.256 38.335 26.3322 38.5178C26.4083 38.7006 26.5199 38.8665 26.6605 39.0059C26.919 39.2945 27.2791 39.4719 27.6655 39.5009C27.8629 39.502 28.0586 39.4642 28.2414 39.3896C28.4241 39.3149 28.5903 39.2049 28.7305 39.0659L29.8855 37.8959L31.0405 39.0659C31.18 39.2065 31.3459 39.3181 31.5286 39.3942C31.7114 39.4704 31.9075 39.5096 32.1055 39.5096C32.3035 39.5096 32.4996 39.4704 32.6824 39.3942C32.8652 39.3181 33.0311 39.2065 33.1705 39.0659C33.3111 38.9265 33.4227 38.7606 33.4989 38.5778C33.575 38.395 33.6142 38.1989 33.6142 38.0009C33.6142 37.8029 33.575 37.6068 33.4989 37.424C33.4227 37.2412 33.3111 37.0753 33.1705 36.9359L32.0005 35.7809L33.1705 34.6259C33.3243 34.4897 33.4485 34.3234 33.5354 34.1373C33.6222 33.9512 33.67 33.7492 33.6756 33.5439C33.6812 33.3386 33.6446 33.1343 33.5681 32.9437C33.4915 32.7531 33.3766 32.5803 33.2305 32.4359Z"/>
<path d="M20.4221 32.6737L18.8471 34.9987L18.5021 34.3087C18.3068 33.9841 17.996 33.7455 17.632 33.6407C17.2681 33.5358 16.878 33.5725 16.54 33.7434C16.202 33.9143 15.9411 34.2067 15.8098 34.562C15.6785 34.9173 15.6865 35.309 15.8321 35.6587L17.3321 38.6587C17.4494 38.893 17.6262 39.0924 17.8446 39.2371C18.063 39.3819 18.3156 39.4669 18.5771 39.4837H18.6671C18.9141 39.4824 19.1571 39.4201 19.3742 39.3024C19.5914 39.1846 19.7762 39.015 19.9121 38.8087L22.9121 34.3087C23.0887 33.9793 23.1361 33.5959 23.0449 33.2334C22.9536 32.871 22.7304 32.5557 22.4188 32.3492C22.1073 32.1428 21.7299 32.0601 21.3605 32.1173C20.9912 32.1745 20.6565 32.3676 20.4221 32.6587V32.6737Z"/>
<path d="M17.166 17H21.666C22.0639 17 22.4454 16.842 22.7267 16.5607C23.008 16.2794 23.166 15.8978 23.166 15.5V11C23.166 10.6022 23.008 10.2206 22.7267 9.93934C22.4454 9.65804 22.0639 9.5 21.666 9.5H17.166C16.7682 9.5 16.3867 9.65804 16.1054 9.93934C15.8241 10.2206 15.666 10.6022 15.666 11V15.5C15.666 15.8978 15.8241 16.2794 16.1054 16.5607C16.3867 16.842 16.7682 17 17.166 17ZM18.666 12.5H20.166V14H18.666V12.5Z"/>
<path d="M17.166 23H32.1661C32.5639 23 32.9454 22.842 33.2267 22.5607C33.508 22.2794 33.6661 21.8978 33.6661 21.5C33.6661 21.1022 33.508 20.7206 33.2267 20.4393C32.9454 20.158 32.5639 20 32.1661 20H17.166C16.7682 20 16.3867 20.158 16.1054 20.4393C15.8241 20.7206 15.666 21.1022 15.666 21.5C15.666 21.8978 15.8241 22.2794 16.1054 22.5607C16.3867 22.842 16.7682 23 17.166 23Z"/>
<path d="M27.666 12.5H32.166C32.5639 12.5 32.9454 12.342 33.2267 12.0607C33.508 11.7794 33.666 11.3978 33.666 11C33.666 10.6022 33.508 10.2206 33.2267 9.93934C32.9454 9.65804 32.5639 9.5 32.166 9.5H27.666C27.2682 9.5 26.8867 9.65804 26.6054 9.93934C26.3241 10.2206 26.166 10.6022 26.166 11C26.166 11.3978 26.3241 11.7794 26.6054 12.0607C26.8867 12.342 27.2682 12.5 27.666 12.5Z"/>
<path d="M27.666 17H32.166C32.5639 17 32.9454 16.842 33.2267 16.5607C33.508 16.2794 33.666 15.8978 33.666 15.5C33.666 15.1022 33.508 14.7206 33.2267 14.4393C32.9454 14.158 32.5639 14 32.166 14H27.666C27.2682 14 26.8867 14.158 26.6054 14.4393C26.3241 14.7206 26.166 15.1022 26.166 15.5C26.166 15.8978 26.3241 16.2794 26.6054 16.5607C26.8867 16.842 27.2682 17 27.666 17Z"/>
</svg>
