<svg width="16" height="17" viewBox="0 0 16 17" fill="none" xmlns="http://www.w3.org/2000/svg">
<g id="vuesax/linear/ranking">
<g id="ranking">
<g id="Group">
<path id="Vector" d="M8.86631 5.90641L9.74632 7.66641C9.86632 7.90641 10.1863 8.1464 10.453 8.1864L12.0463 8.45307C13.0663 8.6264 13.3063 9.35974 12.573 10.0931L11.333 11.3331C11.1263 11.5397 11.0063 11.9464 11.073 12.2397L11.4263 13.7797C11.7063 14.9931 11.0597 15.4664 9.98633 14.8331L8.49298 13.9464C8.21965 13.7864 7.77966 13.7864 7.50633 13.9464L6.01298 14.8331C4.93964 15.4664 4.29298 14.9931 4.57298 13.7797L4.92633 12.2397C4.993 11.9531 4.87299 11.5464 4.66632 11.3331L3.42633 10.0931C2.69299 9.35974 2.93298 8.61973 3.95298 8.45307L5.54632 8.1864C5.81299 8.13974 6.13299 7.90641 6.25299 7.66641L7.13299 5.90641C7.60633 4.95307 8.39298 4.95307 8.86631 5.90641Z" stroke="#2D59C8" stroke-linecap="round" stroke-linejoin="round"/>
</g>
<path id="Vector_2" d="M4 6.49967V1.83301" stroke="#2D59C8" stroke-linecap="round" stroke-linejoin="round"/>
<path id="Vector_3" d="M12 6.49967V1.83301" stroke="#2D59C8" stroke-linecap="round" stroke-linejoin="round"/>
<path id="Vector_4" d="M8 3.16634V1.83301" stroke="#2D59C8" stroke-linecap="round" stroke-linejoin="round"/>
</g>
</g>
</svg>
