<svg width="20" height="20" viewBox="0 0 20 20" xmlns="http://www.w3.org/2000/svg">
<g id="icon / receipt">
<g id="icon">
<path d="M6.66667 5.00065C6.20643 5.00065 5.83333 5.37375 5.83333 5.83398C5.83333 6.29422 6.20643 6.66732 6.66667 6.66732H13.3333C13.7936 6.66732 14.1667 6.29422 14.1667 5.83398C14.1667 5.37375 13.7936 5.00065 13.3333 5.00065H6.66667Z"/>
<path d="M5.83333 10.0007C5.83333 9.54041 6.20643 9.16732 6.66667 9.16732H13.3333C13.7936 9.16732 14.1667 9.54041 14.1667 10.0007C14.1667 10.4609 13.7936 10.834 13.3333 10.834H6.66667C6.20643 10.834 5.83333 10.4609 5.83333 10.0007Z"/>
<path d="M6.66667 13.334C6.20643 13.334 5.83333 13.7071 5.83333 14.1673C5.83333 14.6276 6.20643 15.0006 6.66667 15.0006H8.88889C9.34913 15.0006 9.72222 14.6276 9.72222 14.1673C9.72222 13.7071 9.34913 13.334 8.88889 13.334H6.66667Z"/>
<path d="M11.1111 13.334C10.6509 13.334 10.2778 13.7071 10.2778 14.1673C10.2778 14.6276 10.6509 15.0006 11.1111 15.0006H13.3333C13.7936 15.0006 14.1667 14.6276 14.1667 14.1673C14.1667 13.7071 13.7936 13.334 13.3333 13.334H11.1111Z"/>
<path fill-rule="evenodd" clip-rule="evenodd" d="M12.9015 18.2517C12.9952 18.2751 13.0861 18.3087 13.1724 18.3519C15.1607 19.346 17.5 17.9002 17.5 15.6773V4.16732C17.5 2.32637 16.0076 0.833984 14.1667 0.833984H5.83333C3.99238 0.833984 2.5 2.32637 2.5 4.16732V15.6773C2.5 17.9002 4.83933 19.346 6.82757 18.3519C6.91395 18.3087 7.00479 18.2751 7.09848 18.2517L9.59577 17.6274C9.86117 17.561 10.1388 17.561 10.4042 17.6274L12.9015 18.2517ZM4.16667 4.16732C4.16667 3.24684 4.91286 2.50065 5.83333 2.50065H14.1667C15.0871 2.50065 15.8333 3.24684 15.8333 4.16732V15.6773C15.8333 16.6613 14.7979 17.3012 13.9178 16.8612C13.7226 16.7636 13.5174 16.6877 13.3057 16.6348L10.8085 16.0104C10.2777 15.8777 9.72235 15.8777 9.19155 16.0104L6.69426 16.6348C6.48259 16.6877 6.27736 16.7636 6.08221 16.8612C5.20214 17.3012 4.16667 16.6613 4.16667 15.6773V4.16732Z"/>
</g>
</g>
</svg>
