<svg width="25" height="24" viewBox="0 0 25 24" xmlns="http://www.w3.org/2000/svg">
<path d="M17.5 4C17.5 3.44772 17.9477 3 18.5 3C19.0523 3 19.5 3.44772 19.5 4V7.2C19.5 7.75229 19.0523 8.2 18.5 8.2H15.3884C14.8362 8.2 14.3884 7.75229 14.3884 7.2C14.3884 6.64772 14.8362 6.2 15.3884 6.2H16.0735C14.9881 5.44066 13.681 5 12.2775 5C8.56078 5 5.5 8.10723 5.5 12C5.5 12.5523 5.05229 13 4.5 13C3.94772 13 3.5 12.5523 3.5 12C3.5 7.05622 7.4034 3 12.2775 3C14.2372 3 16.0433 3.65852 17.5 4.76587V4Z"/>
<path d="M7.5 20C7.5 20.5523 7.05228 21 6.5 21C5.94772 21 5.5 20.5523 5.5 20V16.8C5.5 16.2477 5.94772 15.8 6.5 15.8H9.61155C10.1638 15.8 10.6116 16.2477 10.6116 16.8C10.6116 17.3523 10.1638 17.8 9.61155 17.8H8.92654C10.0119 18.5593 11.319 19 12.7225 19C16.4392 19 19.5 15.8928 19.5 12C19.5 11.4477 19.9477 11 20.5 11C21.0523 11 21.5 11.4477 21.5 12C21.5 16.9438 17.5966 21 12.7225 21C10.7628 21 8.95674 20.3415 7.5 19.2341V20Z"/>
</svg>
