<svg width="40" height="40" viewBox="0 0 40 40" fill="none" xmlns="http://www.w3.org/2000/svg">
<path fill-rule="evenodd" clip-rule="evenodd" d="M7.0839 10.7507C7.0839 8.21935 9.13593 6.16732 11.6672 6.16732C14.1985 6.16732 16.2506 8.21935 16.2506 10.7507C16.2506 13.282 14.1985 15.334 11.6672 15.334C9.13593 15.334 7.0839 13.282 7.0839 10.7507ZM11.6672 9.50065C10.9769 9.50065 10.4172 10.0603 10.4172 10.7507C10.4172 11.441 10.9769 12.0007 11.6672 12.0007C12.3576 12.0007 12.9172 11.441 12.9172 10.7507C12.9172 10.0603 12.3576 9.50065 11.6672 9.50065Z" fill="black"/>
<path fill-rule="evenodd" clip-rule="evenodd" d="M24.5339 24.1007C24.5339 21.5694 26.5859 19.5173 29.1172 19.5173C31.6485 19.5173 33.7005 21.5694 33.7005 24.1007C33.7005 26.632 31.6485 28.684 29.1172 28.684C26.5859 28.684 24.5339 26.632 24.5339 24.1007ZM29.1172 22.8507C28.4268 22.8507 27.8672 23.4103 27.8672 24.1007C27.8672 24.791 28.4268 25.3507 29.1172 25.3507C29.8075 25.3507 30.3672 24.791 30.3672 24.1007C30.3672 23.4103 29.8075 22.8507 29.1172 22.8507Z" fill="black"/>
<path fill-rule="evenodd" clip-rule="evenodd" d="M19.4345 15.5058C21.9477 11.4009 20.833 6.0491 16.89 3.28894C13.754 1.09379 9.58014 1.09379 6.44421 3.28894C2.50112 6.0491 1.38643 11.4009 3.89964 15.5058L7.40282 21.2276C7.72789 21.7586 8.12733 22.201 8.57634 22.555C7.97397 23.4538 7.53215 24.5805 7.46155 25.8453C7.3441 27.9495 8.26512 30.1684 10.6003 32.1144C12.9161 34.0442 16.3661 35.2103 19.5686 35.9384C22.8278 36.6795 26.0874 37.0213 28.2231 37.1637C28.543 37.185 28.8478 37.1146 29.1118 36.975C30.7554 36.9741 32.3985 36.1777 33.3731 34.5858L36.8763 28.8639C39.3895 24.759 38.2749 19.4073 34.3318 16.6471C31.1958 14.4519 27.022 14.4519 23.886 16.6471C19.9429 19.4073 18.8282 24.759 21.3414 28.8639L24.1077 33.3822C22.8889 33.2076 21.5946 32.9806 20.3077 32.688C17.2185 31.9857 14.4185 30.9572 12.7343 29.5537C11.0694 28.1664 10.7405 26.9131 10.7897 26.0311C10.8441 25.0561 11.3767 24.218 11.9009 23.7811C11.9688 23.7246 12.031 23.6638 12.0875 23.5995C13.5873 23.4752 15.0393 22.6846 15.9313 21.2277L19.4345 15.5058ZM8.35575 6.01972C10.3439 4.62798 12.9902 4.62798 14.9784 6.01972C17.4784 7.76967 18.1851 11.1627 16.5917 13.7653L13.0885 19.4871C12.4384 20.549 10.8958 20.549 10.2457 19.4871L6.74247 13.7653C5.14909 11.1627 5.85581 7.76968 8.35575 6.01972ZM32.4202 19.3779C30.432 17.9861 27.7858 17.9861 25.7976 19.3779C23.2976 21.1278 22.5909 24.5209 24.1843 27.1234L27.6875 32.8453C28.3376 33.9072 29.8802 33.9072 30.5303 32.8453L34.0335 27.1234C35.6269 24.5209 34.9202 21.1278 32.4202 19.3779Z" fill="black"/>
</svg>
