<svg width="18" height="18" viewBox="0 0 18 18" fill="none" xmlns="http://www.w3.org/2000/svg">
<path fill-rule="evenodd" clip-rule="evenodd" d="M8.16699 0.666016C4.02486 0.666016 0.666992 4.02388 0.666992 8.16602C0.666992 12.3082 4.02486 15.666 8.16699 15.666C9.93784 15.666 11.5653 15.0523 12.8484 14.0259L15.9111 17.0886C16.2365 17.414 16.7641 17.414 17.0896 17.0886C17.415 16.7632 17.415 16.2355 17.0896 15.9101L14.0269 12.8474C15.0533 11.5644 15.667 9.93686 15.667 8.16602C15.667 4.02388 12.3091 0.666016 8.16699 0.666016ZM2.33366 8.16602C2.33366 4.94436 4.94533 2.33268 8.16699 2.33268C11.3887 2.33268 14.0003 4.94436 14.0003 8.16602C14.0003 11.3877 11.3887 13.9993 8.16699 13.9993C4.94533 13.9993 2.33366 11.3877 2.33366 8.16602Z" fill="#878FA4"/>
</svg>
