<svg width="25" height="24" viewBox="0 0 25 24" fill="none" xmlns="http://www.w3.org/2000/svg">
<g clip-path="url(#clip0_10319_56896)">
<path d="M14.983 2.80666C15.888 3.56532 16.3818 4.49914 16.5183 5.66622C16.5305 5.81197 16.5305 5.81197 16.5305 5.99947C16.5723 5.99895 16.6141 5.99843 16.6572 5.99789C17.0543 5.99316 17.4514 5.98961 17.8485 5.98732C18.0526 5.98611 18.2566 5.98447 18.4607 5.98179C18.6582 5.97921 18.8558 5.97783 19.0534 5.97723C19.1281 5.9768 19.2028 5.97597 19.2776 5.97469C19.9874 5.96302 20.6299 6.09171 21.218 6.51509C21.258 6.54361 21.2979 6.57213 21.3391 6.60152C21.7411 6.90534 21.9903 7.24516 22.217 7.6899C22.2329 7.72087 22.2487 7.75183 22.265 7.78374C22.5564 8.37913 22.5561 9.00669 22.4719 9.65279C22.4653 9.70586 22.4586 9.75894 22.4518 9.81362C22.4322 9.96429 22.4115 10.1147 22.3899 10.2651C22.3819 10.3212 22.3819 10.3212 22.3738 10.3785C22.3195 10.7382 22.2464 11.0463 21.968 11.2963C21.7301 11.4675 21.4637 11.5432 21.1711 11.5307C20.8309 11.4671 20.5845 11.3204 20.3831 11.0356C20.1704 10.5991 20.292 10.0869 20.3711 9.62917C20.4379 9.22833 20.4878 8.87278 20.2747 8.51167C20.2336 8.43697 20.2336 8.43697 20.2336 8.34322C20.2027 8.34322 20.1718 8.34322 20.1399 8.34322C20.1399 8.31228 20.1399 8.28134 20.1399 8.24947C19.8485 8.12585 19.5781 8.05074 19.2605 8.04702C19.1995 8.04609 19.1385 8.04516 19.0757 8.0442C19.0101 8.04364 18.9445 8.0431 18.8789 8.04256C18.811 8.04168 18.7432 8.04076 18.6753 8.03981C18.4977 8.03741 18.3201 8.03555 18.1425 8.0338C17.9608 8.03192 17.7792 8.02953 17.5976 8.02718C17.2419 8.02265 16.8862 8.01869 16.5305 8.01509C16.5313 8.04863 16.532 8.08216 16.5328 8.11672C16.5357 8.27034 16.5375 8.42395 16.5393 8.57759C16.5411 8.65672 16.5411 8.65672 16.5429 8.73744C16.546 9.08961 16.5249 9.36891 16.3176 9.66542C16.0666 9.91045 15.8505 10.0125 15.5022 10.0512C15.2136 10.0387 14.9721 9.91293 14.7551 9.72896C14.3107 9.193 14.468 8.80544 14.468 8.01509C13.1686 8.01509 11.8693 8.01509 10.5305 8.01509C10.5305 8.40181 10.5305 8.78853 10.5305 9.18697C10.3958 9.54626 10.3017 9.75478 9.97022 9.94173C9.71666 10.0485 9.46695 10.0791 9.20264 9.99666C8.88434 9.86702 8.6734 9.68355 8.5149 9.37447C8.46503 9.21876 8.46261 9.07523 8.46345 8.91231C8.46367 8.83391 8.46367 8.83391 8.4639 8.75392C8.46449 8.67244 8.46449 8.67244 8.46509 8.58931C8.46531 8.53426 8.46552 8.47922 8.46573 8.4225C8.46629 8.2867 8.46706 8.1509 8.46802 8.01509C8.07804 8.01797 7.68806 8.0216 7.29809 8.02614C7.11698 8.02823 6.93586 8.03007 6.75474 8.03133C6.57966 8.03256 6.40461 8.03446 6.22954 8.03681C6.16304 8.03758 6.09653 8.03812 6.03002 8.03842C5.40343 8.036 5.40343 8.036 4.86451 8.31685C4.59155 8.646 4.5531 8.85631 4.5774 9.28072C4.61062 9.60075 4.66107 9.91878 4.70856 10.2369C4.72268 10.3334 4.73677 10.4298 4.75082 10.5263C4.78893 10.787 4.82751 11.0477 4.8662 11.3084C4.89849 11.5263 4.93056 11.7443 4.96262 11.9623C5.03825 12.4765 5.11426 12.9906 5.19052 13.5047C5.26911 14.0347 5.34714 14.5647 5.42488 15.0947C5.49173 15.5505 5.55891 16.0062 5.62635 16.4619C5.66659 16.7337 5.70672 17.0056 5.74654 17.2776C5.78399 17.5331 5.82184 17.7886 5.86 18.0441C5.87392 18.1377 5.8877 18.2314 5.90132 18.325C5.91998 18.4531 5.93915 18.5811 5.95845 18.7091C5.96369 18.746 5.96894 18.7829 5.97434 18.8208C6.01156 19.0628 6.0795 19.2724 6.17115 19.4995C6.19435 19.5691 6.19435 19.5691 6.21802 19.6401C6.24896 19.6401 6.2799 19.6401 6.31177 19.6401C6.31177 19.671 6.31177 19.702 6.31177 19.7338C6.34561 19.7474 6.37945 19.7609 6.41431 19.7749C6.49554 19.8074 6.57628 19.8411 6.65607 19.877C6.78897 19.9244 6.88801 19.9332 7.02863 19.9334C7.07771 19.9338 7.12679 19.9341 7.17736 19.9344C7.23072 19.9343 7.28408 19.9342 7.33905 19.9341C7.39563 19.9343 7.45222 19.9345 7.51051 19.9348C7.63334 19.9353 7.75615 19.9356 7.87897 19.9356C8.07344 19.9357 8.26791 19.9366 8.46237 19.9375C8.94545 19.9398 9.42854 19.9413 9.91163 19.9423C10.287 19.9431 10.6624 19.9441 11.0378 19.9462C11.2308 19.9472 11.4239 19.9476 11.6169 19.9475C11.7657 19.9476 11.9144 19.9486 12.0632 19.9494C12.1162 19.9492 12.1693 19.949 12.224 19.9488C12.6428 19.9526 12.9587 20.025 13.274 20.3145C13.4592 20.5173 13.5218 20.7455 13.5422 21.0112C13.5193 21.3555 13.4049 21.5723 13.1652 21.8178C12.8347 22.0488 12.5024 22.051 12.1132 22.0489C12.0284 22.0493 12.0284 22.0493 11.9419 22.0497C11.7877 22.0502 11.6335 22.0501 11.4793 22.0496C11.3169 22.0492 11.1546 22.0496 10.9923 22.0498C10.7194 22.0501 10.4466 22.0497 10.1737 22.0491C9.85997 22.0483 9.54627 22.0485 9.23256 22.0493C8.96184 22.05 8.69112 22.05 8.4204 22.0497C8.25934 22.0495 8.09828 22.0494 7.93722 22.0499C6.846 22.0521 5.86733 22.0242 4.99927 21.2807C4.95287 21.2498 4.90646 21.2188 4.85865 21.187C4.85865 21.156 4.85865 21.1251 4.85865 21.0932C4.82771 21.0932 4.79677 21.0932 4.7649 21.0932C4.31475 20.6017 4.08155 20.0481 3.96955 19.3977C3.96157 19.3526 3.95359 19.3074 3.94537 19.2609C3.86424 18.7963 3.79302 18.3303 3.7239 17.8638C3.71003 17.771 3.69615 17.6783 3.68225 17.5855C3.6451 17.3371 3.60816 17.0887 3.5713 16.8403C3.54818 16.6846 3.52502 16.5288 3.50185 16.3731C3.42912 15.8841 3.35651 15.3951 3.28411 14.906C3.20097 14.3444 3.11737 13.7829 3.0334 13.2214C2.96815 12.7849 2.90329 12.3484 2.83872 11.9118C2.8003 11.6521 2.76172 11.3923 2.72272 11.1327C2.68611 10.8888 2.64998 10.6448 2.61422 10.4007C2.60109 10.3117 2.5878 10.2228 2.57431 10.1338C2.41292 9.06794 2.3994 8.13673 3.03052 7.21822C3.5085 6.57458 4.21502 6.15478 4.99927 5.99947C5.11941 5.99181 5.23988 5.98841 5.36027 5.98882C5.39415 5.98881 5.42804 5.9888 5.46296 5.98878C5.57354 5.98885 5.6841 5.98957 5.79468 5.99031C5.87192 5.99049 5.94915 5.99062 6.02639 5.99071C6.22859 5.99107 6.4308 5.99199 6.633 5.99303C6.83977 5.99399 7.04653 5.99442 7.2533 5.99489C7.65821 5.99589 8.06312 5.99749 8.46802 5.99947C8.4678 5.96764 8.46758 5.93581 8.46735 5.90302C8.46709 5.8401 8.46709 5.8401 8.46682 5.77592C8.4666 5.73442 8.46638 5.69293 8.46615 5.65017C8.48221 4.628 9.07963 3.69548 9.78052 2.99947C11.1533 1.69241 13.5165 1.6189 14.983 2.80666ZM10.8958 4.80379C10.6215 5.18755 10.5305 5.53438 10.5305 5.99947C11.8299 5.99947 13.1293 5.99947 14.468 5.99947C14.468 5.44434 14.2826 4.9924 13.9055 4.58589C13.4434 4.1436 12.9395 4.00634 12.3173 4.01772C11.7436 4.04415 11.2583 4.37688 10.8958 4.80379Z" fill="#50545F"/>
<path d="M19.4848 12.7509C20.3339 13.3786 20.8968 14.213 21.1723 15.2352C21.1881 15.2912 21.1881 15.2912 21.2041 15.3482C21.4661 16.4804 21.1828 17.6284 20.6098 18.6102C20.6336 18.6338 20.6575 18.6574 20.682 18.6817C20.7919 18.7906 20.9015 18.8996 21.0112 19.0087C21.0486 19.0458 21.0861 19.0829 21.1248 19.1211C21.3283 19.3238 21.5234 19.53 21.7106 19.748C21.8012 19.8512 21.8987 19.9456 21.9985 20.0399C22.2861 20.3242 22.4853 20.6 22.4994 21.0126C22.4943 21.2964 22.4028 21.494 22.2129 21.7033C21.99 21.9127 21.7958 22.0302 21.481 22.0332C21.0192 22.0067 20.7555 21.7781 20.4457 21.4579C20.3992 21.4106 20.3992 21.4106 20.3518 21.3624C20.1753 21.1819 20.0043 20.9983 19.8415 20.8053C19.7175 20.6645 19.5823 20.535 19.4478 20.4043C19.3273 20.2804 19.2191 20.1503 19.1098 20.0165C19.0621 20.038 19.0143 20.0595 18.9651 20.0817C17.8515 20.5704 16.6732 20.7259 15.5081 20.2977C14.4056 19.8655 13.5526 19.0843 13.0676 18.0003C12.6076 16.9082 12.5945 15.7175 13.0314 14.6162C13.4783 13.5543 14.3043 12.7303 15.3575 12.2732C15.6163 12.171 15.885 12.1063 16.1567 12.0477C16.2115 12.0355 16.2115 12.0355 16.2675 12.023C17.3877 11.8224 18.5533 12.1194 19.4848 12.7509ZM15.3131 14.7467C14.9038 15.2414 14.7101 15.8133 14.7504 16.454C14.8286 17.0837 15.1251 17.6454 15.6127 18.0545C16.1179 18.4143 16.6767 18.5603 17.2905 18.4872C17.9318 18.3737 18.4693 18.0794 18.8553 17.5429C19.2052 16.997 19.3261 16.4213 19.1977 15.7831C19.0484 15.1826 18.7139 14.6945 18.1987 14.3505C17.2507 13.7825 16.0725 13.937 15.3131 14.7467Z" fill="#50545F"/>
</g>
<defs>
<clipPath id="clip0_10319_56896">
<rect width="24" height="24" fill="white" transform="translate(0.5)"/>
</clipPath>
</defs>
</svg>
