<svg width="25" height="24" viewBox="0 0 25 24" fill="none" xmlns="http://www.w3.org/2000/svg">
<g clip-path="url(#clip0_10319_56902)">
<path d="M11.9922 2.11642C12.0401 2.12972 12.088 2.14301 12.1373 2.15671C12.932 2.39946 13.6269 2.82801 14.2188 3.40549C14.2492 3.43303 14.2796 3.46057 14.3109 3.48895C14.8455 3.98661 15.2042 4.6706 15.4419 5.35373C15.4509 5.37895 15.4599 5.40417 15.4692 5.43016C15.6674 6.03703 15.6818 6.66295 15.6796 7.29465C15.6797 7.37778 15.6798 7.46092 15.68 7.54406C15.6801 7.71713 15.6799 7.8902 15.6793 8.06327C15.6787 8.28309 15.6791 8.5029 15.6798 8.72273C15.6802 8.89406 15.68 9.06538 15.6797 9.23671C15.6797 9.31768 15.6798 9.39865 15.68 9.47962C15.6818 10.1248 15.6378 10.748 15.4224 11.362C15.4047 11.4134 15.4047 11.4134 15.3866 11.4658C15.1688 12.0769 14.8207 12.5913 14.4141 13.093C14.5197 13.1634 14.6021 13.2007 14.7205 13.2425C14.759 13.2562 14.7975 13.27 14.8372 13.2841C14.8789 13.2988 14.9207 13.3136 14.9637 13.3287C15.0529 13.3607 15.142 13.3926 15.2312 13.4246C15.371 13.4746 15.5109 13.5245 15.651 13.574C16.8723 14.0062 17.996 14.5612 18.596 15.7802C19.4915 17.7077 18.9844 19.9289 18.9844 21.9992C13.5445 21.9992 8.10469 21.9992 2.5 21.9992C2.5 16.0613 2.5 16.0613 3.55469 14.8508C3.58633 14.8142 3.58633 14.8142 3.61862 14.7768C3.90645 14.4672 4.2783 14.2208 4.65958 14.0425C4.6874 14.0295 4.71523 14.0165 4.7439 14.003C5.1836 13.8028 5.64182 13.6467 6.09619 13.4836C6.19104 13.4493 6.28587 13.415 6.38069 13.3806C6.61045 13.2974 6.84033 13.2146 7.07031 13.132C6.9815 12.9805 6.88361 12.8483 6.77246 12.7121C6.45041 12.3008 6.22903 11.8502 6.05957 11.3571C6.04351 11.3112 6.04351 11.3112 6.02712 11.2643C5.82537 10.6405 5.80253 10.0096 5.80475 9.36008C5.80467 9.27694 5.80456 9.1938 5.80441 9.11066C5.80424 8.93759 5.80448 8.76452 5.80503 8.59145C5.8057 8.37163 5.80532 8.15182 5.80462 7.93199C5.80419 7.76067 5.80433 7.58934 5.80463 7.41801C5.80471 7.33704 5.80462 7.25607 5.80434 7.1751C5.80269 6.5575 5.83273 5.94146 6.04248 5.35373C6.05241 5.32512 6.06234 5.29651 6.07257 5.26703C6.31673 4.58789 6.68784 4.00452 7.1875 3.48361C7.21711 3.45153 7.24672 3.41946 7.27722 3.38641C7.87948 2.75365 8.65676 2.34843 9.49219 2.11642C9.56115 2.09648 9.56115 2.09648 9.6315 2.07614C10.3513 1.90548 11.2808 1.912 11.9922 2.11642ZM8.07861 4.29416C7.46745 4.92883 7.02887 5.82195 7.02637 6.71359C7.02759 6.76975 7.02906 6.82591 7.03125 6.88205C8.60709 7.31978 10.5619 6.9141 11.9653 6.14718C12.6313 5.77022 13.1779 5.2788 13.7109 4.73361C13.4192 4.09827 12.6776 3.66971 12.0599 3.41785C10.6356 2.91574 9.16869 3.25934 8.07861 4.29416ZM14.0771 6.0715C13.8697 6.26671 13.6475 6.43673 13.4173 6.60422C13.2834 6.70216 13.1602 6.79883 13.0469 6.92111C13.3947 7.25236 13.9558 7.62424 14.4531 7.62424C14.4747 6.75733 14.4747 6.75733 14.3359 5.90549C14.2124 5.90549 14.1647 5.98743 14.0771 6.0715ZM11.684 7.57709C11.1417 7.78187 10.6096 7.9502 10.0391 8.05392C10.0056 8.06026 9.97221 8.0666 9.93776 8.07313C9.42734 8.16636 8.92064 8.18131 8.40332 8.18088C8.3731 8.18085 8.34288 8.18083 8.31175 8.18081C7.8838 8.17955 7.45817 8.16114 7.03125 8.13205C7.02825 8.4106 7.02621 8.68914 7.02481 8.96771C7.02423 9.06222 7.02343 9.15674 7.02241 9.25125C7.0108 10.3529 7.17554 11.4091 7.97074 12.2353C8.02186 12.2871 8.07342 12.3385 8.125 12.3899C8.14952 12.4162 8.17404 12.4426 8.19931 12.4698C8.78566 13.0934 9.71076 13.4546 10.5544 13.4923C11.6474 13.5229 12.5822 13.132 13.3794 12.3849C14.0088 11.7765 14.4314 10.8942 14.4576 10.0139C14.4576 9.96082 14.4573 9.90772 14.4569 9.85461C14.4569 9.82639 14.4568 9.79816 14.4568 9.76908C14.4566 9.67995 14.4561 9.59081 14.4556 9.50168C14.4554 9.44082 14.4552 9.37996 14.455 9.31911C14.4546 9.17081 14.4539 9.02253 14.4531 8.87424C14.428 8.86759 14.4029 8.86094 14.377 8.85409C13.4639 8.60923 12.6942 8.2903 12.0369 7.58868C11.9071 7.46221 11.8414 7.51647 11.684 7.57709ZM7.9892 14.0889C7.95657 14.1011 7.92394 14.1132 7.89032 14.1258C7.85658 14.1386 7.82285 14.1515 7.78809 14.1648C7.75405 14.1775 7.72001 14.1902 7.68494 14.2033C7.51179 14.2672 7.51179 14.2672 7.34375 14.343C7.43898 14.6477 7.55766 14.9418 7.6803 15.2363C7.71515 15.3203 7.7494 15.4045 7.78366 15.4888C7.80585 15.5422 7.82808 15.5957 7.85034 15.6491C7.86554 15.6869 7.86554 15.6869 7.88105 15.7255C7.90707 15.7869 7.93759 15.8464 7.96875 15.9055C8.1179 15.9552 8.23362 15.9273 8.38379 15.8982C8.41197 15.8927 8.44014 15.8873 8.46917 15.8817C8.68253 15.8379 8.87241 15.7797 9.0625 15.6711C9.09115 15.6551 9.1198 15.6392 9.14932 15.6227C9.52659 15.393 9.7966 15.0643 9.96094 14.6555C9.96094 14.6426 9.96094 14.6297 9.96094 14.6164C9.91315 14.6059 9.86537 14.5955 9.81613 14.5847C9.30395 14.4674 8.76267 14.3254 8.32031 14.0305C8.18011 14.0305 8.11534 14.0415 7.9892 14.0889ZM12.8857 14.1696C12.465 14.3994 11.9945 14.5316 11.5234 14.6164C11.7262 15.146 12.0593 15.5176 12.5781 15.7492C12.8737 15.8609 13.1607 15.9303 13.4766 15.9445C13.6496 15.5869 13.8091 15.2246 13.9624 14.8581C13.9799 14.8164 13.9975 14.7747 14.0156 14.7317C14.0318 14.6926 14.0481 14.6535 14.0648 14.6132C14.0867 14.5605 14.0867 14.5605 14.1091 14.5067C14.1451 14.4241 14.1451 14.4241 14.1406 14.343C14.0293 14.2979 13.9178 14.2532 13.8062 14.2087C13.7749 14.196 13.7437 14.1833 13.7115 14.1702C13.3947 14.0448 13.1918 13.9896 12.8857 14.1696ZM15.2734 14.7727C15.1713 15.0144 15.0692 15.2562 14.9671 15.4979C14.9324 15.58 14.8977 15.6621 14.8631 15.7441C14.7661 15.9738 14.6691 16.2034 14.5723 16.4332C14.5363 16.5186 14.5 16.6038 14.4637 16.6891C14.4459 16.7312 14.428 16.7733 14.4096 16.8167C14.3876 16.8683 14.3876 16.8683 14.3652 16.921C14.3314 16.9975 14.3314 16.9975 14.3359 17.0774C13.1817 17.1717 12.3192 17.008 11.3281 16.4133C11.3281 17.8699 11.3281 19.3266 11.3281 20.8274C13.468 20.8274 15.6078 20.8274 17.8125 20.8274C18.0546 18.0719 18.0546 18.0719 16.9922 15.632C16.5844 15.2622 15.847 14.7727 15.2734 14.7727ZM4.45312 15.6711C3.17805 16.9758 3.67188 19.3306 3.67188 20.8274C5.81172 20.8274 7.95156 20.8274 10.1562 20.8274C10.1562 19.3707 10.1562 17.9141 10.1562 16.4133C9.97578 16.5164 9.79531 16.6195 9.60938 16.7258C8.7964 17.1105 8.03007 17.1494 7.14844 17.0774C7.14196 17.0568 7.13549 17.0362 7.12882 17.0149C7.05153 16.7755 6.95897 16.5451 6.8602 16.3138C6.84408 16.2758 6.82795 16.2377 6.81134 16.1985C6.76026 16.078 6.70899 15.9576 6.65771 15.8371C6.60634 15.7161 6.555 15.5951 6.50367 15.4741C6.47184 15.3991 6.43997 15.3241 6.40807 15.2491C6.39359 15.2151 6.37912 15.181 6.3642 15.1459C6.35154 15.1162 6.33889 15.0865 6.32585 15.0558C6.2865 14.9619 6.24854 14.8674 6.21094 14.7727C5.62169 14.7727 4.86301 15.2881 4.45312 15.6711Z" fill="#2F3237"/>
<path d="M19.5703 2C19.957 2 20.3438 2 20.7422 2C20.7422 2.38672 20.7422 2.77344 20.7422 3.17188C21.3223 3.17188 21.9023 3.17188 22.5 3.17188C22.5 3.55859 22.5 3.94531 22.5 4.34375C21.3398 4.34375 20.1797 4.34375 18.9844 4.34375C18.9844 4.73047 18.9844 5.11719 18.9844 5.51562C20.1445 5.51562 21.3047 5.51562 22.5 5.51562C22.5 6.67578 22.5 7.83594 22.5 9.03125C21.9199 9.03125 21.3398 9.03125 20.7422 9.03125C20.7422 9.41797 20.7422 9.80469 20.7422 10.2031C20.3555 10.2031 19.9688 10.2031 19.5703 10.2031C19.5703 9.81641 19.5703 9.42969 19.5703 9.03125C18.9902 9.03125 18.4102 9.03125 17.8125 9.03125C17.8125 8.64453 17.8125 8.25781 17.8125 7.85938C18.9727 7.85938 20.1328 7.85938 21.3281 7.85938C21.3281 7.47266 21.3281 7.08594 21.3281 6.6875C20.168 6.6875 19.0078 6.6875 17.8125 6.6875C17.8125 5.52734 17.8125 4.36719 17.8125 3.17188C18.3926 3.17188 18.9727 3.17188 19.5703 3.17188C19.5703 2.78516 19.5703 2.39844 19.5703 2Z" fill="#2F3237"/>
</g>
<defs>
<clipPath id="clip0_10319_56902">
<rect width="20" height="20" fill="white" transform="translate(2.5 2)"/>
</clipPath>
</defs>
</svg>
