<svg width="22" height="20" viewBox="0 0 22 20" fill="none" xmlns="http://www.w3.org/2000/svg">
	<path fill-rule="evenodd" clip-rule="evenodd" d="M11.1117 -0.00195312L4.86478 0.388476C3.37706 0.481459 2.06445 1.39398 1.45905 2.75613L0.913143 3.98443C0.324305 5.30931 0.498482 6.84911 1.36839 8.00898L1.62668 8.35337L1.98251 16.1816C2.07962 18.3179 3.83987 20 5.97838 20H16.2449C18.3834 20 20.1437 18.3179 20.2408 16.1816L20.5901 8.49655C21.5415 7.60721 21.892 6.21988 21.4354 4.96402L20.7229 3.00463C20.1792 1.50945 18.8011 0.478635 17.2132 0.379393L11.1117 -0.00195312ZM3.98045 16.0908L3.67762 9.42869C4.53422 9.52959 5.41836 9.33071 6.16635 8.83205L6.27021 8.76281C6.83496 8.38631 7.55815 8.34128 8.16524 8.64483L9.3228 9.22361C10.4489 9.78666 11.7744 9.78666 12.9005 9.22361L14.0581 8.64483C14.6651 8.34128 15.3883 8.38631 15.9531 8.76281L16.057 8.83205C16.8049 9.33071 17.6891 9.52959 18.5457 9.42869L18.2429 16.0908C18.1943 17.159 17.3142 18 16.2449 18H14.1985L14.4006 15.5744C14.5609 13.6503 13.0425 12 11.1117 12C9.18082 12 7.66237 13.6503 7.82272 15.5744L8.02485 18H5.97838C4.90913 18 4.029 17.159 3.98045 16.0908ZM17.1664 7.16795C17.7388 7.54957 18.4845 7.54957 19.0569 7.16795C19.5538 6.8367 19.7598 6.20871 19.5558 5.6475L18.8433 3.68812C18.5714 2.94053 17.8824 2.42512 17.0884 2.3755L11.1117 2.00195L4.98954 2.38458C4.24568 2.43107 3.58938 2.88733 3.28667 3.56841L2.74077 4.7967C2.44635 5.45915 2.53344 6.22904 2.96839 6.80898L3.29667 7.24669C3.84863 7.54746 4.52705 7.52121 5.05695 7.16795L5.16081 7.09871C6.32274 6.32409 7.81064 6.23146 9.05967 6.85597L10.2172 7.43475C10.7803 7.71628 11.443 7.71628 12.0061 7.43475L13.1636 6.85597C14.4127 6.23146 15.9006 6.32409 17.0625 7.09871L17.1664 7.16795ZM12.4075 15.4083L12.1915 18H10.0318L9.81581 15.4083C9.75263 14.6502 10.3509 14 11.1117 14C11.8724 14 12.4707 14.6502 12.4075 15.4083Z" fill="currentColor" />
</svg>
