<svg width="24" height="24" viewBox="0 0 24 24" xmlns="http://www.w3.org/2000/svg">
<g id="icon / star">
<path id="icon" fill-rule="evenodd" clip-rule="evenodd" d="M14.5791 2.91864C13.3894 1.02712 10.6137 1.02712 9.42401 2.91864L7.49513 5.98539C7.35405 6.2097 7.12778 6.37376 6.86209 6.43861L3.31556 7.30437C1.13781 7.83599 0.257111 10.4618 1.72193 12.1796L4.07635 14.9407C4.24916 15.1434 4.33348 15.4025 4.31448 15.6628L4.05147 19.2646C3.88741 21.5114 6.15567 23.1078 8.22271 22.2769L11.6067 20.9166C11.8597 20.815 12.1434 20.815 12.3964 20.9166L15.7804 22.2769C17.8474 23.1078 20.1157 21.5114 19.9516 19.2646L19.6886 15.6628C19.6696 15.4025 19.754 15.1434 19.9268 14.9407L22.2812 12.1796C23.746 10.4618 22.8653 7.83599 20.6876 7.30437L17.141 6.43861C16.8753 6.37376 16.6491 6.2097 16.508 5.98539L14.5791 2.91864ZM11.117 3.98346C11.5224 3.33885 12.4807 3.33885 12.8861 3.98346L14.815 7.05021C15.2352 7.71821 15.9005 8.19451 16.6667 8.38156L20.2133 9.24731C20.9684 9.43166 21.2416 10.3164 20.7593 10.8819L18.4049 13.643C17.8927 14.2438 17.6364 15.0208 17.6939 15.8084L17.957 19.4103C18.0104 20.1421 17.2578 20.7153 16.5263 20.4212L13.1424 19.061C12.4107 18.7668 11.5924 18.7669 10.8608 19.061L7.47676 20.4212C6.7453 20.7153 5.99272 20.1421 6.04616 19.4103L6.30917 15.8084C6.36668 15.0208 6.11045 14.2438 5.5982 13.643L3.24377 10.8819C2.76152 10.3164 3.03468 9.43166 3.78985 9.24731L7.33639 8.38156C8.10263 8.19451 8.76795 7.71821 9.1881 7.05021L11.117 3.98346Z"/>
</g>
</svg>
