<svg width="40" height="40" viewBox="0 0 40 40" xmlns="http://www.w3.org/2000/svg">
<g id="icon / stopwatch">
<g id="icon">
<path d="M20.833 15.0013C20.833 14.0808 20.0868 13.3346 19.1663 13.3346C18.2459 13.3346 17.4997 14.0808 17.4997 15.0013V23.3346C17.4997 24.2551 18.2459 25.0013 19.1663 25.0013H24.1663C25.0868 25.0013 25.833 24.2551 25.833 23.3346C25.833 22.4142 25.0868 21.668 24.1663 21.668H20.833V15.0013Z" />
<path fill-rule="evenodd" clip-rule="evenodd" d="M14.9997 3.33464C14.9997 2.41416 15.7459 1.66797 16.6663 1.66797H23.333C24.2535 1.66797 24.9997 2.41416 24.9997 3.33464C24.9997 4.25511 24.2535 5.0013 23.333 5.0013H21.6663V6.66797C21.6663 6.69776 21.6656 6.72736 21.664 6.75676C29.3957 7.5867 35.4163 14.1326 35.4163 22.0846C35.4163 30.599 28.5141 37.5013 19.9997 37.5013C11.4853 37.5013 4.58301 30.599 4.58301 22.0846C4.58301 14.1326 10.6037 7.5867 18.3353 6.75676C18.3338 6.72736 18.333 6.69776 18.333 6.66797V5.0013H16.6663C15.7459 5.0013 14.9997 4.25511 14.9997 3.33464ZM19.9997 10.0013C13.3262 10.0013 7.91634 15.4112 7.91634 22.0846C7.91634 28.7581 13.3262 34.168 19.9997 34.168C26.6731 34.168 32.083 28.7581 32.083 22.0846C32.083 15.4112 26.6731 10.0013 19.9997 10.0013Z" />
</g>
</g>
</svg>
