<svg width="24" height="25" viewBox="0 0 24 25" xmlns="http://www.w3.org/2000/svg">
<g id="icon / store">
<path id="icon" fill-rule="evenodd" clip-rule="evenodd" d="M12.0003 2.49805L5.75346 2.88848C4.26573 2.98146 2.95312 3.89398 2.34772 5.25613L1.80181 6.48443C1.21298 7.80931 1.38715 9.34911 2.25706 10.509L2.51535 10.8534L2.87118 18.6816C2.96829 20.8179 4.72854 22.5 6.86706 22.5H17.1336C19.2721 22.5 21.0324 20.8179 21.1295 18.6816L21.4788 10.9965C22.4301 10.1072 22.7807 8.71988 22.324 7.46402L21.6115 5.50463C21.0678 4.00945 19.6897 2.97863 18.1019 2.87939L12.0003 2.49805ZM4.86912 18.5908L4.5663 11.9287C5.42289 12.0296 6.30703 11.8307 7.05502 11.332L7.15889 11.2628C7.72364 10.8863 8.44682 10.8413 9.05391 11.1448L10.2115 11.7236C11.3376 12.2867 12.6631 12.2867 13.7892 11.7236L14.9467 11.1448C15.5538 10.8413 16.277 10.8863 16.8418 11.2628L16.9456 11.332C17.6936 11.8307 18.5778 12.0296 19.4343 11.9287L19.1315 18.5908C19.083 19.659 18.2028 20.5 17.1336 20.5H15.0871L15.2893 18.0744C15.4496 16.1503 13.9311 14.5 12.0003 14.5C10.0695 14.5 8.55104 16.1503 8.71139 18.0744L8.91352 20.5H6.86706C5.7978 20.5 4.91767 19.659 4.86912 18.5908ZM18.055 9.66795C18.6275 10.0496 19.3732 10.0496 19.9456 9.66795C20.4425 9.3367 20.6485 8.70871 20.4444 8.1475L19.7319 6.18812C19.4601 5.44053 18.771 4.92512 17.9771 4.8755L12.0003 4.50195L5.87821 4.88458C5.13435 4.93107 4.47805 5.38733 4.17535 6.06841L3.62944 7.2967C3.33502 7.95915 3.42211 8.72904 3.85706 9.30898L4.18534 9.74669C4.73731 10.0475 5.41572 10.0212 5.94562 9.66795L6.04949 9.59871C7.21141 8.82409 8.69931 8.73146 9.94834 9.35597L11.1059 9.93475C11.669 10.2163 12.3317 10.2163 12.8947 9.93475L14.0523 9.35597C15.3013 8.73146 16.7892 8.82409 17.9512 9.59871L18.055 9.66795ZM13.2962 17.9083L13.0802 20.5H10.9205L10.7045 17.9083C10.6413 17.1502 11.2396 16.5 12.0003 16.5C12.7611 16.5 13.3593 17.1502 13.2962 17.9083Z"/>
</g>
</svg>
