<svg width="56" height="56" viewBox="0 0 56 56" fill="none" xmlns="http://www.w3.org/2000/svg">
<path d="M42.5491 6.85059C38.4142 4.00066 33.4023 2.33203 28.0007 2.33203C13.8253 2.33203 2.33398 13.8234 2.33398 27.9987C2.33398 42.174 13.8253 53.6654 28.0007 53.6654C42.176 53.6654 53.6673 42.174 53.6673 27.9987C53.6673 22.597 51.9987 17.5851 49.1488 13.4503L45.7804 16.8186C47.8204 20.056 49.0007 23.8895 49.0007 27.9987C49.0007 39.5967 39.5986 48.9987 28.0007 48.9987C16.4027 48.9987 7.00065 39.5967 7.00065 27.9987C7.00065 16.4007 16.4027 6.9987 28.0007 6.9987C32.1098 6.9987 35.9434 8.17894 39.1808 10.2189L42.5491 6.85059Z" fill="white"/>
<path d="M46.6673 2.33203C47.956 2.33203 49.0007 3.3767 49.0007 4.66536V6.9987H51.334C52.6227 6.9987 53.6673 8.04337 53.6673 9.33203C53.6673 10.6207 52.6227 11.6654 51.334 11.6654H47.6338L32.3194 26.9797C33.2042 27.3113 33.834 28.1648 33.834 29.1654C33.834 30.454 32.7893 31.4987 31.5007 31.4987H26.834C25.5453 31.4987 24.5007 30.454 24.5007 29.1654V24.4987C24.5007 23.21 25.5453 22.1654 26.834 22.1654C27.8345 22.1654 28.688 22.7951 29.0196 23.6799L44.334 8.36553V4.66536C44.334 3.3767 45.3787 2.33203 46.6673 2.33203Z" fill="white"/>
<path d="M28.0007 11.6654C30.8135 11.6654 33.4603 12.3764 35.7711 13.6286L32.2641 17.1356C30.9435 16.6169 29.5053 16.332 28.0007 16.332C21.5573 16.332 16.334 21.5554 16.334 27.9987C16.334 34.442 21.5573 39.6654 28.0007 39.6654C34.444 39.6654 39.6673 34.442 39.6673 27.9987C39.6673 26.494 39.3825 25.0559 38.8638 23.7353L42.3708 20.2282C43.6229 22.539 44.334 25.1858 44.334 27.9987C44.334 37.0194 37.0213 44.332 28.0007 44.332C18.98 44.332 11.6673 37.0194 11.6673 27.9987C11.6673 18.978 18.98 11.6654 28.0007 11.6654Z" fill="white"/>
</svg>
