<svg width="24" height="25" viewBox="0 0 24 25" fill="none" xmlns="http://www.w3.org/2000/svg">
<path d="M0 4.25C0 2.17893 1.67893 0.5 3.75 0.5H20.25C22.3211 0.5 24 2.17893 24 4.25V20.75C24 22.8211 22.3211 24.5 20.25 24.5H3.75C1.67893 24.5 0 22.8211 0 20.75V4.25Z" fill="black"/>
<path d="M10.8738 11.2246V10.7574C10.7137 10.736 10.551 10.7227 10.383 10.7227C8.37977 10.72 6.75 12.3511 6.75 14.3587C6.75 15.5894 7.3635 16.6786 8.30242 17.338C7.69692 16.6893 7.32615 15.8163 7.32615 14.8606C7.32615 12.8824 8.91058 11.2699 10.8738 11.2246Z" fill="#25F4EE"/>
<path d="M10.9615 16.5218C11.8551 16.5218 12.586 15.809 12.618 14.9227L12.6207 7.00189H14.0664C14.037 6.83904 14.021 6.67086 14.021 6.5H12.0472L12.0445 14.4208C12.0125 15.3071 11.2816 16.0199 10.3881 16.0199C10.1107 16.0199 9.84925 15.9505 9.61719 15.8277C9.91593 16.2468 10.4067 16.5218 10.9615 16.5218Z" fill="#25F4EE"/>
<path d="M16.7698 9.69101V9.25054C16.2177 9.25054 15.7056 9.08768 15.2734 8.80469C15.6575 9.24519 16.1777 9.56556 16.7698 9.69101Z" fill="#25F4EE"/>
<path d="M15.2733 8.80394C14.8518 8.32075 14.5984 7.69072 14.5984 7.00195H14.0703C14.2063 7.75479 14.6545 8.40085 15.2733 8.80394Z" fill="#FE2C55"/>
<path d="M10.3857 12.6963C9.47076 12.6963 8.72656 13.4411 8.72656 14.3568C8.72656 14.9949 9.08932 15.5501 9.61746 15.8278C9.42008 15.5555 9.30272 15.2218 9.30272 14.8587C9.30272 13.943 10.0469 13.1982 10.9618 13.1982C11.1326 13.1982 11.2979 13.2276 11.4526 13.2756V11.2574C11.2926 11.236 11.1299 11.2227 10.9618 11.2227C10.9325 11.2227 10.9058 11.2253 10.8765 11.2253V12.7737C10.7191 12.7257 10.5564 12.6963 10.3857 12.6963Z" fill="#FE2C55"/>
<path d="M16.7671 9.68945V11.2245C15.7428 11.2245 14.7932 10.8961 14.0196 10.3408V14.3586C14.0196 16.3635 12.3899 17.9974 10.384 17.9974C9.61046 17.9974 8.89027 17.7517 8.30078 17.338C8.96496 18.0507 9.91188 18.4993 10.9602 18.4993C12.9634 18.4993 14.5958 16.8681 14.5958 14.8605V10.8427C15.3693 11.398 16.3189 11.7264 17.3432 11.7264V9.75088C17.1431 9.75088 16.9511 9.7295 16.7671 9.68945Z" fill="#FE2C55"/>
<path d="M14.0193 14.3594V10.3416C14.7929 10.8969 15.7425 11.2253 16.7668 11.2253V9.69026C16.1746 9.56482 15.6545 9.24445 15.2704 8.80394C14.6515 8.40085 14.2061 7.75479 14.0647 7.00195H12.619L12.6163 14.9227C12.5843 15.809 11.8534 16.5219 10.9599 16.5219C10.405 16.5219 9.91691 16.2469 9.61283 15.8304C9.08469 15.5501 8.72193 14.9975 8.72193 14.3594C8.72193 13.4438 9.46613 12.6989 10.381 12.6989C10.5518 12.6989 10.7171 12.7283 10.8718 12.7764V11.228C8.90865 11.2707 7.32422 12.8831 7.32422 14.8613C7.32422 15.8171 7.69499 16.6874 8.30048 17.3388C8.88997 17.7526 9.61017 17.9982 10.3837 17.9982C12.3869 17.9982 14.0193 16.3643 14.0193 14.3594Z" fill="white"/>
</svg>
