<svg width="25" height="25" viewBox="0 0 25 25" xmlns="http://www.w3.org/2000/svg">
<g id="icon / users">
<g id="icon">
<path fill-rule="evenodd" clip-rule="evenodd" d="M14.4992 3.5C11.1855 3.5 8.49916 6.18629 8.49916 9.5C8.49916 12.8137 11.1855 15.5 14.4992 15.5C17.8129 15.5 20.4992 12.8137 20.4992 9.5C20.4992 6.18629 17.8129 3.5 14.4992 3.5ZM10.4992 9.5C10.4992 7.29086 12.29 5.5 14.4992 5.5C16.7083 5.5 18.4992 7.29086 18.4992 9.5C18.4992 11.7091 16.7083 13.5 14.4992 13.5C12.29 13.5 10.4992 11.7091 10.4992 9.5Z"/>
<path d="M8.65456 21.0272C8.3634 21.4965 7.74692 21.6409 7.27762 21.3497C6.80832 21.0586 6.66392 20.4421 6.95509 19.9728C8.32449 17.7656 11.126 15.5 14.4992 15.5C17.8724 15.5 20.6739 17.7656 22.0433 19.9728C22.3344 20.4421 22.19 21.0586 21.7207 21.3497C21.2514 21.6409 20.6349 21.4965 20.3438 21.0272C19.2216 19.2185 16.9835 17.5 14.4992 17.5C12.0148 17.5 9.77671 19.2185 8.65456 21.0272Z"/>
<path d="M8.39702 7.05972C8.64018 7.55559 8.43532 8.1547 7.93944 8.39786C7.03078 8.84344 6.49916 9.65179 6.49916 10.5C6.49916 11.3482 7.03078 12.1566 7.93944 12.6021C8.43532 12.8453 8.64018 13.4444 8.39702 13.9403C8.15386 14.4362 7.55475 14.641 7.05888 14.3979C5.58207 13.6737 4.49916 12.2335 4.49916 10.5C4.49916 8.76647 5.58207 7.32632 7.05888 6.60214C7.55475 6.35898 8.15386 6.56384 8.39702 7.05972Z"/>
<path d="M4.65456 21.0272C4.3634 21.4965 3.74692 21.6409 3.27762 21.3497C2.80832 21.0586 2.66392 20.4421 2.95509 19.9728C3.53418 19.0394 4.46072 18.2604 5.4944 17.6559C5.97116 17.3772 6.58364 17.5377 6.86242 18.0144C7.1412 18.4912 6.98071 19.1037 6.50395 19.3824C5.64024 19.8875 5.00477 20.4627 4.65456 21.0272Z"/>
</g>
</g>
</svg>
