<svg width="20" height="21" viewBox="0 0 20 21" fill="none" xmlns="http://www.w3.org/2000/svg">
<g id="icon / user-add">
<g id="icon">
<path fill-rule="evenodd" clip-rule="evenodd" d="M5.83398 6.33366C5.83398 4.03247 7.69947 2.16699 10.0007 2.16699C12.3018 2.16699 14.1673 4.03247 14.1673 6.33366C14.1673 8.63485 12.3018 10.5003 10.0007 10.5003C7.69947 10.5003 5.83398 8.63485 5.83398 6.33366ZM10.0007 3.83366C8.61994 3.83366 7.50065 4.95295 7.50065 6.33366C7.50065 7.71437 8.61994 8.83366 10.0007 8.83366C11.3814 8.83366 12.5007 7.71437 12.5007 6.33366C12.5007 4.95295 11.3814 3.83366 10.0007 3.83366Z" fill="#2D59C8"/>
<path fill-rule="evenodd" clip-rule="evenodd" d="M5.46351 18.7648C6.85883 19.3755 8.7169 19.667 10.0006 19.667C11.2844 19.667 13.1425 19.3755 14.5378 18.7648C15.2228 18.465 15.9194 18.0359 16.3242 17.4148C16.5371 17.0882 16.6716 16.7034 16.6672 16.2738C16.6628 15.8482 16.5228 15.4404 16.2874 15.061C15.1462 13.2217 12.8117 11.3337 10.0006 11.3337C7.18964 11.3337 4.85508 13.2217 3.71391 15.061C3.47852 15.4404 3.33846 15.8482 3.33409 16.2738C3.32968 16.7034 3.46425 17.0882 3.67711 17.4148C4.08186 18.0359 4.77851 18.465 5.46351 18.7648ZM5.00067 16.2909C5.00129 16.2301 5.02042 16.1165 5.13014 15.9397C6.06527 14.4324 7.93037 13.0003 10.0006 13.0003C12.0709 13.0003 13.936 14.4324 14.8712 15.9397C14.9809 16.1165 15 16.2301 15.0006 16.2909C15.0012 16.3479 14.9866 16.4147 14.9278 16.5049C14.7894 16.7174 14.4531 16.9826 13.8695 17.238C12.7278 17.7377 11.1063 18.0003 10.0006 18.0003C8.89501 18.0003 7.27352 17.7377 6.13176 17.238C5.54821 16.9826 5.21193 16.7174 5.07345 16.5049C5.0147 16.4147 5.00008 16.3479 5.00067 16.2909Z" fill="#2D59C8"/>
<path d="M17.5007 3.00033C17.5007 2.54009 17.1276 2.16699 16.6673 2.16699C16.2071 2.16699 15.834 2.54009 15.834 3.00033V3.83366H15.0007C14.5404 3.83366 14.1673 4.20675 14.1673 4.66699C14.1673 5.12723 14.5404 5.50033 15.0007 5.50033H15.834V6.33366C15.834 6.7939 16.2071 7.16699 16.6673 7.16699C17.1276 7.16699 17.5007 6.7939 17.5007 6.33366V5.50033H18.334C18.7942 5.50033 19.1673 5.12723 19.1673 4.66699C19.1673 4.20675 18.7942 3.83366 18.334 3.83366H17.5007V3.00033Z" fill="#2D59C8"/>
</g>
</g>
</svg>
