<svg width="20" height="20" viewBox="0 0 20 20" xmlns="http://www.w3.org/2000/svg">
<path fill-rule="evenodd" clip-rule="evenodd" d="M5.83301 5.83464C5.83301 3.53345 7.69849 1.66797 9.99968 1.66797C12.3009 1.66797 14.1663 3.53345 14.1663 5.83464C14.1663 8.13582 12.3009 10.0013 9.99968 10.0013C7.69849 10.0013 5.83301 8.13582 5.83301 5.83464ZM9.99968 3.33464C8.61896 3.33464 7.49968 4.45392 7.49968 5.83464C7.49968 7.21535 8.61896 8.33464 9.99968 8.33464C11.3804 8.33464 12.4997 7.21535 12.4997 5.83464C12.4997 4.45392 11.3804 3.33464 9.99968 3.33464Z"/>
<path fill-rule="evenodd" clip-rule="evenodd" d="M5.46253 18.2658C6.85786 18.8765 8.71592 19.168 9.99967 19.168C11.2834 19.168 13.1415 18.8765 14.5368 18.2658C15.2218 17.966 15.9185 17.5369 16.3232 16.9158C16.5361 16.5892 16.6706 16.2044 16.6662 15.7748C16.6619 15.3492 16.5218 14.9414 16.2864 14.562C15.1452 12.7227 12.8107 10.8346 9.99967 10.8346C7.18867 10.8346 4.8541 12.7227 3.71294 14.562C3.47754 14.9414 3.33748 15.3492 3.33311 15.7748C3.3287 16.2044 3.46327 16.5892 3.67614 16.9158C4.08088 17.5369 4.77753 17.966 5.46253 18.2658ZM4.99969 15.7919C5.00032 15.7311 5.01944 15.6175 5.12917 15.4406C6.06429 13.9334 7.92939 12.5013 9.99967 12.5013C12.07 12.5013 13.9351 13.9334 14.8702 15.4406C14.9799 15.6175 14.999 15.7311 14.9997 15.7919C15.0002 15.8488 14.9856 15.9157 14.9269 16.0059C14.7884 16.2184 14.4521 16.4836 13.8686 16.7389C12.7268 17.2387 11.1053 17.5013 9.99967 17.5013C8.89404 17.5013 7.27254 17.2387 6.13078 16.7389C5.54723 16.4836 5.21096 16.2184 5.07248 16.0059C5.01373 15.9157 4.99911 15.8488 4.99969 15.7919Z"/>
<path d="M18.9131 3.50721C19.2385 3.18178 19.2385 2.65414 18.9131 2.3287C18.5877 2.00326 18.06 2.00326 17.7346 2.3287L16.119 3.94431L15.8841 3.70941C15.5586 3.38397 15.031 3.38397 14.7055 3.70941C14.3801 4.03484 14.3801 4.56248 14.7055 4.88792L15.5297 5.71208C15.8551 6.03751 16.3828 6.03751 16.7082 5.71208L18.9131 3.50721Z"/>
</svg>
