<svg width="8" height="8" viewBox="0 0 8 8" fill="none" xmlns="http://www.w3.org/2000/svg">
<g id="icon / user">
<g id="icon">
<path fill-rule="evenodd" clip-rule="evenodd" d="M3.9987 0.666016C3.07822 0.666016 2.33203 1.41221 2.33203 2.33268C2.33203 3.25316 3.07822 3.99935 3.9987 3.99935C4.91917 3.99935 5.66537 3.25316 5.66537 2.33268C5.66537 1.41221 4.91917 0.666016 3.9987 0.666016ZM2.9987 2.33268C2.9987 1.7804 3.44641 1.33268 3.9987 1.33268C4.55098 1.33268 4.9987 1.7804 4.9987 2.33268C4.9987 2.88497 4.55098 3.33268 3.9987 3.33268C3.44641 3.33268 2.9987 2.88497 2.9987 2.33268Z" fill="#EA8616"/>
<path fill-rule="evenodd" clip-rule="evenodd" d="M3.9987 7.66602C3.4852 7.66602 2.74197 7.54942 2.18384 7.30514C1.90984 7.18522 1.63118 7.01359 1.46928 6.76515C1.38414 6.63449 1.33031 6.48059 1.33207 6.30875C1.33382 6.13849 1.38984 5.97538 1.484 5.82361C1.94047 5.08789 2.87429 4.33268 3.9987 4.33268C5.1231 4.33268 6.05693 5.08789 6.51339 5.82361C6.60755 5.97538 6.66358 6.1385 6.66532 6.30875C6.66709 6.48059 6.61326 6.63449 6.52811 6.76515C6.36621 7.01359 6.08755 7.18522 5.81355 7.30514C5.25542 7.54942 4.5122 7.66602 3.9987 7.66602ZM2.0505 6.17508C2.0066 6.24583 1.99895 6.29126 1.9987 6.3156C1.99847 6.33836 2.00432 6.36511 2.02782 6.40117C2.08321 6.48617 2.21772 6.59225 2.45114 6.69441C2.90785 6.89429 3.55644 6.99935 3.9987 6.99935C4.44095 6.99935 5.08955 6.89429 5.54626 6.69441C5.77967 6.59225 5.91419 6.48617 5.96958 6.40117C5.99308 6.36511 5.99893 6.33836 5.99869 6.3156C5.99844 6.29126 5.99079 6.24583 5.9469 6.17508C5.57285 5.5722 4.82681 4.99935 3.9987 4.99935C3.17059 4.99935 2.42455 5.5722 2.0505 6.17508Z" fill="#EA8616"/>
</g>
</g>
</svg>
