<svg width="16" height="17" viewBox="0 0 16 17" fill="none" xmlns="http://www.w3.org/2000/svg">
<g id="icon / book">
<path id="icon" fill-rule="evenodd" clip-rule="evenodd" d="M4.44444 1.83398C3.08663 1.83398 2 2.94618 2 4.30065V12.4866C2 13.9593 3.18129 15.1673 4.65587 15.1673H12.3042C12.569 15.1673 12.9082 15.1074 13.1588 14.8374C13.4107 14.5661 13.4327 14.2338 13.4162 14.0193C13.3994 13.8006 13.3341 13.5805 13.2703 13.397C13.21 13.2238 13.1351 13.0397 13.0662 12.8703L13.0477 12.8248C12.8859 12.4266 12.7697 12.1193 12.7432 11.8852C12.7399 11.8558 12.7386 11.8319 12.7384 11.8128C12.9408 11.7821 13.1355 11.7162 13.312 11.6017C13.5774 11.4295 13.7384 11.1886 13.8339 10.947C14.0002 10.5268 14.0001 10.0025 14 9.60588L14 4.30065C14 2.94618 12.9134 1.83398 11.5556 1.83398H4.44444ZM11.4183 12.0351C11.4111 11.9711 11.4062 11.9037 11.4053 11.834H3.33333V12.4866C3.33333 13.2386 3.93324 13.834 4.65587 13.834H12.0106C11.9623 13.6953 11.9003 13.543 11.828 13.3651L11.8073 13.3141C11.6637 12.9607 11.4688 12.4812 11.4183 12.0351ZM12.581 10.4849C12.5652 10.4904 12.5246 10.5007 12.4444 10.5007H3.33333V4.30065C3.33333 3.6669 3.83858 3.16732 4.44444 3.16732H11.5556C12.1614 3.16732 12.6667 3.6669 12.6667 4.30065V9.57767C12.6667 9.79952 12.665 9.98273 12.6519 10.142C12.6387 10.3033 12.6163 10.4003 12.5942 10.4564C12.5886 10.4704 12.5841 10.4794 12.581 10.4849ZM12.5878 10.4822L12.5891 10.4815C12.5891 10.4815 12.5887 10.4817 12.5878 10.4822ZM12.0872 14.1294C12.0872 14.1314 12.0872 14.1325 12.0872 14.1325C12.0873 14.1326 12.0873 14.132 12.0873 14.1309" fill="#2B49A2"/>
</g>
</svg>
