<svg width="21" height="22" viewBox="0 0 21 22" fill="none" xmlns="http://www.w3.org/2000/svg">
<path id="Vector" d="M19.5 12V14C19.5 15.6569 18.1569 17 16.5 17C14.8431 17 13.5 15.6569 13.5 14V12C13.5 10.3431 14.8431 9 16.5 9C18.1569 9 19.5 10.3431 19.5 12ZM19.5 12V10C19.5 5.02944 15.4706 1 10.5 1C5.52944 1 1.5 5.02944 1.5 10V12M1.5 12V14C1.5 15.6569 2.84315 17 4.5 17C6.15685 17 7.5 15.6569 7.5 14V12C7.5 10.3431 6.15685 9 4.5 9C2.84315 9 1.5 10.3431 1.5 12ZM19.5 13V15C19.5 18.3137 16.8137 21 13.5 21H10.5" stroke="#50545F" stroke-width="1.5" stroke-linecap="round" stroke-linejoin="round"/>
</svg>
