<svg width="17" height="16" viewBox="0 0 17 16" xmlns="http://www.w3.org/2000/svg">
<g id="Icon-right">
<path id="icon" fill-rule="evenodd" clip-rule="evenodd" d="M9.70364 1.83169C9.03214 1.18208 7.96645 1.18208 7.29495 1.83169C6.91096 2.20316 6.37703 2.37665 5.84802 2.30182C4.92294 2.17098 4.06078 2.79737 3.89936 3.71762C3.80705 4.24385 3.47706 4.69804 3.00511 4.94845C2.17979 5.38634 1.85047 6.39987 2.26078 7.23924C2.49541 7.71923 2.49541 8.28064 2.26078 8.76063C1.85047 9.60001 2.17979 10.6135 3.00511 11.0514C3.47706 11.3018 3.80705 11.756 3.89936 12.2823C4.06078 13.2025 4.92294 13.8289 5.84803 13.6981C6.37703 13.6232 6.91096 13.7967 7.29495 14.1682C7.96645 14.8178 9.03214 14.8178 9.70364 14.1682C10.0876 13.7967 10.6216 13.6232 11.1506 13.6981C12.0757 13.8289 12.9378 13.2025 13.0992 12.2823C13.1915 11.756 13.5215 11.3018 13.9935 11.0514C14.8188 10.6135 15.1481 9.60001 14.7378 8.76063C14.5032 8.28064 14.5032 7.71923 14.7378 7.23924C15.1481 6.39987 14.8188 5.38634 13.9935 4.94845C13.5215 4.69804 13.1915 4.24385 13.0992 3.71762C12.9378 2.79737 12.0757 2.17098 11.1506 2.30182C10.6216 2.37665 10.0876 2.20316 9.70364 1.83169ZM11.6444 6.46425C11.9008 6.20004 11.8945 5.77797 11.6303 5.52154C11.3661 5.26511 10.944 5.27142 10.6876 5.53563L7.28376 9.04272L6.31103 8.04047C6.0546 7.77626 5.63253 7.76995 5.36832 8.02638C5.10411 8.28281 5.0978 8.70487 5.35423 8.96908L6.80536 10.4642C6.93091 10.5936 7.10349 10.6666 7.28376 10.6666C7.46402 10.6666 7.63661 10.5936 7.76216 10.4642L11.6444 6.46425Z"/>
</g>
</svg>
