<svg width="21" height="20" viewBox="0 0 21 20" xmlns="http://www.w3.org/2000/svg">
<g id="icon / video">
<g id="icon">
<path d="M4.32759 8.02436C4.72849 8.15799 5.04308 8.47258 5.17672 8.87348C5.31272 9.28149 5.88984 9.28149 6.02584 8.87348C6.15947 8.47258 6.47406 8.15799 6.87496 8.02436C7.28297 7.88836 7.28297 7.31124 6.87496 7.17524C6.47406 7.0416 6.15947 6.72702 6.02584 6.32611C5.88984 5.91811 5.31272 5.91811 5.17672 6.32611C5.04308 6.72702 4.72849 7.0416 4.32759 7.17524C3.91958 7.31124 3.91958 7.88836 4.32759 8.02436Z"/>
<path fill-rule="evenodd" clip-rule="evenodd" d="M4.66683 3.33203C2.82588 3.33203 1.3335 4.82442 1.3335 6.66536V13.332C1.3335 15.173 2.82588 16.6654 4.66683 16.6654H13.0002C14.5772 16.6654 15.8985 15.5702 16.2449 14.0989L17.0002 14.6654C18.0989 15.4894 19.6668 14.7054 19.6668 13.332V6.66536C19.6668 5.29196 18.0989 4.50799 17.0002 5.33203L16.2449 5.89851C15.8985 4.42721 14.5772 3.33203 13.0002 3.33203H4.66683ZM18.0002 13.332L16.3335 12.082V7.91536L18.0002 6.66536V13.332ZM3.00016 6.66536C3.00016 5.74489 3.74635 4.9987 4.66683 4.9987H13.0002C13.9206 4.9987 14.6668 5.74489 14.6668 6.66536V13.332C14.6668 14.2525 13.9206 14.9987 13.0002 14.9987H4.66683C3.74635 14.9987 3.00016 14.2525 3.00016 13.332V6.66536Z"/>
</g>
</g>
</svg>
