<svg width="20" height="20" viewBox="0 0 20 20" xmlns="http://www.w3.org/2000/svg">
<g id="icon / wallet">
<path id="icon" fill-rule="evenodd" clip-rule="evenodd" d="M4.35527 2.5C2.87112 2.5 1.66797 3.70314 1.66797 5.1873V14.1667C1.66797 16.0076 3.16035 17.5 5.0013 17.5H15.0013C16.8423 17.5 18.3346 16.0076 18.3346 14.1667V8.7963C18.3346 6.9557 16.8434 5.46296 15.0021 5.46296H12.4093C12.3761 5.41405 12.3378 5.35183 12.2945 5.27427C12.177 5.06429 12.0628 4.81759 11.9318 4.53459C11.9007 4.46744 11.8687 4.39822 11.8355 4.32699C11.6761 3.98558 11.4831 3.58459 11.2596 3.26646C11.074 3.00239 10.6687 2.5 10.0128 2.5H4.35527ZM10.4077 5.2098C10.4457 5.29197 10.485 5.37702 10.5253 5.46296H3.33464V5.1873C3.33464 4.62362 3.79159 4.16667 4.35527 4.16667H9.85293C9.8653 4.18236 9.8796 4.20148 9.89583 4.22458C10.023 4.40559 10.1599 4.67764 10.3252 5.03184C10.3518 5.08899 10.3794 5.14863 10.4077 5.2098ZM5.0013 15.8333C4.08083 15.8333 3.33464 15.0871 3.33464 14.1667V7.12963H12.0664C12.0686 7.12968 12.0708 7.12971 12.073 7.12974C12.0826 7.12987 12.0921 7.12983 12.1016 7.12963H15.0021C15.9222 7.12963 16.668 7.87547 16.668 8.7963V9.16667H15.0013C13.6206 9.16667 12.5013 10.286 12.5013 11.6667C12.5013 13.0474 13.6206 14.1667 15.0013 14.1667H16.668C16.668 15.0871 15.9218 15.8333 15.0013 15.8333H5.0013ZM14.168 11.6667C14.168 11.2064 14.5411 10.8333 15.0013 10.8333H16.668V12.5H15.0013C14.5411 12.5 14.168 12.1269 14.168 11.6667ZM9.79412 4.10269C9.79413 4.10227 9.79758 4.10471 9.80442 4.1113C9.79753 4.10641 9.79411 4.10312 9.79412 4.10269Z"/>
</g>
</svg>
