<svg width="34" height="34" viewBox="0 0 34 34" fill="none" xmlns="http://www.w3.org/2000/svg">
<path d="M17.0007 11.1673C17.0007 10.2468 16.2545 9.50065 15.334 9.50065C14.4135 9.50065 13.6673 10.2468 13.6673 11.1673V19.5007C13.6673 20.4211 14.4135 21.1673 15.334 21.1673H20.334C21.2545 21.1673 22.0007 20.4211 22.0007 19.5007C22.0007 18.5802 21.2545 17.834 20.334 17.834H17.0007V11.1673Z" fill="white"/>
<path fill-rule="evenodd" clip-rule="evenodd" d="M17.0007 0.333984C7.79591 0.333984 0.333984 7.79591 0.333984 17.0007C0.333984 26.2054 7.79591 33.6673 17.0007 33.6673C26.2054 33.6673 33.6673 26.2054 33.6673 17.0007C33.6673 7.79591 26.2054 0.333984 17.0007 0.333984ZM3.66732 17.0007C3.66732 9.63685 9.63685 3.66732 17.0007 3.66732C24.3644 3.66732 30.334 9.63685 30.334 17.0007C30.334 24.3644 24.3644 30.334 17.0007 30.334C9.63685 30.334 3.66732 24.3644 3.66732 17.0007Z" fill="white"/>
</svg>
