<svg width="48" height="49" viewBox="0 0 48 49"  xmlns="http://www.w3.org/2000/svg">
<path d="M40.5001 7.25H7.50001C6.30654 7.25 5.16194 7.72411 4.31802 8.56802C3.47411 9.41194 3 10.5565 3 11.75V37.2501C3 38.4436 3.47411 39.5882 4.31802 40.4321C5.16194 41.276 6.30654 41.7501 7.50001 41.7501H40.5001C41.6936 41.7501 42.8382 41.276 43.6821 40.4321C44.526 39.5882 45.0001 38.4436 45.0001 37.2501V11.75C45.0001 10.5565 44.526 9.41194 43.6821 8.56802C42.8382 7.72411 41.6936 7.25 40.5001 7.25ZM42.0001 11.75V23H33.0001V10.25H40.5001C40.8979 10.25 41.2795 10.408 41.5608 10.6893C41.8421 10.9707 42.0001 11.3522 42.0001 11.75ZM6.00001 37.2501V11.75C6.00001 11.3522 6.15804 10.9707 6.43935 10.6893C6.72066 10.408 7.10219 10.25 7.50001 10.25H30.0001V24.5C30.0001 24.5 30.0001 24.5 30.0001 24.59V38.7501H7.50001C7.10219 38.7501 6.72066 38.5921 6.43935 38.3108C6.15804 38.0294 6.00001 37.6479 6.00001 37.2501ZM40.5001 38.7501H33.0001V26.0001H42.0001V37.2501C42.0001 37.6479 41.8421 38.0294 41.5608 38.3108C41.2795 38.5921 40.8979 38.7501 40.5001 38.7501Z"/>
<path d="M21.1655 23.1951C21.808 22.5711 22.2497 21.7696 22.4341 20.8932C22.6185 20.0167 22.5371 19.1052 22.2005 18.2752C21.8638 17.4453 21.2871 16.7347 20.5443 16.2344C19.8014 15.7341 18.9261 15.4668 18.0305 15.4668C17.1349 15.4668 16.2596 15.7341 15.5167 16.2344C14.7739 16.7347 14.1972 17.4453 13.8605 18.2752C13.5238 19.1052 13.4425 20.0167 13.6269 20.8932C13.8112 21.7696 14.253 22.5711 14.8955 23.1951C11.5805 24.1251 9.10547 27.6951 9.10547 31.9551C9.10547 32.3529 9.2635 32.7345 9.54481 33.0158C9.82611 33.2971 10.2076 33.4551 10.6055 33.4551C11.0033 33.4551 11.3848 33.2971 11.6661 33.0158C11.9474 32.7345 12.1055 32.3529 12.1055 31.9551C12.1055 28.6401 14.1305 25.9551 16.6055 25.9551H19.6055C22.0805 25.9551 24.1055 28.6401 24.1055 31.9551C24.1055 32.3529 24.2635 32.7345 24.5449 33.0158C24.8262 33.2971 25.2077 33.4551 25.6055 33.4551C26.0033 33.4551 26.3849 33.2971 26.6662 33.0158C26.9475 32.7345 27.1055 32.3529 27.1055 31.9551C27.1055 27.6801 24.5555 24.0651 21.1655 23.1951ZM18.0005 18.5001C18.2972 18.5001 18.5872 18.5881 18.8339 18.7529C19.0805 18.9177 19.2728 19.152 19.3863 19.4261C19.4998 19.7002 19.5296 20.0018 19.4717 20.2927C19.4138 20.5837 19.2709 20.851 19.0612 21.0608C18.8514 21.2705 18.5841 21.4134 18.2931 21.4713C18.0022 21.5291 17.7006 21.4994 17.4265 21.3859C17.1524 21.2724 16.9181 21.0801 16.7533 20.8334C16.5885 20.5868 16.5005 20.2968 16.5005 20.0001C16.5005 19.6023 16.6585 19.2207 16.9398 18.9394C17.2211 18.6581 17.6027 18.5001 18.0005 18.5001Z"/>
</svg>
