<svg width="40" height="40" viewBox="0 0 40 40" fill="none" xmlns="http://www.w3.org/2000/svg">
<g id="Component 151">
<path id="icon" fill-rule="evenodd" clip-rule="evenodd" d="M8.7487 5.66406C5.0668 5.66406 2.08203 8.64884 2.08203 12.3307V23.6641C2.08203 27.346 5.0668 30.3307 8.7487 30.3307H15.4154V30.9974H12.4986C11.5782 30.9974 10.832 31.7436 10.832 32.6641C10.832 33.5846 11.5782 34.3308 12.4986 34.3308H21.6653C22.5858 34.3308 23.332 33.5846 23.332 32.6641C23.332 31.7436 22.5858 30.9974 21.6653 30.9974H18.7487V30.3307H23.5847C23.4355 30.6462 23.3368 31.0042 23.3322 31.3979C23.325 32.0109 23.5481 32.5287 23.8403 32.9211C24.3652 33.6259 25.1811 34.0261 25.8001 34.2631C27.1194 34.7684 28.821 34.9976 29.9987 34.9976C31.1764 34.9976 32.878 34.7684 34.1973 34.2631C34.8163 34.0261 35.6322 33.6259 36.1571 32.9211C36.4493 32.5287 36.6724 32.0109 36.6652 31.3979C36.6581 30.796 36.4312 30.2776 36.1399 29.8669C35.1862 28.5218 33.445 27.1891 31.3066 26.7867C31.3473 26.7101 31.3866 26.6325 31.4243 26.5541C31.442 26.5175 31.4581 26.4805 31.4729 26.4434C33.5148 25.8143 34.9987 23.9125 34.9987 21.6642C34.9987 19.6463 33.8033 17.9076 32.082 17.1176V12.3307C32.082 8.64883 29.0973 5.66406 25.4154 5.66406H8.7487ZM24.9987 21.6642C24.9987 23.593 26.0908 25.2667 27.6904 26.1007C27.0939 26.6578 26.2936 26.9974 25.4154 26.9974H8.7487C6.90775 26.9974 5.41536 25.505 5.41536 23.6641V12.3307C5.41536 10.4898 6.90775 8.9974 8.7487 8.9974H25.4154C27.2563 8.9974 28.7487 10.4898 28.7487 12.3307V16.8217C26.5922 17.3768 24.9987 19.3344 24.9987 21.6642ZM29.9987 19.9976C29.0782 19.9976 28.332 20.7438 28.332 21.6642C28.332 22.5847 29.0782 23.3309 29.9987 23.3309C30.9192 23.3309 31.6654 22.5847 31.6654 21.6642C31.6654 20.7438 30.9192 19.9976 29.9987 19.9976ZM27.1105 31.1937C27.9623 31.4943 29.1677 31.6642 29.9987 31.6642C30.8297 31.6642 32.0351 31.4943 32.8869 31.1937C32.1736 30.5343 31.1236 29.9976 29.9987 29.9976C28.8737 29.9976 27.8238 30.5343 27.1105 31.1937Z" fill="#2D59C8"/>
</g>
</svg>
