<svg width="24" height="25" viewBox="0 0 24 25" fill="none" xmlns="http://www.w3.org/2000/svg">
<g id="whatsapp">
<path id="bg" d="M20.25 0.5H3.75C1.67893 0.5 0 2.17893 0 4.25V20.75C0 22.8211 1.67893 24.5 3.75 24.5H20.25C22.3211 24.5 24 22.8211 24 20.75V4.25C24 2.17893 22.3211 0.5 20.25 0.5Z" fill="#25D366"/>
<path id="whatsapp_2" fill-rule="evenodd" clip-rule="evenodd" d="M16.2 8.225C15.075 7.1 13.575 6.5 12 6.5C8.7 6.5 6 9.2 6 12.5C6 13.55 6.3 14.6 6.825 15.5L6 18.5L9.15001 17.675C10.05 18.125 11.025 18.425 12 18.425C15.3 18.425 18 15.725 18 12.425C18 10.85 17.325 9.35 16.2 8.225ZM12 17.45C11.1 17.45 10.2 17.225 9.45 16.775L9.3 16.7L7.425 17.225L7.95 15.425L7.8 15.2C7.275 14.375 7.05 13.475 7.05 12.575C7.05 9.875 9.3 7.625 12 7.625C13.35 7.625 14.55 8.15 15.525 9.05C16.5 10.025 16.95 11.225 16.95 12.575C16.95 15.2 14.775 17.45 12 17.45ZM14.7 13.7C14.55 13.625 13.8 13.25 13.65 13.25C13.5 13.175 13.425 13.175 13.35 13.325C13.275 13.475 12.975 13.775 12.9 13.925C12.825 14 12.75 14 12.6 14C12.45 13.925 12 13.775 11.4 13.25C10.95 12.875 10.65 12.35 10.575 12.2C10.5 12.05 10.575 11.975 10.65 11.9C10.725 11.825 10.8 11.75 10.875 11.675C10.95 11.6 10.95 11.525 11.025 11.45C11.1 11.375 11.025 11.3 11.025 11.225C11.025 11.15 10.725 10.4 10.575 10.1C10.5 9.875 10.35 9.875 10.275 9.875C10.2 9.875 10.125 9.875 9.97499 9.875C9.89999 9.875 9.74999 9.875 9.59999 10.025C9.44999 10.175 9.075 10.55 9.075 11.3C9.075 12.05 9.6 12.725 9.675 12.875C9.75 12.95 10.725 14.525 12.225 15.125C13.5 15.65 13.725 15.5 14.025 15.5C14.325 15.5 14.925 15.125 15 14.825C15.15 14.45 15.15 14.15 15.075 14.15C15 13.775 14.85 13.775 14.7 13.7Z" fill="white"/>
</g>
</svg>
