<svg width="24" height="25" viewBox="0 0 24 25" fill="none" xmlns="http://www.w3.org/2000/svg">
<g id="x">
<path id="bg" d="M0 4.25C0 2.17893 1.67893 0.5 3.75 0.5H20.25C22.3211 0.5 24 2.17893 24 4.25V20.75C24 22.8211 22.3211 24.5 20.25 24.5H3.75C1.67893 24.5 0 22.8211 0 20.75V4.25Z" fill="black"/>
<path id="Vector" d="M13.1416 11.5812L17.6089 6.5H16.5503L12.6714 10.9119L9.57328 6.5H6L10.6849 13.1716L6 18.5H7.05866L11.1549 13.8409L14.4267 18.5H18L13.1414 11.5812H13.1416ZM11.6916 13.2304L11.217 12.566L7.44011 7.27981H9.06615L12.1141 11.546L12.5888 12.2103L16.5508 17.7557H14.9248L11.6916 13.2306V13.2304Z" fill="white"/>
</g>
</svg>
