<svg width="24" height="25" viewBox="0 0 24 25" fill="none" xmlns="http://www.w3.org/2000/svg">
<g id="youtube">
<path id="bg" d="M20.25 0.5H3.75C1.67893 0.5 0 2.17893 0 4.25V20.75C0 22.8211 1.67893 24.5 3.75 24.5H20.25C22.3211 24.5 24 22.8211 24 20.75V4.25C24 2.17893 22.3211 0.5 20.25 0.5Z" fill="#FF0000"/>
<path id="youtube_2" d="M17.7 9.57578C17.55 9.05078 17.175 8.67578 16.65 8.52578C15.75 8.30078 11.925 8.30078 11.925 8.30078C11.925 8.30078 8.175 8.30078 7.2 8.52578C6.675 8.67578 6.3 9.05078 6.15 9.57578C6 10.5508 6 12.5008 6 12.5008C6 12.5008 6 14.4508 6.225 15.4258C6.375 15.9508 6.75 16.3258 7.275 16.4758C8.175 16.7008 12 16.7008 12 16.7008C12 16.7008 15.75 16.7008 16.725 16.4758C17.25 16.3258 17.625 15.9508 17.775 15.4258C18 14.4508 18 12.5008 18 12.5008C18 12.5008 18 10.5508 17.7 9.57578ZM10.8 14.3008V10.7008L13.95 12.5008L10.8 14.3008Z" fill="white"/>
</g>
</svg>
